<svg width="500" height="500" viewBox="0 0 500 500" fill="none" xmlns="http://www.w3.org/2000/svg">
<path d="M500 0H0V500H500V0Z" fill="#327BBF"/>
<path opacity="0.4" d="M235.85 214.75V170.9C235.85 166.9 239.05 163.7 243.05 163.7C247.05 163.7 250.25 166.9 250.25 170.9V221.6C250.25 228.5 244.65 234.05 237.8 234.05C230.9 234.05 225.35 228.45 225.35 221.6V165.05C225.35 156.3 232.45 149.2 241.2 149.2C249.95 149.2 257.05 156.3 257.05 165.05V215.65" stroke="#2B5621" stroke-width="4" stroke-miterlimit="10" stroke-linecap="round" stroke-linejoin="round"/>
<path opacity="0.4" d="M269.7 295.5L283.25 253.8C284.5 250 288.55 247.95 292.3 249.2C296.1 250.45 298.15 254.5 296.9 258.25L281.25 306.45C279.1 313 272.1 316.6 265.55 314.45C259 312.3 255.4 305.3 257.55 298.75L275.05 245C277.75 236.7 286.7 232.15 295 234.85C303.3 237.55 307.85 246.5 305.15 254.8L289.5 302.9" stroke="#2B5621" stroke-width="4" stroke-miterlimit="10" stroke-linecap="round" stroke-linejoin="round"/>
<path opacity="0.18" d="M105.85 300.05H85.05L85.9 295.55C86.45 292.55 89.1 290.4 92.15 290.4H98.8C101.85 290.4 104.45 292.55 105.05 295.55L105.85 300.05Z" stroke="#351915" stroke-width="4" stroke-miterlimit="10" stroke-linecap="round" stroke-linejoin="round"/>
<path d="M104.75 302.25H83.95L84.8 297.75C85.35 294.75 88 292.6 91.05 292.6H97.7C100.75 292.6 103.35 294.75 103.95 297.75L104.75 302.25Z" fill="#FFC943"/>
<path d="M104.75 302.25H83.95L84.8 297.75C85.35 294.75 88 292.6 91.05 292.6H97.7C100.75 292.6 103.35 294.75 103.95 297.75L104.75 302.25Z" stroke="#102D3B" stroke-width="4" stroke-miterlimit="10" stroke-linecap="round" stroke-linejoin="round"/>
<g opacity="0.4">
<path opacity="0.4" d="M167.8 308.1C160.95 279.75 157.9 253.95 156.3 230.65C156 225.95 157.95 221.5 161.35 218.4C163.95 216.05 165.6 212.95 165.6 209.95C165.6 204.55 160.15 198.65 153.35 197.75C145.55 196.95 137.65 196.95 129.85 197.75C123 198.65 117.6 204.6 117.6 209.95C117.6 212.9 119.25 216 121.85 218.4C125.25 221.5 127.2 225.95 126.9 230.65C125.35 254 122.3 279.8 115.4 308.1" stroke="#2B5621" stroke-width="4" stroke-miterlimit="10" stroke-linecap="round" stroke-linejoin="round"/>
<path opacity="0.4" d="M201.6 254.05H81.5L89.85 309.2H116.05V310.8C116.05 314.1 116.95 316.75 120.2 316.75H162.8C166.1 316.75 166.95 314.1 166.95 310.8V309.2H193.15L201.6 254.05Z" fill="#2B5621" stroke="#2B5621" stroke-width="4" stroke-miterlimit="10" stroke-linecap="round" stroke-linejoin="round"/>
</g>
<path d="M195 247.15H74.9001L83.2501 302.3H107.7V303.9C107.7 307.2 110.35 309.85 113.65 309.85H156.25C159.55 309.85 162.2 307.2 162.2 303.9V302.3H186.65L195 247.15Z" fill="#FFC943"/>
<g opacity="0.18">
<path opacity="0.18" d="M125.45 247.151C123.6 266.001 120.6 286.301 115.3 308.101" stroke="#351915" stroke-width="4" stroke-miterlimit="10" stroke-linecap="round" stroke-linejoin="round"/>
<path opacity="0.18" d="M166.5 302.5C162 282.8 159.35 264.35 157.7 247.15" stroke="#351915" stroke-width="4" stroke-miterlimit="10" stroke-linecap="round" stroke-linejoin="round"/>
</g>
<path opacity="0.18" d="M157.1 306.5H116.25C118.25 304.45 119.5 302.2 120.35 300.05C121.15 297.95 123.05 296.5 125.2 296.5H148.2C150.35 296.5 152.2 297.9 153.05 300.05C153.85 302.25 155.1 304.5 157.1 306.5Z" stroke="#351915" stroke-width="4" stroke-miterlimit="10" stroke-linecap="round" stroke-linejoin="round"/>
<path opacity="0.18" d="M186.6 300.05H165.8L166.65 295.55C167.2 292.55 169.85 290.4 172.9 290.4H179.5C182.55 290.4 185.15 292.55 185.75 295.55L186.6 300.05Z" stroke="#351915" stroke-width="4" stroke-miterlimit="10" stroke-linecap="round" stroke-linejoin="round"/>
<path d="M161.2 301.15C154.35 272.8 151.3 247 149.7 223.7C149.4 219 151.35 214.55 154.75 211.45C157.35 209.1 159 206 159 203C159 197.6 153.55 191.7 146.75 190.8C138.95 190 131.05 190 123.25 190.8C116.4 191.7 111 197.65 111 203C111 205.95 112.65 209.05 115.25 211.45C118.65 214.55 120.6 219 120.3 223.7C118.75 247.05 115.7 272.85 108.8 301.15" stroke="#102D3B" stroke-width="4" stroke-miterlimit="10" stroke-linecap="round" stroke-linejoin="round"/>
<path d="M186.5 302.25H165.7L166.55 297.75C167.1 294.75 169.75 292.6 172.8 292.6H179.45C182.5 292.6 185.1 294.75 185.7 297.75L186.5 302.25Z" fill="#FFC943"/>
<path d="M186.5 302.25H165.7L166.55 297.75C167.1 294.75 169.75 292.6 172.8 292.6H179.45C182.5 292.6 185.1 294.75 185.7 297.75L186.5 302.25Z" stroke="#102D3B" stroke-width="4" stroke-miterlimit="10" stroke-linecap="round" stroke-linejoin="round"/>
<path d="M157.65 247.15H74.9001L83.2501 302.3H109.45V303.9C109.45 307.2 110.35 309.85 113.6 309.85H156.2C159.5 309.85 160.35 307.2 160.35 303.9V302.3H186.55L195 247.15H157.65Z" stroke="#102D3B" stroke-width="4" stroke-miterlimit="10" stroke-linecap="round" stroke-linejoin="round"/>
<path d="M154.9 309.85H114.05C116.05 307.8 117.3 305.55 118.15 303.4C118.95 301.3 120.85 299.85 123 299.85H146C148.15 299.85 150 301.25 150.85 303.4C151.65 305.55 152.9 307.8 154.9 309.85Z" fill="#FFC943"/>
<path d="M154.9 309.85H114.05C116.05 307.8 117.3 305.55 118.15 303.4C118.95 301.3 120.85 299.85 123 299.85H146C148.15 299.85 150 301.25 150.85 303.4C151.65 305.55 152.9 307.8 154.9 309.85Z" stroke="#102D3B" stroke-width="4" stroke-miterlimit="10" stroke-linecap="round" stroke-linejoin="round"/>
<path d="M231.45 209.25V165.4C231.45 161.4 234.65 158.2 238.65 158.2C242.65 158.2 245.85 161.4 245.85 165.4V216.1C245.85 223 240.25 228.55 233.4 228.55C226.5 228.55 220.95 222.95 220.95 216.1V159.5C220.95 150.75 228.05 143.65 236.8 143.65C245.55 143.65 252.65 150.75 252.65 159.5V210.1" stroke="#FDFFFF" stroke-width="4" stroke-miterlimit="10" stroke-linecap="round" stroke-linejoin="round"/>
<path d="M265.3 290L278.85 248.3C280.1 244.5 284.15 242.45 287.9 243.7C291.7 244.95 293.75 249 292.5 252.75L276.85 300.95C274.7 307.5 267.7 311.1 261.15 308.95C254.6 306.8 251 299.8 253.15 293.25L270.6 239.45C273.3 231.15 282.25 226.6 290.55 229.3C298.85 232 303.4 240.95 300.7 249.25L285.05 297.35" stroke="#FDFFFF" stroke-width="4" stroke-miterlimit="10" stroke-linecap="round" stroke-linejoin="round"/>
<g opacity="0.4">
<path opacity="0.4" d="M402.4 217.55C406.6 213.6 411.3 207.55 412.15 202H364.65C365.5 207.55 370.2 213.55 374.4 217.55C375.8 218.85 372.45 247.55 369.8 248.95C360.4 254 352.8 262.9 348.8 273.9H428C424 262.9 416.4 254 407 248.95C404.35 247.55 401 218.9 402.4 217.55Z" fill="#2B5621" stroke="#2B5621" stroke-width="4" stroke-miterlimit="10" stroke-linecap="round" stroke-linejoin="round"/>
<path opacity="0.4" d="M394.9 273.95H381.9L388.4 321.5L394.9 273.95Z" fill="#2B5621" stroke="#2B5621" stroke-width="4" stroke-miterlimit="10" stroke-linecap="round" stroke-linejoin="round"/>
</g>
<path d="M390.9 212.651C395.1 208.701 399.8 202.651 400.65 197.101H353.15C354 202.651 358.7 208.651 362.9 212.651C364.3 213.951 360.95 242.651 358.3 244.051C348.9 249.101 341.3 258.001 337.3 269.001H416.5C412.5 258.001 404.9 249.101 395.5 244.051C392.85 242.651 389.5 213.951 390.9 212.651Z" fill="#F42222"/>
<path d="M390.9 212.651C395.1 208.701 399.8 202.651 400.65 197.101H353.15C354 202.651 358.7 208.651 362.9 212.651C364.3 213.951 360.95 242.651 358.3 244.051C348.9 249.101 341.3 258.001 337.3 269.001H416.5C412.5 258.001 404.9 249.101 395.5 244.051C392.85 242.651 389.5 213.951 390.9 212.651Z" fill="#F42222"/>
<path d="M395.5 244.051C392.85 242.601 389.5 213.951 390.9 212.651C395.1 208.701 399.8 202.651 400.65 197.101H396.8C395.95 202.651 391.25 208.651 387.05 212.651C385.65 213.951 389 242.651 391.65 244.051C401.05 249.101 408.65 258.001 412.65 269.001H416.5C412.45 258.001 404.9 249.151 395.5 244.051Z" fill="#F42222"/>
<path d="M371.8 197.101C364.65 197.101 364.65 197.101 364.65 197.101C364.65 197.101 362.4 205.451 370.4 210.701L367.75 245.201C367.75 245.201 355.15 252.901 353.85 269.051H363.25C363.25 269.051 363.05 252.901 371.55 245.501L373.05 210.751C373 210.701 369.45 204.251 371.8 197.101Z" fill="#FF7676"/>
<path d="M383.4 269.05H370.4L376.9 316.6L383.4 269.05Z" fill="#E8E8E8"/>
<path d="M390.9 212.651C395.1 208.701 399.8 202.651 400.65 197.101H353.15C354 202.651 358.7 208.651 362.9 212.651C364.3 213.951 360.95 242.651 358.3 244.051C348.9 249.101 341.3 258.001 337.3 269.001H416.5C412.5 258.001 404.9 249.101 395.5 244.051C392.85 242.651 389.5 213.951 390.9 212.651Z" stroke="#102D3B" stroke-width="4" stroke-miterlimit="10" stroke-linecap="round" stroke-linejoin="round"/>
<path d="M383.4 269.051H370.4L376.9 316.601L383.4 269.051Z" stroke="#102D3B" stroke-width="4" stroke-miterlimit="10" stroke-linecap="round" stroke-linejoin="round"/>
</svg>
