<svg width="504" height="452" viewBox="0 0 504 452" fill="none" xmlns="http://www.w3.org/2000/svg">
<path d="M503 226C503 350.164 390.729 451 252 451C113.271 451 1 350.164 1 226C1 101.836 113.271 1 252 1C390.729 1 503 101.836 503 226Z" fill="#00AFB9" stroke="#2A2B2A" stroke-width="2"/>
<g filter="url(#filter0_i)">
<path d="M176.57 221.514L176.57 221.515C178.853 234.445 170.177 246.814 157.265 249.337C148.172 250.857 136.689 254.746 129.056 259.993C125.819 262.218 122.065 263.8 117.967 264.531C106.573 266.52 95.5001 261.208 89.6073 251.979C88.1974 249.771 85.8108 248.068 83.1765 247.031C80.5419 245.993 77.6055 245.599 75.0521 246.064C63.779 248.003 53.0774 240.471 51.1418 229.174C49.2055 217.873 56.7229 207.147 67.9932 205.207L67.9932 205.207L68.0021 205.205C75.0063 203.868 83.5131 200.21 87.6995 194.269C92.7515 187.1 100.544 181.852 109.861 180.195C126.233 177.347 141.819 186.558 147.717 201.366C147.818 201.618 147.991 201.817 148.225 201.939C148.451 202.056 148.698 202.084 148.929 202.06C148.943 202.059 149.043 202.051 149.11 202.039C161.988 199.792 174.288 208.481 176.57 221.514Z" fill="white" stroke="black"/>
<path d="M159.221 239.427C150.181 240.965 138.791 244.827 131.234 250.019C127.949 252.275 124.127 253.88 119.921 254.621C108.234 256.647 97.0108 251.24 91.0402 241.852C88.3715 237.655 81.898 235.263 77.0055 236.154C65.4604 238.141 54.4983 230.427 52.5158 218.857C52.4369 218.303 51.5876 218.171 51.4095 218.701C50.3236 221.931 49.9873 225.536 50.6499 229.142C52.6324 240.713 63.5945 248.427 75.1396 246.44C80.0321 245.548 86.5104 247.94 89.1868 252.131C95.1838 261.523 106.454 266.932 118.055 264.906C122.225 264.163 126.046 262.553 129.341 260.288C136.898 255.093 148.309 251.223 157.355 249.712C160.923 249.087 164.171 247.71 166.97 245.769C171.748 242.456 164.943 238.392 159.221 239.427Z" fill="#CCFFFF"/>
<path d="M177.062 221.428C174.734 208.126 162.178 199.251 149.024 201.547C148.98 201.555 148.923 201.558 148.878 201.563V201.563C148.561 201.595 148.3 201.477 148.182 201.181C142.198 186.159 126.386 176.812 109.774 179.703C100.323 181.383 92.4161 186.708 87.2908 193.981C83.2138 199.766 74.8603 203.387 67.9084 204.714V204.714C56.3633 206.701 48.6665 217.688 50.649 229.259C52.6315 240.829 63.5935 248.543 75.1387 246.556V246.556C80.0312 245.665 86.5095 248.057 89.1859 252.248C95.1829 261.64 106.453 267.049 118.054 265.023C122.224 264.28 126.045 262.67 129.34 260.405C136.897 255.21 148.308 251.34 157.354 249.829V249.829C170.532 247.258 179.395 234.635 177.062 221.428Z" stroke="#3D0938" stroke-width="2" stroke-miterlimit="10" stroke-linecap="round" stroke-linejoin="round"/>
</g>
<g filter="url(#filter1_d)">
<path d="M72.2675 383.57C61.1297 345.213 81.3275 242.948 113.07 205.78C127.329 189.085 143.071 159.401 214.717 153.968" stroke="#6A6A6A" stroke-width="2" stroke-dasharray="4 4"/>
</g>
<g filter="url(#filter2_d)">
<path d="M160.49 177.895C156.497 179.909 152.261 181.009 147.608 181.441C147.458 181.464 147.297 181.465 147.115 181.477C146.384 181.532 145.643 181.57 144.902 181.586C138.648 181.729 135.474 175.413 139.304 170.455C139.818 169.79 140.352 169.14 140.895 168.514C140.942 168.46 140.988 168.404 141.03 168.347C144.148 164.858 147.553 162.103 151.546 160.088C152.769 159.471 154.014 158.949 155.334 158.47C159.7 156.897 166.028 157.139 168.394 160.259C168.452 160.336 168.522 160.407 168.565 160.493C169.248 161.531 169.813 162.656 170.26 163.814C170.311 163.914 170.334 164.027 170.367 164.134C171.551 167.918 167.95 173.235 164.054 175.83C162.873 176.586 161.714 177.277 160.49 177.895Z" fill="#F4A045"/>
<path d="M160.49 177.895C156.497 179.909 152.261 181.009 147.608 181.441C147.458 181.464 147.297 181.465 147.115 181.477C146.384 181.532 145.643 181.57 144.902 181.586C138.648 181.729 135.474 175.413 139.304 170.455C139.818 169.79 140.352 169.14 140.895 168.514C140.942 168.46 140.988 168.404 141.03 168.347V168.347C144.148 164.858 147.553 162.103 151.546 160.088C152.769 159.471 154.014 158.949 155.334 158.47C159.7 156.897 166.028 157.139 168.394 160.259C168.452 160.336 168.522 160.407 168.565 160.493V160.493C169.248 161.531 169.813 162.656 170.26 163.814V163.814C170.311 163.914 170.334 164.027 170.367 164.134C171.551 167.918 167.95 173.235 164.054 175.83C162.873 176.586 161.714 177.277 160.49 177.895Z" stroke="#601B23" stroke-width="2.75643" stroke-miterlimit="10" stroke-linecap="round" stroke-linejoin="round"/>
<path d="M168.993 161.235C167.733 159.37 164.1 159.208 161.611 160.092C160.882 160.353 160.195 160.646 159.508 160.993C157.276 162.119 155.385 163.659 153.643 165.601C150.745 168.879 152.957 173.283 157.311 172.902C159.905 172.657 162.265 172.052 164.497 170.926C165.184 170.579 165.828 170.201 166.472 169.769C168.684 168.281 170.697 165.27 169.952 163.145C169.708 162.497 169.377 161.839 168.993 161.235Z" fill="#E36535"/>
<path d="M168.993 161.235C167.733 159.37 164.1 159.208 161.611 160.092C160.882 160.353 160.195 160.646 159.508 160.993C157.276 162.119 155.385 163.659 153.643 165.601V165.601C150.745 168.879 152.957 173.283 157.311 172.902V172.902C159.905 172.657 162.265 172.052 164.497 170.926C165.184 170.579 165.828 170.201 166.472 169.769C168.684 168.281 170.697 165.27 169.952 163.145C169.708 162.497 169.377 161.839 168.993 161.235Z" stroke="#601B23" stroke-width="2.75643" stroke-miterlimit="10" stroke-linecap="round" stroke-linejoin="round"/>
<path d="M189.394 120.057C186.416 117.396 187.055 112.564 190.623 110.765L193.185 109.472C195.265 108.422 197.711 108.383 199.821 109.367L204.168 111.393C212.162 115.118 212.329 126.442 204.448 130.418L201.86 131.723C199.964 132.68 197.697 132.511 195.965 131.284C194.407 130.18 193.593 128.346 193.172 126.481C192.629 124.083 191.365 121.825 189.394 120.057Z" fill="#C11A4D"/>
<path d="M179.526 115.892C178.937 114.72 178.946 113.318 179.685 112.233C181.714 109.258 184.454 106.774 187.816 105.078C195.703 101.099 200.995 111.636 193.125 115.647C189.751 117.35 186.147 118.071 182.57 117.946C181.254 117.899 180.117 117.069 179.526 115.892Z" fill="#CF264D"/>
<path opacity="0.23" d="M189.392 112.503C191.805 111.285 194.642 111.241 197.089 112.384L218.65 122.449C219.189 122.701 219.814 122.691 220.346 122.423C221.797 121.691 221.767 119.608 220.297 118.921L199.871 109.374C197.743 108.379 195.276 108.417 193.177 109.476L183.841 114.186C183.528 114.344 183.471 114.767 183.73 115.002C183.883 115.14 184.105 115.171 184.289 115.078L189.392 112.503Z" fill="#F4A15D"/>
<path opacity="0.72" d="M194.696 124.284C193.626 125.077 193.25 126.467 193.4 127.791C193.522 128.865 194.001 129.892 194.882 130.516L195.969 131.287C197.698 132.512 199.962 132.681 201.855 131.726L214.321 125.436C218.206 123.476 218.125 117.895 214.185 116.057C213.007 115.507 211.663 115.409 210.438 115.848C208.124 116.676 205.806 117.682 203.502 118.844C200.332 120.465 197.378 122.298 194.696 124.284Z" fill="#A5143A"/>
<path d="M189.394 120.057V120.057C186.416 117.396 187.055 112.564 190.623 110.765L193.185 109.472C195.265 108.422 197.711 108.383 199.821 109.367L204.168 111.393C212.162 115.118 212.329 126.442 204.448 130.418L201.86 131.723C199.964 132.68 197.697 132.511 195.965 131.284V131.284C194.407 130.18 193.593 128.346 193.172 126.481C192.629 124.083 191.365 121.825 189.394 120.057Z" stroke="#601B23" stroke-width="2.75643" stroke-miterlimit="10" stroke-linecap="round" stroke-linejoin="round"/>
<path d="M179.526 115.892C178.937 114.72 178.946 113.318 179.685 112.233C181.714 109.258 184.454 106.774 187.816 105.078C195.703 101.099 200.995 111.636 193.125 115.647C189.751 117.35 186.147 118.071 182.57 117.946C181.254 117.899 180.117 117.069 179.526 115.892Z" fill="#CF264D"/>
<path opacity="0.23" d="M202.873 103.097C203.282 103.198 203.502 103.637 203.333 104.023C203.212 104.301 202.921 104.462 202.619 104.437C198.235 104.068 193.746 104.852 189.601 106.918C185.882 108.794 182.621 111.05 180.292 114.196C179.855 114.786 178.923 114.746 178.594 114.091C178.455 113.814 178.461 113.485 178.619 113.217C180.714 109.66 183.754 106.675 187.613 104.728C192.487 102.294 197.851 101.856 202.873 103.097Z" fill="#F4A15D"/>
<path opacity="0.32" d="M203.379 103.228C203.516 103.265 203.593 103.404 203.535 103.534C203.491 103.632 203.385 103.695 203.278 103.682C198.375 103.113 193.368 103.899 188.735 106.211C185 108.095 181.926 110.795 179.573 114.012C179.3 114.385 178.723 114.348 178.516 113.935C178.425 113.755 178.43 113.542 178.531 113.368C180.628 109.744 183.699 106.703 187.613 104.728C192.651 102.213 198.212 101.829 203.379 103.228Z" fill="#F4A15D"/>
<path opacity="0.37" d="M193.125 115.647C197.97 113.203 201.497 109.156 203.501 104.345C203.662 103.956 203.442 103.517 203.032 103.423C202.736 103.355 202.435 103.493 202.275 103.751C199.959 107.5 196.657 110.647 192.533 112.754C188.969 114.552 185.167 115.386 181.367 115.354C180.411 115.345 179.73 116.352 180.159 117.206C180.341 117.569 180.691 117.818 181.095 117.857C185.165 118.248 189.312 117.571 193.125 115.647Z" fill="#A5143A"/>
<path opacity="0.72" d="M193.125 115.647C198.132 113.121 201.731 108.883 203.696 103.859C203.748 103.727 203.683 103.582 203.544 103.551C203.439 103.528 203.326 103.576 203.272 103.669C200.807 107.956 197.196 111.518 192.583 113.872C188.848 115.756 184.853 116.623 180.873 116.601C180.411 116.599 180.098 117.085 180.305 117.497C180.396 117.678 180.57 117.801 180.77 117.823C184.944 118.283 189.211 117.622 193.125 115.647Z" fill="#A5143A"/>
<path opacity="0.37" d="M203.5 104.344C203.662 103.956 203.442 103.517 203.032 103.423C202.736 103.355 202.435 103.493 202.275 103.751C199.959 107.5 196.657 110.647 192.533 112.754C188.97 114.552 185.169 115.385 181.369 115.354C180.412 115.346 179.73 116.353 180.16 117.208C180.341 117.569 180.69 117.819 181.093 117.859C185.144 118.259 189.291 117.582 193.104 115.658C197.957 113.184 201.504 109.127 203.5 104.344Z" fill="#A5143A"/>
<path opacity="0.72" d="M203.696 103.859C203.748 103.727 203.683 103.582 203.544 103.551C203.439 103.528 203.326 103.576 203.272 103.669C200.807 107.956 197.196 111.518 192.583 113.872C188.849 115.756 184.854 116.622 180.873 116.601C180.412 116.599 180.098 117.085 180.306 117.498C180.396 117.678 180.57 117.801 180.769 117.824C184.923 118.293 189.19 117.633 193.103 115.658C198.12 113.101 201.741 108.852 203.696 103.859Z" fill="#A5143A"/>
<path d="M199.735 105.183C200.364 106.436 202.092 106.53 202.716 105.273C202.735 105.233 202.755 105.193 202.774 105.153C203.271 104.138 202.68 102.951 201.571 102.748C201.527 102.74 201.483 102.732 201.439 102.724C200.059 102.479 199.105 103.93 199.735 105.183Z" fill="#601B23"/>
<path d="M179.526 115.892C178.937 114.72 178.946 113.318 179.685 112.233C181.714 109.258 184.454 106.774 187.816 105.078V105.078C195.703 101.099 200.995 111.636 193.125 115.647V115.647C189.751 117.35 186.147 118.071 182.57 117.946C181.254 117.899 180.117 117.069 179.526 115.892V115.892Z" stroke="#601B23" stroke-width="2.75643" stroke-miterlimit="10" stroke-linecap="round" stroke-linejoin="round"/>
<path d="M181.794 143.745C178.646 147.037 172.75 147.254 168.423 145.854C166.399 145.199 162.596 144.484 159.736 143.986C158.557 143.782 158.305 142.207 159.367 141.645L181.972 129.601C182.563 129.17 183.314 129.004 184.01 129.158C188.271 130.041 189.892 135.275 186.881 138.425L181.794 143.745Z" fill="#CF264D"/>
<path opacity="0.32" d="M162.413 139.965C160.543 140.956 160.535 143.649 162.44 142.728L181.88 133.186C183.163 132.556 184.451 131.487 185.846 131.796L191.394 132.933C191.768 133.01 192.155 132.888 192.418 132.611C193.016 131.981 192.691 130.939 191.842 130.763L184.031 129.147C183.837 129.108 183.642 129.091 183.449 129.096C182.411 129.12 181.533 129.834 180.614 130.321L162.413 139.965Z" fill="#F4A15D"/>
<path opacity="0.72" d="M175.154 149.276C175.939 149.93 176.485 149.296 177.193 148.556L190.789 134.337C192.098 132.968 191.392 130.692 189.538 130.311C188.802 130.16 188.036 130.36 187.476 130.864C182.634 135.221 178.079 140.338 173.879 146.143C173.282 146.969 174.371 148.624 175.154 149.276Z" fill="#A5143A"/>
<path d="M181.794 143.745C178.646 147.037 172.75 147.254 168.423 145.854V145.854C166.399 145.199 162.596 144.484 159.736 143.986C158.557 143.782 158.305 142.207 159.367 141.645L181.972 129.601C182.563 129.17 183.314 129.004 184.01 129.158V129.158C188.271 130.041 189.892 135.275 186.881 138.425L181.794 143.745Z" stroke="#601B23" stroke-width="2.75643" stroke-miterlimit="10" stroke-linecap="round" stroke-linejoin="round"/>
<path d="M180.405 110.573L183.913 117.555" stroke="#601B23" stroke-width="1.83762" stroke-miterlimit="10" stroke-linecap="round" stroke-linejoin="round"/>
<path d="M179.526 115.892C178.937 114.72 178.946 113.318 179.685 112.233C181.714 109.258 184.454 106.774 187.816 105.078C195.703 101.099 200.995 111.636 193.125 115.647C189.751 117.35 186.147 118.071 182.57 117.946C181.254 117.899 180.117 117.069 179.526 115.892Z" fill="#CF264D"/>
<path d="M179.526 115.892C178.937 114.72 178.946 113.318 179.685 112.233C181.714 109.258 184.454 106.774 187.816 105.078C195.703 101.099 200.995 111.636 193.125 115.647C189.751 117.35 186.147 118.071 182.57 117.946C181.254 117.899 180.117 117.069 179.526 115.892Z" fill="#CF264D"/>
<path opacity="0.23" d="M202.873 103.097C203.282 103.198 203.502 103.637 203.333 104.023C203.212 104.301 202.921 104.462 202.619 104.437C198.235 104.068 193.746 104.852 189.601 106.918C185.882 108.794 182.621 111.05 180.292 114.196C179.855 114.786 178.923 114.746 178.594 114.091C178.455 113.814 178.461 113.485 178.619 113.217C180.714 109.66 183.754 106.675 187.613 104.728C192.487 102.294 197.851 101.856 202.873 103.097Z" fill="#F4A15D"/>
<path opacity="0.32" d="M203.379 103.228C203.516 103.265 203.593 103.404 203.535 103.534C203.491 103.632 203.385 103.695 203.278 103.682C198.375 103.113 193.368 103.899 188.735 106.211C185 108.095 181.926 110.795 179.573 114.012C179.3 114.385 178.723 114.348 178.516 113.935C178.425 113.755 178.43 113.542 178.531 113.368C180.628 109.744 183.699 106.703 187.613 104.728C192.651 102.213 198.212 101.829 203.379 103.228Z" fill="#F4A15D"/>
<path opacity="0.37" d="M193.125 115.647C197.97 113.203 201.497 109.156 203.501 104.345C203.662 103.956 203.442 103.517 203.032 103.423C202.736 103.355 202.435 103.493 202.275 103.751C199.959 107.5 196.657 110.647 192.533 112.754C188.969 114.552 185.167 115.386 181.367 115.354C180.411 115.345 179.73 116.352 180.159 117.206C180.341 117.569 180.691 117.818 181.095 117.857C185.165 118.248 189.312 117.571 193.125 115.647Z" fill="#A5143A"/>
<path opacity="0.72" d="M193.125 115.647C198.132 113.121 201.731 108.883 203.696 103.859C203.748 103.727 203.683 103.582 203.544 103.551C203.439 103.528 203.326 103.576 203.272 103.669C200.807 107.956 197.196 111.518 192.583 113.872C188.848 115.756 184.853 116.623 180.873 116.601C180.411 116.599 180.098 117.085 180.305 117.497C180.396 117.678 180.57 117.801 180.77 117.823C184.944 118.283 189.211 117.622 193.125 115.647Z" fill="#A5143A"/>
<path opacity="0.37" d="M203.5 104.344C203.662 103.956 203.442 103.517 203.032 103.423C202.736 103.355 202.435 103.493 202.275 103.751C199.959 107.5 196.657 110.647 192.533 112.754C188.97 114.552 185.169 115.385 181.369 115.354C180.412 115.346 179.73 116.353 180.16 117.208C180.341 117.569 180.69 117.819 181.093 117.859C185.144 118.259 189.291 117.582 193.104 115.658C197.957 113.184 201.504 109.127 203.5 104.344Z" fill="#A5143A"/>
<path opacity="0.72" d="M203.696 103.859C203.748 103.727 203.683 103.582 203.544 103.551C203.439 103.528 203.326 103.576 203.272 103.669C200.807 107.956 197.196 111.518 192.583 113.872C188.849 115.756 184.854 116.622 180.873 116.601C180.412 116.599 180.098 117.085 180.306 117.498C180.396 117.678 180.57 117.801 180.769 117.824C184.923 118.293 189.19 117.633 193.103 115.658C198.12 113.101 201.741 108.852 203.696 103.859Z" fill="#A5143A"/>
<path d="M199.926 105.565C200.556 106.818 202.283 106.912 202.907 105.655C202.927 105.615 202.946 105.575 202.966 105.535C203.462 104.52 202.872 103.333 201.762 103.13C201.718 103.122 201.674 103.114 201.63 103.106C200.251 102.861 199.297 104.312 199.926 105.565Z" fill="#601B23"/>
<path d="M179.526 115.892C178.937 114.72 178.946 113.318 179.685 112.233C181.714 109.258 184.454 106.774 187.816 105.078V105.078C195.703 101.099 200.995 111.636 193.125 115.647V115.647C189.751 117.35 186.147 118.071 182.57 117.946C181.254 117.899 180.117 117.069 179.526 115.892V115.892Z" stroke="#601B23" stroke-width="2.75643" stroke-miterlimit="10" stroke-linecap="round" stroke-linejoin="round"/>
<path d="M180.405 110.573L183.913 117.555" stroke="#601B23" stroke-width="1.83762" stroke-miterlimit="10" stroke-linecap="round" stroke-linejoin="round"/>
<path d="M214.499 170.038C214.858 174.02 219.111 176.383 222.679 174.583L225.241 173.29C227.321 172.24 228.809 170.295 229.278 168.01L230.243 163.303C232.019 154.649 223.042 147.771 215.162 151.747L212.574 153.053C210.678 154.009 209.463 155.935 209.415 158.06C209.372 159.972 210.357 161.72 211.6 163.17C213.199 165.035 214.256 167.397 214.499 170.038Z" fill="#C11A4D"/>
<path opacity="0.72" d="M220.371 175.748C217.911 176.989 214.978 175.36 214.729 172.614C214.589 171.079 215.354 169.582 216.759 168.952C217.901 168.441 219.089 168.001 220.315 167.636C222.151 167.089 224.005 166.73 225.851 166.55C227.809 166.36 229.246 168.193 228.847 170.123C228.65 171.074 228.031 171.883 227.165 172.32L220.371 175.748Z" fill="#A5143A"/>
<path opacity="0.23" d="M220.543 174.57C222.969 173.346 224.703 171.077 225.247 168.412L230.018 145.08C230.137 144.497 230.517 143.999 231.049 143.731C232.499 143 234.15 144.264 233.825 145.857L229.298 167.992C228.83 170.281 227.341 172.231 225.256 173.282L215.887 178.01C215.58 178.164 215.215 177.961 215.184 177.619C215.166 177.419 215.272 177.229 215.45 177.139L220.543 174.57Z" fill="#F4A15D"/>
<path opacity="0.72" d="M214.266 163.262C212.994 163.646 211.661 163.118 210.691 162.21C209.901 161.469 209.361 160.468 209.385 159.384L209.415 158.055C209.463 155.933 210.676 154.01 212.569 153.055L225.035 146.765C228.92 144.805 233.345 148.195 232.471 152.461C232.21 153.737 231.488 154.878 230.407 155.603C228.365 156.973 226.179 158.239 223.874 159.402C220.693 161.007 217.463 162.298 214.266 163.262Z" fill="#A5143A"/>
<path d="M214.499 170.038V170.038C214.858 174.02 219.111 176.383 222.679 174.583L225.241 173.29C227.321 172.24 228.809 170.295 229.278 168.01L230.243 163.303C232.019 154.649 223.042 147.771 215.162 151.747L212.574 153.053C210.678 154.009 209.463 155.935 209.415 158.06V158.06C209.372 159.972 210.357 161.72 211.6 163.17C213.199 165.035 214.256 167.397 214.499 170.038Z" stroke="#601B23" stroke-width="2.75643" stroke-miterlimit="10" stroke-linecap="round" stroke-linejoin="round"/>
<path d="M190.997 162.069C186.484 162.643 182.799 167.259 181.343 171.577C180.663 173.596 178.97 177.084 177.666 179.683C177.128 180.753 178.239 181.895 179.323 181.375L202.44 170.35C203.137 170.131 203.717 169.625 204.009 168.973C205.838 165.017 202.609 160.594 198.291 161.142L190.997 162.069Z" fill="#CF264D"/>
<path opacity="0.72" d="M182.475 179.904C180.565 180.818 178.401 179.22 180.275 178.234L199.501 168.268C200.771 167.609 202.394 167.209 202.978 165.902L205.371 160.758C205.532 160.412 205.86 160.172 206.239 160.126C207.1 160.019 207.742 160.901 207.377 161.69L204.009 168.973C203.923 169.155 203.818 169.325 203.697 169.48C203.06 170.294 201.973 170.573 201.041 171.019L182.475 179.904Z" fill="#A5143A"/>
<path opacity="0.72" d="M182.61 164.12C182.553 163.098 183.387 163.036 184.401 162.907L203.895 160.43C205.773 160.192 207.176 162.116 206.377 163.835C206.06 164.518 205.443 165.016 204.706 165.167C198.33 166.469 191.515 167.089 184.362 167.012C183.344 167.001 182.666 165.138 182.61 164.12Z" fill="#A5143A"/>
<path d="M190.997 162.069C186.484 162.643 182.799 167.259 181.343 171.577V171.577C180.663 173.596 178.97 177.084 177.666 179.683C177.128 180.753 178.239 181.895 179.323 181.375L202.44 170.35C203.137 170.131 203.717 169.625 204.009 168.973V168.973C205.838 165.017 202.609 160.594 198.291 161.142L190.997 162.069Z" stroke="#601B23" stroke-width="2.75643" stroke-miterlimit="10" stroke-linecap="round" stroke-linejoin="round"/>
<path d="M170.16 169.238C172.832 168.183 175.066 166.631 179.266 159.191C179.923 157.981 179.081 156.305 177.72 156.113C169.234 155.075 166.659 155.948 164.244 157.46C163.943 157.664 163.866 158.422 164.176 158.717C166.668 160.519 169.152 165.464 169.112 168.544C169.164 168.97 169.796 169.369 170.16 169.238Z" fill="#4E8280"/>
<g opacity="0.32">
<g opacity="0.32">
<g opacity="0.32">
<path opacity="0.32" d="M165.321 159.603C167.758 158.081 170.333 157.208 178.797 158.257C179.139 158.297 179.519 158.105 179.44 157.769C179.25 156.95 178.592 156.231 177.72 156.114C169.234 155.075 166.66 155.948 164.244 157.46C163.943 157.665 163.866 158.422 164.176 158.718C164.506 158.974 164.853 159.266 165.176 159.596C165.218 159.639 165.268 159.63 165.321 159.603Z" fill="#F4A15D"/>
</g>
<g opacity="0.32">
<path opacity="0.32" d="M169.846 168.311C169.737 167.91 169.11 168.129 169.112 168.545C169.133 168.798 169.382 169.04 169.655 169.168C169.859 169.264 170.028 169.066 169.979 168.845C169.939 168.669 169.895 168.491 169.846 168.311Z" fill="#F4A15D"/>
</g>
</g>
</g>
<path d="M178.093 156.856C178.173 156.697 178.35 156.599 178.508 156.681C179.503 157.2 179.997 158.545 179.447 159.552C175.225 167.002 172.991 168.555 170.341 169.599C170.038 169.705 169.495 169.415 169.335 169.053C169.293 168.959 169.294 168.866 169.293 168.762C169.284 167.679 169.799 166.619 170.73 166.067C172.745 164.872 174.818 162.646 178.093 156.856Z" fill="#37605D"/>
<path d="M170.16 169.238C172.832 168.183 175.066 166.631 179.266 159.191C179.923 157.981 179.081 156.305 177.72 156.113C169.234 155.075 166.659 155.948 164.244 157.46C163.943 157.664 163.866 158.422 164.176 158.717C166.668 160.519 169.152 165.464 169.112 168.544C169.164 168.97 169.796 169.369 170.16 169.238Z" stroke="#601B23" stroke-width="2.75643" stroke-miterlimit="10" stroke-linecap="round" stroke-linejoin="round"/>
<path d="M174.904 159.453C176.399 162.428 179.341 164.434 182.667 164.531C201.876 165.094 217.998 160.561 229.371 152.24C234.688 148.35 238.678 143.81 241.515 138.934C246.605 130.182 241.068 119.158 231.022 118.044C225.424 117.423 219.409 117.931 213.124 119.895C199.682 124.094 186.458 134.388 175.462 150.171C173.556 152.908 173.408 156.475 174.904 159.453Z" fill="#CF264D"/>
<path opacity="0.23" d="M216.704 127.612C227.83 123.572 237.823 122.585 246.315 123.767C246.52 123.795 246.707 123.654 246.734 123.449C246.754 123.293 246.679 123.138 246.542 123.062C237.291 117.895 225.742 115.956 213.103 119.906C198.576 124.444 184.303 136.101 172.823 154.111C172.605 154.453 172.583 154.886 172.765 155.248C173.119 155.953 174.059 156.101 174.621 155.547C188.073 142.252 202.618 132.753 216.704 127.612Z" fill="#F4A15D"/>
<path opacity="0.37" d="M229.372 152.24C235.904 147.467 240.433 141.715 243.277 135.559C244.517 132.875 241.069 131.304 239.037 133.45C232.555 140.312 226.189 143.923 222.175 146.161C206.683 154.799 186.889 158.46 178.444 159.748C176.88 159.986 175.997 161.68 176.707 163.095C177.07 163.817 177.786 164.297 178.591 164.349C199.61 165.707 217.207 161.141 229.372 152.24Z" fill="#A5143A"/>
<path opacity="0.72" d="M229.372 152.239C240.069 144.414 245.393 133.959 246.761 123.431C246.781 123.277 246.708 123.126 246.573 123.05C246.331 122.916 246.016 123.059 245.956 123.33C245.081 127.304 243.733 130.699 242.231 133.541C232.209 152.478 208.969 158.804 194.37 160.931C191.34 161.373 189.932 157.079 192.225 155.047C193.715 153.718 192.274 151.715 190.455 152.535C185.889 154.594 181.322 156.653 176.756 158.712C176.115 159.001 175.843 159.767 176.159 160.395L176.744 161.56C176.822 161.717 176.731 161.905 176.557 161.93C176.374 161.957 176.262 162.155 176.345 162.32L176.982 163.587C177.174 163.97 177.555 164.225 177.982 164.256C199.27 165.794 217.089 161.226 229.372 152.239Z" fill="#A5143A"/>
<path opacity="0.32" d="M210.733 124.454C214.317 123.018 226.034 118.49 238.621 120.678C240.603 121.035 243.367 121.662 243.41 121.481C243.486 121.203 238.197 119.19 233.236 118.367C227.033 117.32 220.248 117.685 213.136 119.917C198.518 124.483 184.158 136.257 172.641 154.46C172.557 154.593 172.548 154.761 172.619 154.901C172.767 155.198 173.176 155.234 173.377 154.969C177.368 149.723 181.274 145.595 184.467 142.495C186.703 140.356 190.668 136.573 196.488 132.519C200.408 129.823 204.596 126.912 210.733 124.454Z" fill="#F4A15D"/>
<path opacity="0.72" d="M213.667 141.329C215.268 144.517 219.18 145.783 222.405 144.156C225.63 142.529 226.945 138.626 225.344 135.437C223.743 132.249 219.83 130.983 216.606 132.61C213.381 134.237 212.065 138.141 213.667 141.329Z" fill="#A5143A" stroke="#A5143A" stroke-width="2.75643" stroke-miterlimit="10" stroke-linecap="round" stroke-linejoin="round"/>
<path d="M174.904 159.453C176.399 162.428 179.341 164.434 182.667 164.531C201.876 165.094 217.998 160.561 229.371 152.24C234.688 148.35 238.678 143.81 241.515 138.934C246.605 130.182 241.068 119.158 231.022 118.044C225.424 117.423 219.409 117.931 213.124 119.895C199.682 124.094 186.458 134.388 175.462 150.171C173.556 152.908 173.408 156.475 174.904 159.453V159.453Z" stroke="#601B23" stroke-width="2.75643" stroke-miterlimit="10" stroke-linecap="round" stroke-linejoin="round"/>
<path d="M221.758 142.955C225.198 141.86 227.124 138.21 226.059 134.802C224.995 131.394 221.344 129.52 217.905 130.615C214.465 131.71 212.539 135.361 213.604 138.768C214.668 142.176 218.319 144.051 221.758 142.955Z" fill="#ABCFD8"/>
<path opacity="0.93" d="M216.238 137.611C217.203 139.533 219.562 140.296 221.507 139.315C223.451 138.334 224.244 135.981 223.279 134.058C222.313 132.136 219.954 131.373 218.01 132.354C216.066 133.335 215.272 135.688 216.238 137.611Z" fill="#E2F0F2"/>
<path d="M221.758 142.955C225.198 141.86 227.124 138.21 226.059 134.802C224.995 131.394 221.344 129.52 217.905 130.615C214.465 131.71 212.539 135.361 213.604 138.768C214.668 142.176 218.319 144.051 221.758 142.955Z" stroke="#601B23" stroke-width="2.75643" stroke-miterlimit="10" stroke-linecap="round" stroke-linejoin="round"/>
<path d="M164.857 164.519C164.975 164.752 165.328 164.814 165.682 164.661L192.756 152.997C195.546 151.802 197.631 149.686 197.603 148.13C197.604 147.948 197.417 147.834 197.259 147.744C195.938 146.989 193.186 147.445 190.699 148.901L165.224 163.749C164.902 163.965 164.751 164.307 164.857 164.519Z" fill="#BC1D4E"/>
<path opacity="0.74" d="M164.857 164.519C164.975 164.752 165.328 164.814 165.682 164.661L192.756 152.997C195.546 151.802 197.631 149.686 197.603 148.13C197.604 147.948 197.417 147.834 197.259 147.744C195.938 146.989 193.186 147.445 190.699 148.901L165.224 163.749C164.902 163.965 164.751 164.307 164.857 164.519Z" fill="#A5143A"/>
<g opacity="0.53">
<g opacity="0.53">
<g opacity="0.53">
<path opacity="0.53" d="M197.486 147.901C197.488 147.905 197.483 147.909 197.479 147.906C196.262 146.962 193.337 147.383 190.707 148.922L165.233 163.77C164.912 163.964 165.171 164.2 165.506 164.031L197.48 147.899C197.482 147.898 197.485 147.899 197.486 147.901Z" fill="#F4A15D"/>
</g>
<g opacity="0.53">
<path opacity="0.53" d="M197.576 147.998C197.559 147.968 197.532 147.99 197.548 148.02C197.564 148.053 197.599 148.042 197.582 148.009C197.58 148.006 197.578 148.002 197.576 147.998Z" fill="#F4A15D"/>
</g>
</g>
</g>
<path d="M164.857 164.519C164.975 164.752 165.328 164.814 165.682 164.661L192.756 152.997C195.546 151.802 197.631 149.686 197.603 148.13V148.13C197.604 147.948 197.417 147.834 197.259 147.744C195.938 146.989 193.186 147.445 190.699 148.901L165.224 163.749C164.902 163.965 164.751 164.307 164.857 164.519Z" stroke="#601B23" stroke-width="2.75643" stroke-miterlimit="10" stroke-linecap="round" stroke-linejoin="round"/>
<path d="M212.637 181.811C212.049 180.639 212.057 179.237 212.796 178.153C214.826 175.177 217.566 172.694 220.928 170.998C228.814 167.019 234.106 177.555 226.237 181.567C222.862 183.269 219.259 183.99 215.682 183.865C214.366 183.819 213.229 182.989 212.637 181.811Z" fill="#CF264D"/>
<path d="M212.637 181.811C212.049 180.639 212.057 179.237 212.796 178.153C214.826 175.177 217.566 172.694 220.928 170.998C228.814 167.019 234.106 177.555 226.237 181.567C222.862 183.269 219.259 183.99 215.682 183.865C214.366 183.819 213.229 182.989 212.637 181.811Z" fill="#CF264D"/>
<path opacity="0.23" d="M235.997 169.036C236.405 169.138 236.624 169.577 236.456 169.963C236.334 170.242 236.043 170.403 235.74 170.378C231.356 170.009 226.867 170.793 222.723 172.859C219.004 174.735 215.743 176.991 213.414 180.137C212.977 180.727 212.045 180.687 211.716 180.032C211.577 179.755 211.583 179.425 211.741 179.158C213.836 175.601 216.876 172.616 220.735 170.669C225.6 168.215 230.965 167.775 235.997 169.036Z" fill="#F4A15D"/>
<path opacity="0.32" d="M236.501 169.168C236.638 169.206 236.715 169.345 236.658 169.475C236.614 169.573 236.507 169.636 236.4 169.623C231.496 169.054 226.49 169.84 221.857 172.152C218.122 174.036 215.048 176.736 212.695 179.953C212.422 180.326 211.845 180.289 211.638 179.876C211.547 179.696 211.552 179.483 211.653 179.309C213.75 175.685 216.821 172.644 220.735 170.669C225.763 168.132 231.324 167.748 236.501 169.168Z" fill="#F4A15D"/>
<path opacity="0.37" d="M226.236 181.567C231.081 179.122 234.608 175.075 236.612 170.264C236.774 169.875 236.553 169.436 236.143 169.342C235.848 169.274 235.546 169.412 235.386 169.67C233.07 173.42 229.768 176.567 225.644 178.673C222.081 180.471 218.279 181.305 214.478 181.273C213.523 181.265 212.841 182.271 213.27 183.126C213.452 183.488 213.803 183.738 214.206 183.776C218.276 184.167 222.424 183.491 226.236 181.567Z" fill="#A5143A"/>
<path opacity="0.72" d="M226.237 181.567C231.244 179.041 234.843 174.803 236.809 169.779C236.86 169.647 236.795 169.502 236.656 169.471C236.552 169.448 236.438 169.496 236.384 169.589C233.92 173.876 230.308 177.438 225.695 179.792C221.961 181.676 217.965 182.542 213.985 182.521C213.523 182.519 213.21 183.005 213.418 183.417C213.508 183.597 213.682 183.721 213.883 183.743C218.056 184.202 222.323 183.542 226.237 181.567Z" fill="#A5143A"/>
<path opacity="0.37" d="M236.614 170.264C236.775 169.875 236.554 169.437 236.144 169.342C235.848 169.274 235.546 169.412 235.386 169.671C233.07 173.42 229.768 176.567 225.644 178.673C222.081 180.471 218.28 181.305 214.48 181.273C213.524 181.265 212.842 182.272 213.271 183.127C213.453 183.489 213.802 183.738 214.204 183.778C218.255 184.178 222.402 183.501 226.215 181.578C231.08 179.123 234.627 175.066 236.614 170.264Z" fill="#A5143A"/>
<path opacity="0.72" d="M236.809 169.779C236.861 169.647 236.795 169.502 236.657 169.471C236.552 169.448 236.438 169.496 236.384 169.59C233.92 173.876 230.308 177.438 225.695 179.792C221.961 181.676 217.966 182.542 213.986 182.521C213.524 182.519 213.211 183.005 213.418 183.418C213.508 183.598 213.682 183.721 213.882 183.744C218.035 184.213 222.302 183.552 226.216 181.578C231.243 179.041 234.864 174.793 236.809 169.779Z" fill="#A5143A"/>
<path d="M233.048 171.506C233.678 172.76 235.405 172.853 236.029 171.596C236.049 171.556 236.068 171.516 236.088 171.476C236.584 170.462 235.994 169.274 234.884 169.071C234.841 169.063 234.797 169.055 234.753 169.047C233.373 168.803 232.419 170.253 233.048 171.506Z" fill="#601B23"/>
<path d="M212.637 181.811C212.049 180.639 212.057 179.237 212.796 178.153C214.826 175.177 217.566 172.694 220.928 170.998V170.998C228.814 167.019 234.106 177.555 226.237 181.567V181.567C222.862 183.269 219.259 183.99 215.682 183.865C214.366 183.819 213.229 182.989 212.637 181.811V181.811Z" stroke="#601B23" stroke-width="2.75643" stroke-miterlimit="10" stroke-linecap="round" stroke-linejoin="round"/>
<path d="M213.72 176.896L217.227 183.878" stroke="#601B23" stroke-width="1.83762" stroke-miterlimit="10" stroke-linecap="round" stroke-linejoin="round"/>
<path d="M243.388 122.59C240.994 121.456 238.908 124.662 240.1 127.031C241.294 129.405 245.135 129.643 245.65 127.033C245.721 126.676 245.786 126.32 245.847 125.963C246.048 124.789 245.464 123.625 244.404 123.088C244.068 122.918 243.729 122.752 243.388 122.59Z" fill="#601B23"/>
<path d="M243.388 122.59C240.994 121.456 238.908 124.662 240.1 127.031V127.031C241.294 129.405 245.135 129.643 245.65 127.033C245.721 126.676 245.786 126.32 245.847 125.963C246.048 124.789 245.464 123.625 244.404 123.088C244.068 122.918 243.729 122.752 243.388 122.59Z" stroke="#601B23" stroke-width="2.75643" stroke-miterlimit="10" stroke-linecap="round" stroke-linejoin="round"/>
</g>
<path d="M455.477 168.002C455.09 156.825 445.761 148.084 434.61 148.471C432.769 148.568 431.021 147.55 430.2 145.901C424.987 135.425 414.059 128.423 401.597 128.83C397.057 129.001 392.508 126.365 390.739 122.18C383.882 105.967 367.565 94.8465 348.987 95.4671C338.267 95.82 328.573 100.008 321.182 106.692C315.799 111.56 308.432 114.268 301.18 114.555C280.037 115.274 263.476 133.034 264.193 154.225C264.911 175.415 282.632 192.014 303.775 191.294C306.058 191.195 308.232 192.364 309.41 194.322C317.334 207.488 331.963 216.035 348.38 215.473C360.886 215.057 372.003 209.413 379.699 200.684C385.39 194.229 395.15 190.744 403.75 190.409C405.181 190.363 406.588 190.218 407.963 189.98C416.735 188.466 427.092 189.133 435.99 188.86C447.086 188.528 455.808 179.178 455.477 168.002Z" fill="white"/>
<path d="M455.422 168.057C455.422 166.297 453.019 166.119 452.042 167.583C448.555 172.807 442.704 176.321 435.935 176.577C427.049 176.85 416.659 176.19 407.899 177.699C406.526 177.935 405.123 178.08 403.695 178.126C395.093 178.378 385.33 181.937 379.635 188.388C371.953 197.09 360.857 202.737 348.325 203.19C331.909 203.752 317.329 195.16 309.368 182.032C308.182 180.077 306.005 178.912 303.72 179.012C286.847 179.586 272.168 169.128 266.562 154.101C266.082 152.814 264.109 152.962 264.138 154.336C264.856 175.526 282.577 192.124 303.72 191.405C306.003 191.306 308.177 192.475 309.355 194.433C317.279 207.599 331.907 216.145 348.325 215.583C360.83 215.168 371.948 209.524 379.644 200.795C385.335 194.339 395.095 190.855 403.695 190.52C405.126 190.474 406.533 190.328 407.908 190.091C416.68 188.577 427.037 189.244 435.935 188.971C447.086 188.583 455.808 179.233 455.422 168.057Z" fill="#CCFFFF"/>
<path d="M455.477 168.002C455.09 156.825 445.761 148.084 434.61 148.471V148.471C432.769 148.568 431.021 147.55 430.2 145.901C424.987 135.425 414.059 128.423 401.597 128.83V128.83C397.057 129.001 392.508 126.365 390.739 122.18C383.882 105.967 367.565 94.8465 348.987 95.4671C338.267 95.82 328.573 100.008 321.182 106.692C315.799 111.56 308.432 114.268 301.18 114.555V114.555C280.037 115.274 263.476 133.034 264.193 154.225C264.911 175.415 282.632 192.014 303.775 191.294V191.294C306.058 191.195 308.232 192.364 309.41 194.322C317.334 207.488 331.963 216.035 348.38 215.473C360.886 215.057 372.003 209.413 379.699 200.684C385.39 194.229 395.15 190.744 403.75 190.409V190.409C405.181 190.363 406.588 190.218 407.963 189.98C416.735 188.466 427.092 189.133 435.99 188.86V188.86C447.086 188.528 455.808 179.178 455.477 168.002Z" stroke="#3D0938" stroke-width="2.45791" stroke-miterlimit="10" stroke-linecap="round" stroke-linejoin="round"/>
<path d="M221.747 255.455C219.057 254.543 216.803 257.652 218.505 259.926C219.725 261.556 222.203 261.448 223.276 259.717C224.257 258.136 223.51 256.053 221.747 255.455Z" fill="#F0406F"/>
<path d="M221.747 255.455C219.057 254.543 216.803 257.652 218.505 259.926V259.926C219.725 261.556 222.203 261.448 223.276 259.717V259.717C224.257 258.136 223.51 256.053 221.747 255.455V255.455Z" stroke="#3D0938" stroke-width="2.67904" stroke-miterlimit="10" stroke-linecap="round" stroke-linejoin="round"/>
<path d="M228.745 249.674C226.165 247.551 222.474 250.328 223.8 253.395C224.547 255.124 226.623 255.83 228.269 254.915C230.231 253.824 230.479 251.1 228.745 249.674Z" fill="#F0406F"/>
<path d="M228.745 249.674C226.165 247.551 222.474 250.328 223.8 253.395V253.395C224.547 255.124 226.623 255.83 228.269 254.915V254.915C230.231 253.824 230.479 251.1 228.745 249.674V249.674Z" stroke="#3D0938" stroke-width="2.67904" stroke-miterlimit="10" stroke-linecap="round" stroke-linejoin="round"/>
<path d="M332.96 264.826C327.244 265.549 314.428 266.152 299.746 260.846C279.83 253.669 269.661 254.875 265.268 256.202C263.764 256.624 262.26 257.167 260.755 257.83C247.759 263.921 242.163 279.48 248.3 292.445C252.041 300.471 259.358 305.651 267.44 307.046C267.916 307.129 268.395 307.22 268.879 307.22C269.123 307.22 269.362 307.295 269.605 307.321C273.046 307.696 281.987 308.354 288.133 306.436C288.491 306.267 295.141 300.319 295.526 300.223C296.473 299.988 297.411 299.656 298.302 299.2C298.442 299.127 308.216 291.07 308.358 291.001C309.447 290.471 310.524 289.763 311.54 288.827C315.33 285.329 312.021 284.123 309.012 283.701C313.224 283.761 320.204 283.158 322.551 278.756C324.236 275.62 320.445 274.897 317.617 274.776C321.167 274.655 327.485 273.932 331.095 271.158C332.78 269.831 333.923 268.685 334.705 267.72C335.668 266.514 334.585 264.645 332.96 264.826Z" fill="#D4907F"/>
<path d="M332.96 264.826C327.244 265.549 314.428 266.152 299.746 260.846C279.83 253.669 269.661 254.875 265.268 256.202C263.764 256.624 262.26 257.167 260.755 257.83C247.759 263.921 242.163 279.48 248.3 292.445C252.041 300.471 259.358 305.651 267.44 307.046C267.916 307.129 268.395 307.22 268.879 307.22V307.22V307.22C269.123 307.22 269.362 307.295 269.605 307.321C273.046 307.696 281.987 308.354 288.133 306.436V306.436C288.491 306.267 295.141 300.319 295.526 300.223C296.473 299.988 297.411 299.656 298.302 299.2V299.2C298.442 299.127 308.216 291.07 308.358 291.001C309.447 290.471 310.524 289.763 311.54 288.827C315.33 285.329 312.021 284.123 309.012 283.701C313.224 283.761 320.204 283.158 322.551 278.756C324.236 275.62 318.881 274.836 316.113 274.716C319.663 274.595 327.485 273.932 331.095 271.158C332.78 269.831 333.923 268.685 334.705 267.72C335.668 266.514 334.585 264.645 332.96 264.826Z" stroke="#3D0938" stroke-width="2.67904" stroke-miterlimit="10" stroke-linecap="round" stroke-linejoin="round"/>
<path d="M294.091 311.683C294.091 311.683 306.606 314.577 324.537 325.613C342.528 336.589 349.99 333.995 349.99 333.995" stroke="#3D0938" stroke-width="3.3488" stroke-miterlimit="10" stroke-linecap="round" stroke-linejoin="round"/>
<path d="M328.808 339.001C328.808 339.001 320.565 338.699 312.382 328.025C304.199 317.351 300.949 312.225 297.52 311.984" stroke="#3D0938" stroke-width="3.3488" stroke-miterlimit="10" stroke-linecap="round" stroke-linejoin="round"/>
<path d="M359.376 290.636C359.917 290.033 360.399 289.008 360.218 287.983C360.158 287.742 359.978 287.078 359.376 286.656C358.774 286.174 357.932 285.993 357.029 286.174C358.834 285.752 359.978 284.123 359.737 282.555C359.436 280.988 357.751 279.842 355.946 280.083C356.849 279.962 357.571 279.48 357.992 278.817C358.353 278.214 358.353 277.55 358.293 277.249C358.172 276.223 357.33 275.44 356.608 275.078C355.044 274.294 353.058 275.138 351.373 275.862C348.064 277.249 346.018 279.359 344.574 280.867C344.559 280.883 344.543 280.899 344.528 280.916C341.976 283.622 342.724 287.883 346.078 289.491C347.943 290.395 350.591 291.601 354.201 291.782C356.006 291.842 358.172 291.903 359.376 290.636Z" fill="#F0406F"/>
<path d="M359.075 287.983C359.016 287.744 358.838 287.091 358.25 286.668C358.239 286.66 358.228 286.654 358.216 286.648C358.038 286.558 357.785 286.614 357.683 286.785C357.538 287.029 357.374 287.235 357.21 287.44C356.007 288.707 353.84 288.646 352.035 288.586C348.425 288.405 345.778 287.199 343.912 286.295C343.175 285.971 342.332 285.507 341.383 284.928C340.88 284.62 340.229 284.74 339.909 285.236C339.616 285.69 339.713 286.308 340.146 286.631C341.97 287.994 343.656 288.906 344.875 289.491C346.74 290.395 349.388 291.601 352.998 291.782C354.803 291.843 356.969 291.903 358.173 290.636C358.835 290.033 359.316 289.008 359.075 287.983Z" fill="#DB2C62"/>
<path d="M355.887 275.681C355.465 276.344 354.743 276.826 353.841 276.947C354.806 276.815 355.738 277.1 356.43 277.614C356.735 277.842 357.158 277.71 357.15 277.329C357.15 277.306 357.149 277.297 357.145 277.274C357.033 276.606 356.659 276.028 356.214 275.615C356.1 275.51 355.956 275.542 355.887 275.681Z" fill="#DB2C62"/>
<path d="M339.62 285.73C339.529 285.876 339.563 286.058 339.702 286.16C339.862 286.278 340.106 286.268 340.226 286.109C340.932 285.169 341.628 284.422 342.227 283.822C343.671 282.314 345.717 280.264 349.026 278.817C350.711 278.093 352.697 277.309 354.261 278.033C354.525 278.165 354.801 278.356 355.053 278.594C355.579 279.092 356.447 279.419 356.848 278.817C357.209 278.214 357.209 277.55 357.149 277.249C357.029 276.223 356.187 275.44 355.464 275.078C353.9 274.294 351.914 275.138 350.23 275.862C346.92 277.249 344.874 279.359 343.43 280.867C342.389 281.968 340.959 283.572 339.62 285.73Z" fill="#F96291"/>
<path d="M359.376 290.636C359.917 290.033 360.399 289.008 360.218 287.983C360.158 287.742 359.978 287.078 359.376 286.656C358.774 286.174 357.932 285.993 357.029 286.174C358.834 285.752 359.978 284.123 359.737 282.555C359.436 280.988 357.751 279.842 355.946 280.083C356.849 279.962 357.571 279.48 357.992 278.817C358.353 278.214 358.353 277.55 358.293 277.249C358.172 276.223 357.33 275.44 356.608 275.078C355.044 274.294 353.058 275.138 351.373 275.862C348.064 277.249 346.018 279.359 344.574 280.867C344.559 280.883 344.543 280.899 344.528 280.916C341.976 283.622 342.724 287.883 346.078 289.491V289.491C347.943 290.395 350.591 291.601 354.201 291.782C356.006 291.842 358.172 291.903 359.376 290.636Z" stroke="#3D0938" stroke-width="2.67904" stroke-miterlimit="10" stroke-linecap="round" stroke-linejoin="round"/>
<path d="M286.232 307.958C303.02 306.221 298.791 278.107 285.125 268.203C276.643 262.054 270.763 257.849 266.686 255.041C265.704 254.365 264.778 253.613 263.846 252.867C262.199 251.548 260.377 250.4 258.409 249.508C258.128 249.339 256.984 248.841 256.678 248.722C253.537 247.498 250.066 246.794 246.495 246.794C231.092 246.794 218.576 259.338 218.576 274.776C218.576 285.245 224.326 294.393 232.837 299.166C232.877 299.188 232.881 299.192 232.919 299.216C232.988 299.262 233.115 299.281 233.188 299.321C234.238 299.896 235.342 300.362 236.447 300.828C243.915 303.964 262.563 310.407 286.232 307.958Z" fill="#F1CB9C"/>
<path d="M246.495 250.051C250.066 250.051 253.537 250.755 256.678 251.979C256.984 252.098 258.128 252.596 258.409 252.765C260.876 253.971 263.163 255.478 265.209 257.287C269.3 260.122 275.498 264.524 285.125 271.459C306.712 287.058 329.245 287.849 337.905 287.979C338.06 287.982 338.304 287.863 338.435 287.778C339.048 287.381 338.764 286.743 338.034 286.749C330.659 286.807 308.114 285.468 285.125 268.806C276.643 262.657 270.763 258.452 266.686 255.644C265.704 254.968 264.778 254.216 263.846 253.47C262.199 252.151 260.377 251.003 258.409 250.111C258.128 249.942 256.984 249.444 256.678 249.325C253.537 248.101 250.066 247.397 246.495 247.397C231.092 247.397 218.576 259.941 218.576 275.379C218.576 275.529 218.706 275.528 218.72 275.378C220.053 261.149 231.961 250.051 246.495 250.051Z" fill="#F8E4C1"/>
<path d="M336.793 286.106C335.613 286.087 333.193 286.342 332.183 286.953C289.166 312.996 249.844 299.983 238.131 294.978C236.988 294.556 235.845 294.013 234.762 293.41C234.65 293.354 234.523 293.318 234.414 293.256C225.962 288.466 220.261 279.351 220.261 268.926C220.261 268.196 219.337 267.996 219.178 268.709C218.746 270.645 218.516 272.654 218.516 274.716C218.516 285.184 224.265 294.333 232.777 299.106C232.816 299.128 232.821 299.132 232.858 299.156C232.928 299.201 233.055 299.221 233.127 299.261C234.178 299.835 235.282 300.301 236.386 300.767C248.66 305.981 291.135 320.013 336.462 288.87C338.798 287.265 339.627 286.153 336.793 286.106Z" fill="#D4907F"/>
<path d="M286.232 307.958C303.02 306.221 298.791 278.107 285.125 268.203V268.203C276.643 262.054 270.763 257.849 266.686 255.041C265.704 254.365 264.778 253.613 263.846 252.867C262.199 251.548 260.377 250.4 258.409 249.508V249.508C258.128 249.339 256.984 248.841 256.678 248.722C253.537 247.498 250.066 246.794 246.495 246.794C231.092 246.794 218.576 259.338 218.576 274.776C218.576 285.245 224.326 294.393 232.837 299.166C232.877 299.188 232.881 299.192 232.919 299.216V299.216C232.988 299.262 233.115 299.281 233.188 299.321C234.238 299.896 235.342 300.362 236.447 300.828C243.915 303.964 262.563 310.407 286.232 307.958Z" stroke="#3D0938" stroke-width="2.67904" stroke-miterlimit="10" stroke-linecap="round" stroke-linejoin="round"/>
<path d="M320.746 311.864C315.27 310.055 303.417 305.17 292.405 294.134C277.423 279.118 267.675 275.862 263.162 275.259C261.598 274.957 260.033 274.836 258.409 274.836C244.088 274.836 232.415 286.475 232.415 300.888C232.415 309.741 236.851 317.568 243.567 322.264C243.951 322.532 244.361 322.76 244.75 323.02C244.87 323.08 244.931 323.141 245.051 323.201C247.698 324.829 255.882 329.593 262.5 330.498C262.871 330.498 271.461 327.96 271.825 328.03C272.764 328.212 273.735 328.304 274.715 328.267C274.893 328.261 287.153 325.088 287.331 325.084C288.525 325.062 289.783 324.878 291.082 324.467C296.016 322.9 293.488 320.427 290.961 318.738C294.752 320.608 301.311 323.08 305.342 320.065C308.17 317.955 305.041 315.663 302.574 314.336C305.884 315.723 311.841 317.774 316.293 316.809C318.399 316.326 319.903 315.784 321.047 315.241C322.491 314.577 322.31 312.406 320.746 311.864Z" fill="#EFAB89"/>
<path d="M263.042 325.01C256.423 324.105 248.24 319.341 245.592 317.713C245.472 317.653 245.412 317.592 245.291 317.532C244.902 317.272 244.492 317.044 244.108 316.776C237.392 312.08 232.956 304.253 232.956 295.4C232.956 295.375 232.921 295.371 232.916 295.396C232.523 297.15 232.354 298.96 232.354 300.828C232.354 309.681 236.791 317.508 243.507 322.203C243.89 322.471 244.3 322.7 244.69 322.96C244.81 323.02 244.87 323.08 244.99 323.14C247.638 324.769 255.821 329.533 262.44 330.437C266.942 330.437 265.906 327.758 264.478 325.681C264.164 325.224 263.596 325.01 263.042 325.01Z" fill="#D4907F"/>
<path d="M320.746 311.863C320.496 311.772 320.23 311.681 319.946 311.584C318.933 311.236 317.53 310.567 316.835 311.381C314.608 314.517 302.213 313.009 298.964 311.622C301.431 312.949 300.949 313.612 305.944 314.577C306.456 314.65 305.73 315.464 306.223 315.623C309.383 316.641 313.184 317.435 316.293 316.748C318.399 316.266 319.903 315.723 321.047 315.18C322.491 314.577 322.31 312.406 320.746 311.863Z" fill="#D4907F"/>
<path d="M275.257 322.779C272.733 322.874 269.803 322.195 267.184 321.339C262.603 319.842 258.615 318.934 262.023 322.342C262.653 322.972 264.855 325.086 265.623 325.537C267.925 326.89 271.174 328.308 274.595 328.206C279.126 328.045 279.783 326.385 279.253 324.724C278.769 323.202 276.854 322.779 275.257 322.779Z" fill="#D4907F"/>
<path d="M293.705 321.403C292.855 319.524 290.295 319.512 288.24 319.696C285.503 319.941 282.765 319.582 280.46 319.06C277.979 318.499 276.134 320.265 277.998 321.997C278.106 322.098 278.386 322.337 278.511 322.417C280.865 323.927 285.573 326.17 291.022 324.467C293.699 323.631 294.206 322.513 293.705 321.403Z" fill="#D4907F"/>
<path d="M305.282 320.065C308.036 318.071 302.254 316.862 298.854 316.873C294.551 316.888 289.292 315.631 287.11 314.577C289.629 316.2 289.638 317.523 291.604 319.025C291.61 319.03 291.607 319.04 291.599 319.04C291.591 319.04 291.588 319.051 291.595 319.055C295.448 320.86 301.502 322.891 305.282 320.065Z" fill="#D4907F"/>
<path d="M320.746 311.864C315.27 310.055 303.417 305.17 292.405 294.134C277.423 279.118 267.675 275.862 263.162 275.259C261.598 274.957 260.033 274.836 258.409 274.836C244.088 274.836 232.415 286.475 232.415 300.888C232.415 309.741 236.851 317.568 243.567 322.264C243.951 322.532 244.361 322.76 244.75 323.02V323.02C244.87 323.08 244.931 323.141 245.051 323.201C247.698 324.829 255.882 329.593 262.5 330.498V330.498C262.871 330.498 271.461 327.96 271.825 328.03C272.764 328.212 273.735 328.304 274.715 328.267V328.267C274.893 328.261 287.153 325.088 287.331 325.085C288.525 325.062 289.783 324.878 291.082 324.467C296.016 322.9 293.488 320.427 290.961 318.738C294.752 320.608 301.311 323.08 305.342 320.065C308.17 317.955 305.041 315.663 302.574 314.336C305.884 315.723 311.841 317.774 316.293 316.809C318.399 316.326 319.903 315.784 321.047 315.241C322.491 314.577 322.31 312.406 320.746 311.864Z" stroke="#3D0938" stroke-width="2.67904" stroke-miterlimit="10" stroke-linecap="round" stroke-linejoin="round"/>
<path d="M235.243 262.715C235.243 262.715 235.604 269.348 241.742 269.348C247.097 269.348 248.601 266.816 248.601 266.816" stroke="#3D0938" stroke-width="2.67904" stroke-miterlimit="10" stroke-linecap="round" stroke-linejoin="round"/>
<path d="M233.197 266.755L236.206 266.032" stroke="#3D0938" stroke-width="2.67904" stroke-miterlimit="10" stroke-linecap="round" stroke-linejoin="round"/>
<path d="M236.206 270.132L237.65 267.961" stroke="#3D0938" stroke-width="2.67904" stroke-miterlimit="10" stroke-linecap="round" stroke-linejoin="round"/>
<path d="M240.779 269.349V271.821" stroke="#3D0938" stroke-width="2.67904" stroke-miterlimit="10" stroke-linecap="round" stroke-linejoin="round"/>
<path d="M245.772 268.746L246.916 271.821" stroke="#3D0938" stroke-width="2.67904" stroke-miterlimit="10" stroke-linecap="round" stroke-linejoin="round"/>
<path d="M250.104 287.078C250.104 287.078 252.15 289.43 254.437 287.078" stroke="#3D0938" stroke-width="2.00928" stroke-miterlimit="10" stroke-linecap="round" stroke-linejoin="round"/>
<path d="M243.246 297.812C243.246 297.812 247.398 299.501 249.083 295.581" stroke="#3D0938" stroke-width="2.00928" stroke-miterlimit="10" stroke-linecap="round" stroke-linejoin="round"/>
<path d="M243.667 308.004C243.667 308.004 246.615 309.15 247.759 306.436" stroke="#3D0938" stroke-width="2.00928" stroke-miterlimit="10" stroke-linecap="round" stroke-linejoin="round"/>
<path d="M268.277 295.039C268.277 295.039 270.805 296.968 272.67 294.677" stroke="#3D0938" stroke-width="2.00928" stroke-miterlimit="10" stroke-linecap="round" stroke-linejoin="round"/>
<path d="M275.799 309.813C275.799 309.813 278.326 311.743 280.191 309.451" stroke="#3D0938" stroke-width="2.00928" stroke-miterlimit="10" stroke-linecap="round" stroke-linejoin="round"/>
<path d="M281.273 301.672C281.273 301.672 283.801 303.602 285.666 301.31" stroke="#3D0938" stroke-width="2.00928" stroke-miterlimit="10" stroke-linecap="round" stroke-linejoin="round"/>
<path d="M265.449 302.999C265.449 302.999 267.976 304.928 269.842 302.637" stroke="#3D0938" stroke-width="2.00928" stroke-miterlimit="10" stroke-linecap="round" stroke-linejoin="round"/>
<path d="M287.23 263.68C287.23 263.68 289.758 265.609 291.623 263.318" stroke="#3D0938" stroke-width="2.00928" stroke-miterlimit="10" stroke-linecap="round" stroke-linejoin="round"/>
<path d="M304.38 277.309C304.38 277.309 306.907 279.238 308.772 276.947" stroke="#3D0938" stroke-width="2.00928" stroke-miterlimit="10" stroke-linecap="round" stroke-linejoin="round"/>
<path d="M304.439 271.037C304.439 271.037 307.388 272.183 308.531 269.409" stroke="#3D0938" stroke-width="2.00928" stroke-miterlimit="10" stroke-linecap="round" stroke-linejoin="round"/>
<path d="M295.534 269.71C295.534 269.71 298.663 270.072 299.084 267.117" stroke="#3D0938" stroke-width="2.00928" stroke-miterlimit="10" stroke-linecap="round" stroke-linejoin="round"/>
<path d="M257.205 310.778C257.205 310.778 260.214 311.803 261.237 309.089" stroke="#3D0938" stroke-width="2.00928" stroke-miterlimit="10" stroke-linecap="round" stroke-linejoin="round"/>
<path d="M256.184 294.134C256.184 294.134 259.433 296.486 261.719 293.471" stroke="#3D0938" stroke-width="2.00928" stroke-miterlimit="10" stroke-linecap="round" stroke-linejoin="round"/>
<path d="M254.438 301.732C254.438 301.732 257.687 304.084 259.973 301.069" stroke="#3D0938" stroke-width="2.00928" stroke-miterlimit="10" stroke-linecap="round" stroke-linejoin="round"/>
<path d="M259.011 318.738C259.011 318.738 259.492 320.367 262.44 323.321" stroke="#3D0938" stroke-width="2.67904" stroke-miterlimit="10" stroke-linecap="round" stroke-linejoin="round"/>
<path d="M276.881 321.211C276.881 321.211 275.618 320.427 273.692 317.592" stroke="#3D0938" stroke-width="2.67904" stroke-miterlimit="10" stroke-linecap="round" stroke-linejoin="round"/>
<path d="M290.961 318.738C290.961 318.738 288.374 316.929 286.268 314.577" stroke="#3D0938" stroke-width="2.67904" stroke-miterlimit="10" stroke-linecap="round" stroke-linejoin="round"/>
<path d="M302.574 314.396C302.574 314.396 298.543 312.708 297.46 311.622" stroke="#3D0938" stroke-width="2.67904" stroke-miterlimit="10" stroke-linecap="round" stroke-linejoin="round"/>
<defs>
<filter id="filter0_i" x="49.3379" y="178.179" width="129.097" height="92.2675" filterUnits="userSpaceOnUse" color-interpolation-filters="sRGB">
<feFlood flood-opacity="0" result="BackgroundImageFix"/>
<feBlend mode="normal" in="SourceGraphic" in2="BackgroundImageFix" result="shape"/>
<feColorMatrix in="SourceAlpha" type="matrix" values="0 0 0 0 0 0 0 0 0 0 0 0 0 0 0 0 0 0 127 0" result="hardAlpha"/>
<feOffset dy="4"/>
<feGaussianBlur stdDeviation="2"/>
<feComposite in2="hardAlpha" operator="arithmetic" k2="-1" k3="1"/>
<feColorMatrix type="matrix" values="0 0 0 0 0 0 0 0 0 0 0 0 0 0 0 0 0 0 0.25 0"/>
<feBlend mode="normal" in2="shape" result="effect1_innerShadow"/>
</filter>
<filter id="filter1_d" x="64.1846" y="152.971" width="154.608" height="238.878" filterUnits="userSpaceOnUse" color-interpolation-filters="sRGB">
<feFlood flood-opacity="0" result="BackgroundImageFix"/>
<feColorMatrix in="SourceAlpha" type="matrix" values="0 0 0 0 0 0 0 0 0 0 0 0 0 0 0 0 0 0 127 0" result="hardAlpha"/>
<feOffset dy="4"/>
<feGaussianBlur stdDeviation="2"/>
<feComposite in2="hardAlpha" operator="out"/>
<feColorMatrix type="matrix" values="0 0 0 0 0 0 0 0 0 0 0 0 0 0 0 0 0 0 0.25 0"/>
<feBlend mode="normal" in2="BackgroundImageFix" result="effect1_dropShadow"/>
<feBlend mode="normal" in="SourceGraphic" in2="effect1_dropShadow" result="shape"/>
</filter>
<filter id="filter2_d" x="132.265" y="102.424" width="119" height="90.8337" filterUnits="userSpaceOnUse" color-interpolation-filters="sRGB">
<feFlood flood-opacity="0" result="BackgroundImageFix"/>
<feColorMatrix in="SourceAlpha" type="matrix" values="0 0 0 0 0 0 0 0 0 0 0 0 0 0 0 0 0 0 127 0" result="hardAlpha"/>
<feOffset dy="4"/>
<feGaussianBlur stdDeviation="2"/>
<feComposite in2="hardAlpha" operator="out"/>
<feColorMatrix type="matrix" values="0 0 0 0 0 0 0 0 0 0 0 0 0 0 0 0 0 0 0.25 0"/>
<feBlend mode="normal" in2="BackgroundImageFix" result="effect1_dropShadow"/>
<feBlend mode="normal" in="SourceGraphic" in2="effect1_dropShadow" result="shape"/>
</filter>
</defs>
</svg>
