<svg width="219" height="219" viewBox="0 0 219 219" fill="none" xmlns="http://www.w3.org/2000/svg">
<path d="M219 0H0V219H219V0Z" fill="#31836A"/>
<g opacity="0.4">
<g opacity="0.4">
<path opacity="0.4" d="M171.587 104.66L164.25 91.9581L171.587 79.2561H186.238L193.575 91.9581L186.238 104.66H171.587Z" stroke="white" stroke-width="1.314" stroke-miterlimit="10"/>
</g>
</g>
<g opacity="0.4">
<g opacity="0.4">
<path opacity="0.4" d="M146.182 90.009L138.868 77.307L146.182 64.605H160.833L168.17 77.307L160.833 90.009H146.182Z" fill="white" stroke="white" stroke-width="1.314" stroke-miterlimit="10"/>
</g>
<g opacity="0.4">
<path opacity="0.4" d="M146.183 60.7069L138.868 48.0049L146.183 35.3029H160.834L168.17 48.0049L160.834 60.7069H146.183Z" stroke="white" stroke-width="1.314" stroke-miterlimit="10"/>
</g>
</g>
<g opacity="0.4">
<g opacity="0.4">
<path opacity="0.4" d="M120.779 104.66L113.464 91.958L120.779 79.256H135.43L142.767 91.958L135.43 104.66H120.779Z" stroke="white" stroke-width="1.314" stroke-miterlimit="10"/>
</g>
<g opacity="0.4">
<path opacity="0.4" d="M120.78 75.3579L113.465 62.6559L120.78 49.9539H135.431L142.768 62.6559L135.431 75.3579H120.78Z" fill="white" stroke="white" stroke-width="1.314" stroke-miterlimit="10"/>
</g>
</g>
<g opacity="0.4">
<g opacity="0.4">
<path opacity="0.4" d="M95.398 119.311L88.0615 106.609L95.398 93.9072H110.049L117.364 106.609L110.049 119.311H95.398Z" fill="white" stroke="white" stroke-width="1.314" stroke-miterlimit="10"/>
</g>
<g opacity="0.4">
<path opacity="0.4" d="M95.398 90.0089L88.0615 77.3069L95.398 64.6049H110.049L117.364 77.3069L110.049 90.0089H95.398Z" stroke="white" stroke-width="1.314" stroke-miterlimit="10"/>
</g>
<g opacity="0.4">
<path opacity="0.4" d="M95.398 60.7068L88.0615 48.0048L95.398 35.3028H110.049L117.364 48.0048L110.049 60.7068H95.398Z" stroke="white" stroke-width="1.314" stroke-miterlimit="10"/>
</g>
</g>
<g opacity="0.4">
<g opacity="0.4">
<path opacity="0.4" d="M69.9937 75.3579L62.6572 62.6559L69.9937 49.9539H84.6448L91.9594 62.6559L84.6448 75.3579H69.9937Z" fill="white" stroke="white" stroke-width="1.314" stroke-miterlimit="10"/>
</g>
</g>
<g opacity="0.4">
<g opacity="0.4">
<path opacity="0.4" d="M44.5889 119.311L37.2524 106.609L44.5889 93.9075H59.24L66.5765 106.609L59.24 119.311H44.5889Z" fill="white" stroke="white" stroke-width="1.314" stroke-miterlimit="10"/>
</g>
<g opacity="0.4">
<path opacity="0.4" d="M44.5894 90.0091L37.2529 77.3071L44.5894 64.6051H59.2405L66.577 77.3071L59.2405 90.0091H44.5894Z" stroke="white" stroke-width="1.314" stroke-miterlimit="10"/>
</g>
</g>
<path d="M27.375 158.556H191.625" stroke="#302F34" stroke-width="1.752" stroke-miterlimit="10" stroke-linecap="round" stroke-linejoin="round"/>
<path d="M125.137 154.833C123.735 153.322 121.983 152.008 119.793 151.022V72.029L122.312 67.6709C123.429 65.7218 122.027 63.3128 119.793 63.3128H118.26H102.558C100.959 63.3128 99.6453 64.6049 99.6453 66.2255V151.044C97.4553 152.03 95.5719 153.344 94.1703 154.855H94.1046C93.0534 154.855 92.2212 155.709 92.2212 156.738V158.359H127.042V156.738C127.02 155.687 126.166 154.833 125.137 154.833Z" fill="white"/>
<path d="M124.918 154.833C123.516 153.322 121.764 152.008 119.574 151.022V72.6205C119.574 72.2263 119.684 71.854 119.881 71.5255L122.18 67.8025C123.341 65.9191 121.983 63.5101 119.793 63.5101H118.26H102.229C100.674 63.5101 99.4261 64.7584 99.4261 66.3133V151.022C97.2361 152.008 95.5717 153.519 94.1701 155.052H94.1044C92.9437 155.052 92.002 155.994 92.002 157.154V158.556H126.823V156.716C126.801 155.687 125.947 154.833 124.918 154.833Z" stroke="#302F34" stroke-width="1.314" stroke-miterlimit="10" stroke-linecap="round" stroke-linejoin="round"/>
<path d="M118.523 153.826L116.728 153.015V90.8851H116.684C116.684 88.5637 114.8 86.6803 112.479 86.6803C110.574 86.6803 108.975 87.9505 108.449 89.6806C108.121 89.4616 107.727 89.3521 107.311 89.3521C106.347 89.3521 105.537 90.0091 105.296 90.8851H102.712V152.993L100.916 153.804C99.974 154.22 99.1199 154.724 98.3315 155.249H121.042C120.275 154.724 119.443 154.242 118.523 153.826Z" fill="#EC1CE4"/>
<path d="M118.523 153.826L116.728 153.015V90.8851H116.684C116.684 88.5637 114.8 86.6803 112.479 86.6803C110.574 86.6803 108.975 87.9505 108.449 89.6806C108.121 89.4616 107.727 89.3521 107.311 89.3521C106.347 89.3521 105.537 90.0091 105.296 90.8851H102.712V152.993L100.916 153.804C99.974 154.22 99.1199 154.724 98.3315 155.249H121.042C120.275 154.724 119.443 154.242 118.523 153.826Z" stroke="#302F34" stroke-width="1.314" stroke-miterlimit="10" stroke-linecap="round" stroke-linejoin="round"/>
<path d="M106.762 79.935C107.911 79.935 108.843 79.0036 108.843 77.8545C108.843 76.7055 107.911 75.774 106.762 75.774C105.613 75.774 104.682 76.7055 104.682 77.8545C104.682 79.0036 105.613 79.935 106.762 79.935Z" fill="#EC1CE4"/>
<path d="M106.762 79.935C107.911 79.935 108.843 79.0036 108.843 77.8545C108.843 76.7055 107.911 75.774 106.762 75.774C105.613 75.774 104.682 76.7055 104.682 77.8545C104.682 79.0036 105.613 79.935 106.762 79.935Z" stroke="#302F34" stroke-width="1.314" stroke-miterlimit="10" stroke-linecap="round" stroke-linejoin="round"/>
<path d="M108.953 59.3489C110.949 59.3489 112.566 57.7311 112.566 55.7354C112.566 53.7397 110.949 52.1219 108.953 52.1219C106.957 52.1219 105.339 53.7397 105.339 55.7354C105.339 57.7311 106.957 59.3489 108.953 59.3489Z" fill="#EC1CE4"/>
<path d="M108.953 59.3489C110.949 59.3489 112.566 57.7311 112.566 55.7354C112.566 53.7397 110.949 52.1219 108.953 52.1219C106.957 52.1219 105.339 53.7397 105.339 55.7354C105.339 57.7311 106.957 59.3489 108.953 59.3489Z" stroke="#302F34" stroke-width="1.314" stroke-miterlimit="10" stroke-linecap="round" stroke-linejoin="round"/>
<path d="M113.551 49.4721C114.325 49.4721 114.953 48.8446 114.953 48.0705C114.953 47.2965 114.325 46.6689 113.551 46.6689C112.777 46.6689 112.149 47.2965 112.149 48.0705C112.149 48.8446 112.777 49.4721 113.551 49.4721Z" fill="#EC1CE4"/>
<path d="M113.551 49.4721C114.325 49.4721 114.953 48.8446 114.953 48.0705C114.953 47.2965 114.325 46.6689 113.551 46.6689C112.777 46.6689 112.149 47.2965 112.149 48.0705C112.149 48.8446 112.777 49.4721 113.551 49.4721Z" stroke="#302F34" stroke-width="1.314" stroke-miterlimit="10" stroke-linecap="round" stroke-linejoin="round"/>
<path d="M112.895 73.4745C113.379 73.4745 113.771 73.0823 113.771 72.5985C113.771 72.1147 113.379 71.7225 112.895 71.7225C112.411 71.7225 112.019 72.1147 112.019 72.5985C112.019 73.0823 112.411 73.4745 112.895 73.4745Z" fill="#EC1CE4"/>
<path d="M112.895 73.4745C113.379 73.4745 113.771 73.0823 113.771 72.5985C113.771 72.1147 113.379 71.7225 112.895 71.7225C112.411 71.7225 112.019 72.1147 112.019 72.5985C112.019 73.0823 112.411 73.4745 112.895 73.4745Z" stroke="#302F34" stroke-width="1.314" stroke-miterlimit="10" stroke-linecap="round" stroke-linejoin="round"/>
<path d="M110.114 112.347C110.501 112.347 110.815 112.033 110.815 111.646C110.815 111.259 110.501 110.946 110.114 110.946C109.727 110.946 109.413 111.259 109.413 111.646C109.413 112.033 109.727 112.347 110.114 112.347Z" fill="#302F34"/>
<path d="M108.975 123.866C110.184 123.866 111.165 122.886 111.165 121.676C111.165 120.467 110.184 119.486 108.975 119.486C107.765 119.486 106.785 120.467 106.785 121.676C106.785 122.886 107.765 123.866 108.975 123.866Z" fill="#302F34"/>
<path d="M111.821 133.809C112.353 133.809 112.784 133.378 112.784 132.845C112.784 132.313 112.353 131.882 111.821 131.882C111.288 131.882 110.857 132.313 110.857 132.845C110.857 133.378 111.288 133.809 111.821 133.809Z" fill="#302F34"/>
<path d="M89.352 115.698V82.7821H77.526V115.698C67.233 118.326 59.4585 127.896 59.4585 139.175C59.4585 147.059 63.3567 153.957 69.204 158.556H98.112C103.959 153.957 107.638 147.059 107.638 139.175C107.638 127.918 99.864 118.348 89.352 115.698Z" fill="white"/>
<path d="M89.352 115.698V82.7821H77.526V115.698C67.233 118.326 59.4585 127.896 59.4585 139.175C59.4585 147.059 63.3567 153.957 69.204 158.556H98.112C103.959 153.957 107.638 147.059 107.638 139.175C107.638 127.918 99.864 118.348 89.352 115.698Z" stroke="#302F34" stroke-width="1.314" stroke-miterlimit="10" stroke-linecap="round" stroke-linejoin="round"/>
<path d="M102.777 130.305H96.9297C96.8421 129.079 95.8128 128.115 94.5645 128.115C93.3162 128.115 92.2869 129.079 92.1993 130.305H91.9584C91.8489 128.115 90.0312 126.363 87.8193 126.363C87.1185 126.363 86.4615 126.538 85.8921 126.845C85.1037 124.567 82.9356 122.925 80.3733 122.925C77.5701 122.925 75.2049 124.918 74.6574 127.567C74.1318 127.217 73.4967 127.02 72.8178 127.02C70.9782 127.02 69.489 128.487 69.4233 130.305H64.5396C63.2913 133.042 62.6343 136.065 62.6343 139.065C62.6343 145.372 65.4156 151.263 70.2555 155.271H97.0392C101.901 151.263 104.66 145.372 104.66 139.065C104.682 136.065 104.025 133.042 102.777 130.305Z" fill="#FF5959"/>
<path d="M102.777 130.305H96.9297C96.8421 129.079 95.8128 128.115 94.5645 128.115C93.3162 128.115 92.2869 129.079 92.1993 130.305H91.9584C91.8489 128.115 90.0312 126.363 87.8193 126.363C87.1185 126.363 86.4615 126.538 85.8921 126.845C85.1037 124.567 82.9356 122.925 80.3733 122.925C77.5701 122.925 75.2049 124.918 74.6574 127.567C74.1318 127.217 73.4967 127.02 72.8178 127.02C70.9782 127.02 69.489 128.487 69.4233 130.305H64.5396C63.2913 133.042 62.6343 136.065 62.6343 139.065C62.6343 145.372 65.4156 151.263 70.2555 155.271H97.0392C101.901 151.263 104.66 145.372 104.66 139.065C104.682 136.065 104.025 133.042 102.777 130.305Z" stroke="#302F34" stroke-width="1.314" stroke-miterlimit="10" stroke-linecap="round" stroke-linejoin="round"/>
<path d="M74.941 130.918C74.6782 130.261 74.5249 129.517 74.5249 128.772C74.5249 125.553 77.131 122.925 80.3722 122.925C82.9126 122.925 85.0807 124.567 85.891 126.845" stroke="#302F34" stroke-width="1.314" stroke-miterlimit="10" stroke-linecap="round" stroke-linejoin="round"/>
<path d="M83.9868 128.903C84.6219 127.414 86.0892 126.363 87.8193 126.363C90.1188 126.363 91.9803 128.225 91.9803 130.524" stroke="#302F34" stroke-width="1.314" stroke-miterlimit="10" stroke-linecap="round" stroke-linejoin="round"/>
<path d="M92.1987 130.48C92.1987 129.166 93.2718 128.115 94.5639 128.115C95.8779 128.115 96.9291 129.188 96.9291 130.48" stroke="#302F34" stroke-width="1.314" stroke-miterlimit="10" stroke-linecap="round" stroke-linejoin="round"/>
<path d="M87.4907 74.241H79.3877V87.819H87.4907V74.241Z" fill="#D29C5E"/>
<path d="M87.4907 74.241H79.3877V87.819H87.4907V74.241Z" stroke="#302F34" stroke-width="1.314" stroke-miterlimit="10" stroke-linecap="round" stroke-linejoin="round"/>
<path d="M90.1176 82.563H76.9776C75.5322 82.563 74.3496 81.3804 74.3496 79.935C74.3496 78.4896 75.5322 77.307 76.9776 77.307H90.1176C91.563 77.307 92.7456 78.4896 92.7456 79.935C92.7456 81.3804 91.563 82.563 90.1176 82.563Z" fill="#D9D6E5"/>
<path d="M90.1176 82.563H76.9776C75.5322 82.563 74.3496 81.3804 74.3496 79.935C74.3496 78.4896 75.5322 77.307 76.9776 77.307H90.1176C91.563 77.307 92.7456 78.4896 92.7456 79.935C92.7456 81.3804 91.563 82.563 90.1176 82.563Z" stroke="#302F34" stroke-width="1.314" stroke-miterlimit="10" stroke-linecap="round" stroke-linejoin="round"/>
<path d="M86.8993 122.443C88.3749 122.443 89.5711 121.247 89.5711 119.771C89.5711 118.295 88.3749 117.099 86.8993 117.099C85.4237 117.099 84.2275 118.295 84.2275 119.771C84.2275 121.247 85.4237 122.443 86.8993 122.443Z" fill="#FF5959"/>
<path d="M84.0966 98.2652C84.7618 98.2652 85.3011 97.7259 85.3011 97.0607C85.3011 96.3955 84.7618 95.8562 84.0966 95.8562C83.4314 95.8562 82.8921 96.3955 82.8921 97.0607C82.8921 97.7259 83.4314 98.2652 84.0966 98.2652Z" fill="#FF5959"/>
<path d="M81.7962 107.222C82.6428 107.222 83.3292 106.536 83.3292 105.689C83.3292 104.843 82.6428 104.156 81.7962 104.156C80.9495 104.156 80.2632 104.843 80.2632 105.689C80.2632 106.536 80.9495 107.222 81.7962 107.222Z" fill="#FF5959"/>
<path d="M86.8993 122.443C88.3749 122.443 89.5711 121.247 89.5711 119.771C89.5711 118.295 88.3749 117.099 86.8993 117.099C85.4237 117.099 84.2275 118.295 84.2275 119.771C84.2275 121.247 85.4237 122.443 86.8993 122.443Z" stroke="#302F34" stroke-width="1.314" stroke-miterlimit="10" stroke-linecap="round" stroke-linejoin="round"/>
<path d="M84.0962 97.9367C84.58 97.9367 84.9722 97.5445 84.9722 97.0607C84.9722 96.5769 84.58 96.1847 84.0962 96.1847C83.6124 96.1847 83.2202 96.5769 83.2202 97.0607C83.2202 97.5445 83.6124 97.9367 84.0962 97.9367Z" stroke="#302F34" stroke-width="1.314" stroke-miterlimit="10" stroke-linecap="round" stroke-linejoin="round"/>
<path d="M81.7962 107.222C82.6428 107.222 83.3292 106.536 83.3292 105.689C83.3292 104.843 82.6428 104.156 81.7962 104.156C80.9495 104.156 80.2632 104.843 80.2632 105.689C80.2632 106.536 80.9495 107.222 81.7962 107.222Z" stroke="#302F34" stroke-width="1.314" stroke-miterlimit="10" stroke-linecap="round" stroke-linejoin="round"/>
<path d="M95.1116 123.647C95.4744 123.647 95.7686 123.353 95.7686 122.99C95.7686 122.628 95.4744 122.333 95.1116 122.333C94.7487 122.333 94.4546 122.628 94.4546 122.99C94.4546 123.353 94.7487 123.647 95.1116 123.647Z" fill="#FF5959"/>
<path d="M95.1116 123.647C95.4744 123.647 95.7686 123.353 95.7686 122.99C95.7686 122.628 95.4744 122.333 95.1116 122.333C94.7487 122.333 94.4546 122.628 94.4546 122.99C94.4546 123.353 94.7487 123.647 95.1116 123.647Z" stroke="#302F34" stroke-width="1.095" stroke-miterlimit="10" stroke-linecap="round" stroke-linejoin="round"/>
<path d="M91.1698 125.137C91.2666 125.137 91.345 125.058 91.345 124.961C91.345 124.865 91.2666 124.786 91.1698 124.786C91.0731 124.786 90.9946 124.865 90.9946 124.961C90.9946 125.058 91.0731 125.137 91.1698 125.137Z" stroke="#302F34" stroke-width="1.095" stroke-miterlimit="10" stroke-linecap="round" stroke-linejoin="round"/>
<path d="M79.0593 145.197C79.4222 145.197 79.7163 144.903 79.7163 144.54C79.7163 144.177 79.4222 143.883 79.0593 143.883C78.6965 143.883 78.4023 144.177 78.4023 144.54C78.4023 144.903 78.6965 145.197 79.0593 145.197Z" fill="#302F34"/>
<path d="M83.8767 151.198C84.6508 151.198 85.2783 150.57 85.2783 149.796C85.2783 149.022 84.6508 148.394 83.8767 148.394C83.1026 148.394 82.4751 149.022 82.4751 149.796C82.4751 150.57 83.1026 151.198 83.8767 151.198Z" fill="#302F34"/>
<path d="M85.8479 142.788C86.2108 142.788 86.5049 142.494 86.5049 142.131C86.5049 141.768 86.2108 141.474 85.8479 141.474C85.4851 141.474 85.1909 141.768 85.1909 142.131C85.1909 142.494 85.4851 142.788 85.8479 142.788Z" fill="#302F34"/>
<path d="M90.4467 149.884C90.858 149.884 91.1913 149.55 91.1913 149.139C91.1913 148.728 90.858 148.394 90.4467 148.394C90.0355 148.394 89.7021 148.728 89.7021 149.139C89.7021 149.55 90.0355 149.884 90.4467 149.884Z" fill="#302F34"/>
<path d="M140.532 93.5128H126.669C125.224 93.5128 124.041 92.3302 124.041 90.8848C124.041 89.4394 125.224 88.2568 126.669 88.2568H140.532C141.977 88.2568 143.16 89.4394 143.16 90.8848C143.16 92.3302 141.977 93.5128 140.532 93.5128Z" fill="#D9D6E5"/>
<path d="M140.532 93.5128H126.669C125.224 93.5128 124.041 92.3302 124.041 90.8848C124.041 89.4394 125.224 88.2568 126.669 88.2568H140.532C141.977 88.2568 143.16 89.4394 143.16 90.8848C143.16 92.3302 141.977 93.5128 140.532 93.5128Z" stroke="#302F34" stroke-width="1.314" stroke-miterlimit="10" stroke-linecap="round" stroke-linejoin="round"/>
<path d="M139.503 121.545V93.5128H127.677V121.545L108.492 151.614C106.631 154.526 108.689 158.337 112.15 158.337H154.876C158.337 158.337 160.483 154.526 158.621 151.614L139.503 121.545Z" fill="white"/>
<path d="M139.503 121.545V93.5128H127.677V121.545L108.492 151.614C106.631 154.526 108.689 158.337 112.15 158.337H154.876C158.337 158.337 160.483 154.526 158.621 151.614L139.503 121.545Z" stroke="#302F34" stroke-width="1.314" stroke-miterlimit="10" stroke-linecap="round" stroke-linejoin="round"/>
<path d="M156.015 153.234L148.306 141.102C147.496 139.174 145.744 137.86 143.707 137.86C142.678 137.86 141.692 138.211 140.904 138.802C139.984 137.817 138.736 137.203 137.356 137.203C135.429 137.203 133.743 138.408 132.888 140.16H131.969C131.049 139.152 129.779 138.517 128.377 138.517C126.975 138.517 125.705 139.152 124.785 140.16H124.391C123.69 140.576 122.88 140.817 122.004 140.817C121.128 140.817 120.34 140.576 119.617 140.16H119.398L111.054 153.234C110.638 153.891 110.879 154.417 110.967 154.57C111.098 154.833 111.448 155.249 112.127 155.249H154.854C155.577 155.249 155.927 154.767 156.037 154.57C156.212 154.263 156.343 153.782 156.015 153.234Z" fill="#0CF9C3"/>
<path d="M156.015 153.234L148.306 141.102C147.496 139.174 145.744 137.86 143.707 137.86C142.678 137.86 141.692 138.211 140.904 138.802C139.984 137.817 138.736 137.203 137.356 137.203C135.429 137.203 133.743 138.408 132.888 140.16H131.969C131.049 139.152 129.779 138.517 128.377 138.517C126.975 138.517 125.705 139.152 124.785 140.16H124.391C123.69 140.576 122.88 140.817 122.004 140.817C121.128 140.817 120.34 140.576 119.617 140.16H119.398L111.054 153.234C110.638 153.891 110.879 154.417 110.967 154.57C111.098 154.833 111.448 155.249 112.127 155.249H154.854C155.577 155.249 155.927 154.767 156.037 154.57C156.212 154.263 156.343 153.782 156.015 153.234Z" stroke="#302F34" stroke-width="1.314" stroke-miterlimit="10" stroke-linecap="round" stroke-linejoin="round"/>
<path d="M131.334 133.699C132.543 133.699 133.524 132.719 133.524 131.509C133.524 130.3 132.543 129.319 131.334 129.319C130.124 129.319 129.144 130.3 129.144 131.509C129.144 132.719 130.124 133.699 131.334 133.699Z" fill="#0CF9C3"/>
<path d="M131.334 133.699C132.543 133.699 133.524 132.719 133.524 131.509C133.524 130.3 132.543 129.319 131.334 129.319C130.124 129.319 129.144 130.3 129.144 131.509C129.144 132.719 130.124 133.699 131.334 133.699Z" stroke="#302F34" stroke-width="1.314" stroke-miterlimit="10" stroke-linecap="round" stroke-linejoin="round"/>
<path d="M138.911 134.4C139.709 134.4 140.357 133.753 140.357 132.955C140.357 132.157 139.709 131.509 138.911 131.509C138.113 131.509 137.466 132.157 137.466 132.955C137.466 133.753 138.113 134.4 138.911 134.4Z" fill="#0CF9C3"/>
<path d="M138.911 134.4C139.709 134.4 140.357 133.753 140.357 132.955C140.357 132.157 139.709 131.509 138.911 131.509C138.113 131.509 137.466 132.157 137.466 132.955C137.466 133.753 138.113 134.4 138.911 134.4Z" stroke="#302F34" stroke-width="1.314" stroke-miterlimit="10" stroke-linecap="round" stroke-linejoin="round"/>
<path d="M134.29 120.669C134.919 120.669 135.429 120.159 135.429 119.53C135.429 118.901 134.919 118.391 134.29 118.391C133.661 118.391 133.151 118.901 133.151 119.53C133.151 120.159 133.661 120.669 134.29 120.669Z" fill="#0CF9C3"/>
<path d="M134.29 120.669C134.919 120.669 135.429 120.159 135.429 119.53C135.429 118.901 134.919 118.391 134.29 118.391C133.661 118.391 133.151 118.901 133.151 119.53C133.151 120.159 133.661 120.669 134.29 120.669Z" stroke="#302F34" stroke-width="1.314" stroke-miterlimit="10" stroke-linecap="round" stroke-linejoin="round"/>
<path d="M130.524 146.598C131.298 146.598 131.925 145.971 131.925 145.197C131.925 144.423 131.298 143.795 130.524 143.795C129.75 143.795 129.122 144.423 129.122 145.197C129.122 145.971 129.75 146.598 130.524 146.598Z" fill="#302F34"/>
<path d="M139.678 149.139C140.065 149.139 140.379 148.825 140.379 148.438C140.379 148.051 140.065 147.737 139.678 147.737C139.291 147.737 138.977 148.051 138.977 148.438C138.977 148.825 139.291 149.139 139.678 149.139Z" fill="#302F34"/>
<path d="M135.363 107.025C135.617 107.025 135.823 106.819 135.823 106.565C135.823 106.311 135.617 106.105 135.363 106.105C135.109 106.105 134.903 106.311 134.903 106.565C134.903 106.819 135.109 107.025 135.363 107.025Z" stroke="#302F34" stroke-width="1.314" stroke-miterlimit="10" stroke-linecap="round" stroke-linejoin="round"/>
<path d="M131.859 96.7322C132.113 96.7322 132.319 96.5263 132.319 96.2723C132.319 96.0183 132.113 95.8124 131.859 95.8124C131.605 95.8124 131.399 96.0183 131.399 96.2723C131.399 96.5263 131.605 96.7322 131.859 96.7322Z" stroke="#302F34" stroke-width="1.314" stroke-miterlimit="10" stroke-linecap="round" stroke-linejoin="round"/>
</svg>
