<svg width="400" height="400" viewBox="0 0 400 400" fill="none" xmlns="http://www.w3.org/2000/svg">
<circle cx="200" cy="200" r="199" fill="#6BBFFF" stroke="#2A2B2A" stroke-width="2"/>
<path d="M255.68 165.32H230.36C227.72 165.32 225.56 163.16 225.56 160.52C225.56 157.88 227.72 155.72 230.36 155.72H255.68C258.32 155.72 260.48 157.88 260.48 160.52C260.48 163.16 258.32 165.32 255.68 165.32Z" fill="#D9D6E5"/>
<path d="M255.68 165.32H230.36C227.72 165.32 225.56 163.16 225.56 160.52C225.56 157.88 227.72 155.72 230.36 155.72H255.68C258.32 155.72 260.48 157.88 260.48 160.52C260.48 163.16 258.32 165.32 255.68 165.32Z" stroke="#3F2975" stroke-width="2.4" stroke-miterlimit="10" stroke-linecap="round" stroke-linejoin="round"/>
<path d="M253.8 216.52V165.32H232.2V216.52L197.16 271.44C193.76 276.76 197.52 283.72 203.84 283.72H281.88C288.2 283.72 292.12 276.76 288.72 271.44L253.8 216.52Z" fill="white"/>
<path d="M253.8 216.52V165.32H232.2V216.52L197.16 271.44C193.76 276.76 197.52 283.72 203.84 283.72H281.88C288.2 283.72 292.12 276.76 288.72 271.44L253.8 216.52Z" stroke="#3F2975" stroke-width="2.4" stroke-miterlimit="10" stroke-linecap="round" stroke-linejoin="round"/>
<path d="M283.96 274.4L269.88 252.24C268.4 248.72 265.2 246.32 261.48 246.32C259.6 246.32 257.8 246.96 256.36 248.04C254.68 246.24 252.4 245.12 249.88 245.12C246.36 245.12 243.28 247.32 241.72 250.52H240.04C238.36 248.68 236.04 247.52 233.48 247.52C230.92 247.52 228.6 248.68 226.92 250.52H226.2C224.92 251.28 223.44 251.72 221.84 251.72C220.24 251.72 218.8 251.28 217.48 250.52H217.08L201.84 274.4C201.08 275.6 201.52 276.56 201.68 276.84C201.92 277.32 202.56 278.08 203.8 278.08H281.84C283.16 278.08 283.8 277.2 284 276.84C284.32 276.28 284.56 275.4 283.96 274.4Z" fill="#0CF9C3"/>
<path d="M283.96 274.4L269.88 252.24C268.4 248.72 265.2 246.32 261.48 246.32C259.6 246.32 257.8 246.96 256.36 248.04C254.68 246.24 252.4 245.12 249.88 245.12C246.36 245.12 243.28 247.32 241.72 250.52H240.04C238.36 248.68 236.04 247.52 233.48 247.52C230.92 247.52 228.6 248.68 226.92 250.52H226.2C224.92 251.28 223.44 251.72 221.84 251.72C220.24 251.72 218.8 251.28 217.48 250.52H217.08L201.84 274.4C201.08 275.6 201.52 276.56 201.68 276.84C201.92 277.32 202.56 278.08 203.8 278.08H281.84C283.16 278.08 283.8 277.2 284 276.84C284.32 276.28 284.56 275.4 283.96 274.4Z" stroke="#3F2975" stroke-width="2.4" stroke-miterlimit="10" stroke-linecap="round" stroke-linejoin="round"/>
<path d="M238.88 238.72C241.089 238.72 242.88 236.929 242.88 234.72C242.88 232.511 241.089 230.72 238.88 230.72C236.671 230.72 234.88 232.511 234.88 234.72C234.88 236.929 236.671 238.72 238.88 238.72Z" fill="#0CF9C3"/>
<path d="M238.88 238.72C241.089 238.72 242.88 236.929 242.88 234.72C242.88 232.511 241.089 230.72 238.88 230.72C236.671 230.72 234.88 232.511 234.88 234.72C234.88 236.929 236.671 238.72 238.88 238.72Z" stroke="#3F2975" stroke-width="2.4" stroke-miterlimit="10" stroke-linecap="round" stroke-linejoin="round"/>
<path d="M252.72 240C254.178 240 255.36 238.818 255.36 237.36C255.36 235.902 254.178 234.72 252.72 234.72C251.262 234.72 250.08 235.902 250.08 237.36C250.08 238.818 251.262 240 252.72 240Z" fill="#0CF9C3"/>
<path d="M252.72 240C254.178 240 255.36 238.818 255.36 237.36C255.36 235.902 254.178 234.72 252.72 234.72C251.262 234.72 250.08 235.902 250.08 237.36C250.08 238.818 251.262 240 252.72 240Z" stroke="#3F2975" stroke-width="2.4" stroke-miterlimit="10" stroke-linecap="round" stroke-linejoin="round"/>
<path d="M244.28 214.92C245.429 214.92 246.36 213.989 246.36 212.84C246.36 211.691 245.429 210.76 244.28 210.76C243.131 210.76 242.2 211.691 242.2 212.84C242.2 213.989 243.131 214.92 244.28 214.92Z" fill="#0CF9C3"/>
<path d="M244.28 214.92C245.429 214.92 246.36 213.989 246.36 212.84C246.36 211.691 245.429 210.76 244.28 210.76C243.131 210.76 242.2 211.691 242.2 212.84C242.2 213.989 243.131 214.92 244.28 214.92Z" stroke="#3F2975" stroke-width="2.4" stroke-miterlimit="10" stroke-linecap="round" stroke-linejoin="round"/>
<path d="M237.4 262.28C238.814 262.28 239.96 261.134 239.96 259.72C239.96 258.306 238.814 257.16 237.4 257.16C235.986 257.16 234.84 258.306 234.84 259.72C234.84 261.134 235.986 262.28 237.4 262.28Z" fill="#3F2975"/>
<path d="M254.12 266.92C254.827 266.92 255.4 266.347 255.4 265.64C255.4 264.933 254.827 264.36 254.12 264.36C253.413 264.36 252.84 264.933 252.84 265.64C252.84 266.347 253.413 266.92 254.12 266.92Z" fill="#3F2975"/>
<path d="M246.24 190C246.704 190 247.08 189.624 247.08 189.16C247.08 188.696 246.704 188.32 246.24 188.32C245.776 188.32 245.4 188.696 245.4 189.16C245.4 189.624 245.776 190 246.24 190Z" stroke="#3F2975" stroke-width="2.4" stroke-miterlimit="10" stroke-linecap="round" stroke-linejoin="round"/>
<path d="M239.84 171.2C240.304 171.2 240.68 170.824 240.68 170.36C240.68 169.896 240.304 169.52 239.84 169.52C239.376 169.52 239 169.896 239 170.36C239 170.824 239.376 171.2 239.84 171.2Z" stroke="#3F2975" stroke-width="2.4" stroke-miterlimit="10" stroke-linecap="round" stroke-linejoin="round"/>
<path d="M162.201 205.84V145.72H140.601V205.84C121.801 210.64 107.601 228.12 107.601 248.72C107.601 263.12 114.721 275.72 125.401 284.12H178.201C188.881 275.72 195.601 263.12 195.601 248.72C195.601 228.16 181.401 210.68 162.201 205.84Z" fill="white"/>
<path d="M162.201 205.84V145.72H140.601V205.84C121.801 210.64 107.601 228.12 107.601 248.72C107.601 263.12 114.721 275.72 125.401 284.12H178.201C188.881 275.72 195.601 263.12 195.601 248.72C195.601 228.16 181.401 210.68 162.201 205.84Z" stroke="#3F2975" stroke-width="2.4" stroke-miterlimit="10" stroke-linecap="round" stroke-linejoin="round"/>
<path d="M186.72 232.52H176.04C175.88 230.28 174 228.52 171.72 228.52C169.44 228.52 167.56 230.28 167.4 232.52H166.96C166.76 228.52 163.44 225.32 159.4 225.32C158.12 225.32 156.92 225.64 155.88 226.2C154.44 222.04 150.48 219.04 145.8 219.04C140.68 219.04 136.36 222.68 135.36 227.52C134.4 226.88 133.24 226.52 132 226.52C128.64 226.52 125.92 229.2 125.8 232.52H116.88C114.6 237.52 113.4 243.04 113.4 248.52C113.4 260.04 118.48 270.8 127.32 278.12H176.24C185.12 270.8 190.16 260.04 190.16 248.52C190.2 243.04 189 237.52 186.72 232.52Z" fill="#FF5959"/>
<path d="M186.72 232.52H176.04C175.88 230.28 174 228.52 171.72 228.52C169.44 228.52 167.56 230.28 167.4 232.52H166.96C166.76 228.52 163.44 225.32 159.4 225.32C158.12 225.32 156.92 225.64 155.88 226.2C154.44 222.04 150.48 219.04 145.8 219.04C140.68 219.04 136.36 222.68 135.36 227.52C134.4 226.88 133.24 226.52 132 226.52C128.64 226.52 125.92 229.2 125.8 232.52H116.88C114.6 237.52 113.4 243.04 113.4 248.52C113.4 260.04 118.48 270.8 127.32 278.12H176.24C185.12 270.8 190.16 260.04 190.16 248.52C190.2 243.04 189 237.52 186.72 232.52Z" stroke="#3F2975" stroke-width="2.4" stroke-miterlimit="10" stroke-linecap="round" stroke-linejoin="round"/>
<path d="M135.881 233.64C135.401 232.44 135.121 231.08 135.121 229.72C135.121 223.84 139.881 219.04 145.801 219.04C150.441 219.04 154.401 222.04 155.881 226.2" stroke="#3F2975" stroke-width="2.4" stroke-miterlimit="10" stroke-linecap="round" stroke-linejoin="round"/>
<path d="M152.4 229.96C153.56 227.24 156.24 225.32 159.4 225.32C163.6 225.32 167 228.72 167 232.92" stroke="#3F2975" stroke-width="2.4" stroke-miterlimit="10" stroke-linecap="round" stroke-linejoin="round"/>
<path d="M167.4 232.84C167.4 230.44 169.36 228.52 171.72 228.52C174.12 228.52 176.04 230.48 176.04 232.84" stroke="#3F2975" stroke-width="2.4" stroke-miterlimit="10" stroke-linecap="round" stroke-linejoin="round"/>
<path d="M158.801 130.12H144.001V154.92H158.801V130.12Z" fill="#D29C5E"/>
<path d="M158.801 130.12H144.001V154.92H158.801V130.12Z" stroke="#3F2975" stroke-width="2.4" stroke-miterlimit="10" stroke-linecap="round" stroke-linejoin="round"/>
<path d="M163.601 145.32H139.601C136.961 145.32 134.801 143.16 134.801 140.52C134.801 137.88 136.961 135.72 139.601 135.72H163.601C166.241 135.72 168.401 137.88 168.401 140.52C168.401 143.16 166.241 145.32 163.601 145.32Z" fill="#D9D6E5"/>
<path d="M163.601 145.32H139.601C136.961 145.32 134.801 143.16 134.801 140.52C134.801 137.88 136.961 135.72 139.601 135.72H163.601C166.241 135.72 168.401 137.88 168.401 140.52C168.401 143.16 166.241 145.32 163.601 145.32Z" stroke="#3F2975" stroke-width="2.4" stroke-miterlimit="10" stroke-linecap="round" stroke-linejoin="round"/>
<path d="M157.721 218.16C160.416 218.16 162.601 215.975 162.601 213.28C162.601 210.585 160.416 208.4 157.721 208.4C155.026 208.4 152.841 210.585 152.841 213.28C152.841 215.975 155.026 218.16 157.721 218.16Z" fill="#FF5959"/>
<path d="M152.6 174C153.815 174 154.8 173.015 154.8 171.8C154.8 170.585 153.815 169.6 152.6 169.6C151.385 169.6 150.4 170.585 150.4 171.8C150.4 173.015 151.385 174 152.6 174Z" fill="#FF5959"/>
<path d="M148.401 190.36C149.947 190.36 151.201 189.106 151.201 187.56C151.201 186.013 149.947 184.76 148.401 184.76C146.854 184.76 145.601 186.013 145.601 187.56C145.601 189.106 146.854 190.36 148.401 190.36Z" fill="#FF5959"/>
<path d="M157.721 218.16C160.416 218.16 162.601 215.975 162.601 213.28C162.601 210.585 160.416 208.4 157.721 208.4C155.026 208.4 152.841 210.585 152.841 213.28C152.841 215.975 155.026 218.16 157.721 218.16Z" stroke="#3F2975" stroke-width="2.4" stroke-miterlimit="10" stroke-linecap="round" stroke-linejoin="round"/>
<path d="M152.601 173.4C153.485 173.4 154.201 172.683 154.201 171.8C154.201 170.916 153.485 170.2 152.601 170.2C151.717 170.2 151.001 170.916 151.001 171.8C151.001 172.683 151.717 173.4 152.601 173.4Z" stroke="#3F2975" stroke-width="2.4" stroke-miterlimit="10" stroke-linecap="round" stroke-linejoin="round"/>
<path d="M148.401 190.36C149.947 190.36 151.201 189.106 151.201 187.56C151.201 186.013 149.947 184.76 148.401 184.76C146.854 184.76 145.601 186.013 145.601 187.56C145.601 189.106 146.854 190.36 148.401 190.36Z" stroke="#3F2975" stroke-width="2.4" stroke-miterlimit="10" stroke-linecap="round" stroke-linejoin="round"/>
<path d="M172.721 220.36C173.383 220.36 173.921 219.822 173.921 219.16C173.921 218.497 173.383 217.96 172.721 217.96C172.058 217.96 171.521 218.497 171.521 219.16C171.521 219.822 172.058 220.36 172.721 220.36Z" fill="#FF5959"/>
<path d="M172.721 220.36C173.383 220.36 173.921 219.822 173.921 219.16C173.921 218.497 173.383 217.96 172.721 217.96C172.058 217.96 171.521 218.497 171.521 219.16C171.521 219.822 172.058 220.36 172.721 220.36Z" stroke="#3F2975" stroke-width="2" stroke-miterlimit="10" stroke-linecap="round" stroke-linejoin="round"/>
<path d="M165.52 223.079C165.697 223.079 165.84 222.936 165.84 222.759C165.84 222.583 165.697 222.439 165.52 222.439C165.343 222.439 165.2 222.583 165.2 222.759C165.2 222.936 165.343 223.079 165.52 223.079Z" stroke="#3F2975" stroke-width="2" stroke-miterlimit="10" stroke-linecap="round" stroke-linejoin="round"/>
<path d="M143.4 259.72C144.063 259.72 144.6 259.182 144.6 258.52C144.6 257.857 144.063 257.32 143.4 257.32C142.737 257.32 142.2 257.857 142.2 258.52C142.2 259.182 142.737 259.72 143.4 259.72Z" fill="#3F2975"/>
<path d="M152.201 270.68C153.614 270.68 154.761 269.533 154.761 268.12C154.761 266.706 153.614 265.56 152.201 265.56C150.787 265.56 149.641 266.706 149.641 268.12C149.641 269.533 150.787 270.68 152.201 270.68Z" fill="#3F2975"/>
<path d="M155.801 255.32C156.463 255.32 157.001 254.782 157.001 254.12C157.001 253.457 156.463 252.92 155.801 252.92C155.138 252.92 154.601 253.457 154.601 254.12C154.601 254.782 155.138 255.32 155.801 255.32Z" fill="#3F2975"/>
<path d="M164.201 268.28C164.952 268.28 165.561 267.671 165.561 266.92C165.561 266.168 164.952 265.56 164.201 265.56C163.45 265.56 162.841 266.168 162.841 266.92C162.841 267.671 163.45 268.28 164.201 268.28Z" fill="#3F2975"/>
<path d="M227.56 277.32C225 274.56 221.8 272.16 217.8 270.36V126.08L222.4 118.12C224.44 114.56 221.88 110.16 217.8 110.16H215H186.32C183.4 110.16 181 112.52 181 115.48V270.4C177 272.2 173.56 274.6 171 277.36H170.88C168.96 277.36 167.44 278.92 167.44 280.8V283.76H231.04V280.8C231 278.88 229.44 277.32 227.56 277.32Z" fill="white"/>
<path d="M227.16 277.32C224.6 274.56 221.4 272.16 217.4 270.36V127.16C217.4 126.44 217.6 125.76 217.96 125.16L222.16 118.36C224.28 114.92 221.8 110.52 217.8 110.52H215H185.72C182.88 110.52 180.6 112.8 180.6 115.64V270.36C176.6 272.16 173.56 274.92 171 277.72H170.88C168.76 277.72 167.04 279.44 167.04 281.56V284.12H230.64V280.76C230.6 278.88 229.04 277.32 227.16 277.32Z" stroke="#3F2975" stroke-width="2.4" stroke-miterlimit="10" stroke-linecap="round" stroke-linejoin="round"/>
<path d="M215.481 275.48L212.201 274V160.52H212.121C212.121 156.28 208.681 152.84 204.441 152.84C200.961 152.84 198.041 155.16 197.081 158.32C196.481 157.92 195.761 157.72 195.001 157.72C193.241 157.72 191.761 158.92 191.321 160.52H186.601V273.96L183.321 275.44C181.601 276.2 180.041 277.12 178.601 278.08H220.081C218.681 277.12 217.161 276.24 215.481 275.48Z" fill="#EC1CE4"/>
<path d="M215.481 275.48L212.201 274V160.52H212.121C212.121 156.28 208.681 152.84 204.441 152.84C200.961 152.84 198.041 155.16 197.081 158.32C196.481 157.92 195.761 157.72 195.001 157.72C193.241 157.72 191.761 158.92 191.321 160.52H186.601V273.96L183.321 275.44C181.601 276.2 180.041 277.12 178.601 278.08H220.081C218.681 277.12 217.161 276.24 215.481 275.48Z" stroke="#3F2975" stroke-width="2.4" stroke-miterlimit="10" stroke-linecap="round" stroke-linejoin="round"/>
<path d="M194 140.52C196.099 140.52 197.8 138.819 197.8 136.72C197.8 134.621 196.099 132.92 194 132.92C191.902 132.92 190.2 134.621 190.2 136.72C190.2 138.819 191.902 140.52 194 140.52Z" fill="#EC1CE4"/>
<path d="M194 140.52C196.099 140.52 197.8 138.819 197.8 136.72C197.8 134.621 196.099 132.92 194 132.92C191.902 132.92 190.2 134.621 190.2 136.72C190.2 138.819 191.902 140.52 194 140.52Z" stroke="#3F2975" stroke-width="2.4" stroke-miterlimit="10" stroke-linecap="round" stroke-linejoin="round"/>
<path d="M198 102.92C201.645 102.92 204.6 99.9651 204.6 96.32C204.6 92.6749 201.645 89.72 198 89.72C194.355 89.72 191.4 92.6749 191.4 96.32C191.4 99.9651 194.355 102.92 198 102.92Z" fill="#EC1CE4"/>
<path d="M198 102.92C201.645 102.92 204.6 99.9651 204.6 96.32C204.6 92.6749 201.645 89.72 198 89.72C194.355 89.72 191.4 92.6749 191.4 96.32C191.4 99.9651 194.355 102.92 198 102.92Z" stroke="#3F2975" stroke-width="2.4" stroke-miterlimit="10" stroke-linecap="round" stroke-linejoin="round"/>
<path d="M206.4 84.88C207.814 84.88 208.96 83.7339 208.96 82.32C208.96 80.9062 207.814 79.76 206.4 79.76C204.986 79.76 203.84 80.9062 203.84 82.32C203.84 83.7339 204.986 84.88 206.4 84.88Z" fill="#EC1CE4"/>
<path d="M206.4 84.88C207.814 84.88 208.96 83.7339 208.96 82.32C208.96 80.9062 207.814 79.76 206.4 79.76C204.986 79.76 203.84 80.9062 203.84 82.32C203.84 83.7339 204.986 84.88 206.4 84.88Z" stroke="#3F2975" stroke-width="2.4" stroke-miterlimit="10" stroke-linecap="round" stroke-linejoin="round"/>
<path d="M205.201 128.72C206.084 128.72 206.801 128.004 206.801 127.12C206.801 126.236 206.084 125.52 205.201 125.52C204.317 125.52 203.601 126.236 203.601 127.12C203.601 128.004 204.317 128.72 205.201 128.72Z" fill="#EC1CE4"/>
<path d="M205.201 128.72C206.084 128.72 206.801 128.004 206.801 127.12C206.801 126.236 206.084 125.52 205.201 125.52C204.317 125.52 203.601 126.236 203.601 127.12C203.601 128.004 204.317 128.72 205.201 128.72Z" stroke="#3F2975" stroke-width="2.4" stroke-miterlimit="10" stroke-linecap="round" stroke-linejoin="round"/>
<path d="M200.12 199.72C200.827 199.72 201.4 199.147 201.4 198.44C201.4 197.733 200.827 197.16 200.12 197.16C199.413 197.16 198.84 197.733 198.84 198.44C198.84 199.147 199.413 199.72 200.12 199.72Z" fill="#3F2975"/>
<path d="M198.04 220.76C200.249 220.76 202.04 218.969 202.04 216.76C202.04 214.551 200.249 212.76 198.04 212.76C195.831 212.76 194.04 214.551 194.04 216.76C194.04 218.969 195.831 220.76 198.04 220.76Z" fill="#3F2975"/>
<path d="M203.239 238.92C204.212 238.92 204.999 238.132 204.999 237.16C204.999 236.188 204.212 235.4 203.239 235.4C202.267 235.4 201.479 236.188 201.479 237.16C201.479 238.132 202.267 238.92 203.239 238.92Z" fill="#3F2975"/>
<path d="M49 284.12H349" stroke="#3F2975" stroke-width="3.2" stroke-miterlimit="10" stroke-linecap="round" stroke-linejoin="round"/>
<g opacity="0.4">
<g opacity="0.4">
<path opacity="0.4" d="M312.401 185.68L299.001 162.48L312.401 139.28H339.161L352.561 162.48L339.161 185.68H312.401Z" stroke="#424242" stroke-width="2.4" stroke-miterlimit="10"/>
</g>
</g>
<g opacity="0.4">
<g opacity="0.4">
<path opacity="0.4" d="M266.003 158.92L252.643 135.72L266.003 112.52H292.763L306.163 135.72L292.763 158.92H266.003Z" fill="#424242" stroke="#424242" stroke-width="2.4" stroke-miterlimit="10"/>
</g>
<g opacity="0.4">
<path opacity="0.4" d="M266.002 105.4L252.642 82.2L266.002 59H292.762L306.162 82.2L292.762 105.4H266.002Z" stroke="#424242" stroke-width="2.4" stroke-miterlimit="10"/>
</g>
</g>
<g opacity="0.4">
<g opacity="0.4">
<path opacity="0.4" d="M219.602 185.68L206.242 162.48L219.602 139.28H246.362L259.762 162.48L246.362 185.68H219.602Z" stroke="#424242" stroke-width="2.4" stroke-miterlimit="10"/>
</g>
<g opacity="0.4">
<path opacity="0.4" d="M219.601 132.16L206.241 108.96L219.601 85.7603H246.361L259.761 108.96L246.361 132.16H219.601Z" fill="#424242" stroke="#424242" stroke-width="2.4" stroke-miterlimit="10"/>
</g>
</g>
<g opacity="0.4">
<g opacity="0.4">
<path opacity="0.4" d="M173.242 212.44L159.842 189.24L173.242 166.04H200.002L213.362 189.24L200.002 212.44H173.242Z" fill="#424242" stroke="#424242" stroke-width="2.4" stroke-miterlimit="10"/>
</g>
<g opacity="0.4">
<path opacity="0.4" d="M173.242 158.92L159.842 135.72L173.242 112.52H200.002L213.362 135.72L200.002 158.92H173.242Z" stroke="#424242" stroke-width="2.4" stroke-miterlimit="10"/>
</g>
<g opacity="0.4">
<path opacity="0.4" d="M173.241 105.4L159.841 82.2L173.241 59H200.001L213.361 82.2L200.001 105.4H173.241Z" stroke="#424242" stroke-width="2.4" stroke-miterlimit="10"/>
</g>
</g>
<g opacity="0.4">
<g opacity="0.4">
<path opacity="0.4" d="M126.84 132.16L113.44 108.96L126.84 85.76H153.6L166.96 108.96L153.6 132.16H126.84Z" fill="#424242" stroke="#424242" stroke-width="2.4" stroke-miterlimit="10"/>
</g>
</g>
<g opacity="0.4">
<g opacity="0.4">
<path opacity="0.4" d="M80.44 212.44L67.04 189.24L80.44 166.04H107.2L120.6 189.24L107.2 212.44H80.44Z" fill="#424242" stroke="#424242" stroke-width="2.4" stroke-miterlimit="10"/>
</g>
<g opacity="0.4">
<path opacity="0.4" d="M80.4405 158.92L67.0405 135.72L80.4405 112.52H107.201L120.601 135.72L107.201 158.92H80.4405Z" stroke="#424242" stroke-width="2.4" stroke-miterlimit="10"/>
</g>
</g>
</svg>
