<svg width="219" height="219" viewBox="0 0 219 219" fill="none" xmlns="http://www.w3.org/2000/svg">
<path d="M219 0H0V219H219V0Z" fill="#83314F"/>
<path opacity="0.34" d="M190.085 173.804H41.648C39.0121 173.804 36.8843 171.677 36.8843 169.041C36.8843 166.405 39.0121 164.277 41.648 164.277H190.085C192.721 164.277 194.849 166.405 194.849 169.041C194.849 171.677 192.721 173.804 190.085 173.804Z" fill="#353535"/>
<path d="M145.179 154.337H70.2301C67.0861 154.337 64.5137 151.764 64.5137 148.62V51.8217C64.5137 48.6777 67.0861 46.1053 70.2301 46.1053H145.179C148.323 46.1053 150.895 48.6777 150.895 51.8217V148.62C150.895 151.764 148.323 154.337 145.179 154.337Z" fill="#F7E4CB"/>
<path d="M145.179 154.337H70.2301C67.0861 154.337 64.5137 151.764 64.5137 148.62V51.8217C64.5137 48.6777 67.0861 46.1053 70.2301 46.1053H145.179C148.323 46.1053 150.895 48.6777 150.895 51.8217V148.62C150.895 151.764 148.323 154.337 145.179 154.337Z" fill="#E0C5AA"/>
<path d="M68.3247 143.92V54.9974C68.3247 53.1872 69.7856 51.7581 71.564 51.7581H143.813C145.624 51.7581 147.053 53.219 147.053 54.9974V143.92C147.053 145.73 145.592 147.159 143.813 147.159H71.5958C69.7856 147.191 68.3247 145.73 68.3247 143.92Z" fill="#F7E4CB"/>
<path d="M145.179 154.337H70.2301C67.0861 154.337 64.5137 151.764 64.5137 148.62V51.8217C64.5137 48.6777 67.0861 46.1053 70.2301 46.1053H145.179C148.323 46.1053 150.895 48.6777 150.895 51.8217V148.62C150.895 151.764 148.323 154.337 145.179 154.337Z" stroke="#353535" stroke-width="1.90548" stroke-miterlimit="10" stroke-linecap="round" stroke-linejoin="round"/>
<path d="M76.1689 114.956C74.454 114.956 73.0884 113.591 73.0884 111.876V60.2374C73.0884 58.5224 74.454 57.1569 76.1689 57.1569H139.24C140.955 57.1569 142.321 58.5224 142.321 60.2374V111.876C142.321 113.591 140.955 114.956 139.24 114.956H76.1689Z" fill="#E0C5AA"/>
<path d="M81.8852 111.59C78.8682 111.59 76.4229 109.145 76.4229 106.128V65.9539C76.4229 62.9369 78.8682 60.4915 81.8852 60.4915H133.524C136.541 60.4915 138.986 62.9369 138.986 65.9539V106.096C138.986 109.113 136.541 111.558 133.524 111.558H81.8852V111.59Z" fill="#353535"/>
<path opacity="0.3" d="M133.524 60.4915H127.109C128.22 62.8099 128.855 65.414 128.855 68.1769C128.855 86.5331 113.961 101.428 95.6047 101.428H84.1083C81.3453 101.428 78.7412 100.792 76.4229 99.6809V106.096C76.4229 109.113 78.8682 111.558 81.8852 111.558H133.524C136.541 111.558 138.986 109.113 138.986 106.096V65.9539C139.018 62.9369 136.573 60.4915 133.524 60.4915Z" fill="#282828"/>
<path d="M130.094 127.978V126.993H108.276V123.182H130.094V122.198C130.094 121.88 130.348 121.594 130.698 121.594H142.194C142.511 121.594 142.797 121.848 142.797 122.198V127.978C142.797 128.295 142.543 128.581 142.194 128.581H130.698C130.348 128.581 130.094 128.327 130.094 127.978Z" fill="#E0C5AA"/>
<path d="M141.146 124.135H139.78V126.04H141.146V124.135Z" fill="#353535"/>
<path d="M82.0125 139.474H75.8514C75.5339 139.474 75.248 139.22 75.248 138.87V132.709C75.248 132.392 75.5021 132.106 75.8514 132.106H82.0125C82.3301 132.106 82.6159 132.36 82.6159 132.709V138.87C82.6159 139.188 82.3618 139.474 82.0125 139.474Z" stroke="#353535" stroke-width="0.63516" stroke-miterlimit="10" stroke-linecap="round" stroke-linejoin="round"/>
<path d="M160.01 169.04C160.01 165.896 163.344 163.324 167.473 163.324C171.601 163.324 174.936 165.896 174.936 169.04H160.01Z" fill="#F2EBE1"/>
<path d="M160.01 169.04C160.01 165.896 163.344 163.324 167.473 163.324C171.601 163.324 174.936 165.896 174.936 169.04H160.01Z" stroke="#353535" stroke-width="1.90548" stroke-miterlimit="10" stroke-linecap="round" stroke-linejoin="round"/>
<path d="M145.497 154.718H69.9126V162.34H145.497V154.718Z" fill="#E0C5AA"/>
<path d="M145.497 154.718H69.9126V157.862H145.497V154.718Z" fill="#C6A485"/>
<path d="M145.497 154.718H69.9126V162.34H145.497V154.718Z" stroke="#353535" stroke-width="1.90548" stroke-miterlimit="10" stroke-linecap="round" stroke-linejoin="round"/>
<path d="M131.841 159.513H83.5684V163.324H131.841V159.513Z" fill="#E0C5AA"/>
<path d="M150.26 159.513H143.909V163.324H150.26V159.513Z" fill="#E0C5AA"/>
<path d="M141.05 159.513H134.699V163.324H141.05V159.513Z" fill="#E0C5AA"/>
<path d="M80.71 159.513H74.3584V163.324H80.71V159.513Z" fill="#E0C5AA"/>
<path d="M71.5005 159.513H65.1489V163.324H71.5005V159.513Z" fill="#E0C5AA"/>
<path d="M156.643 163.324H58.7334V169.04H156.643V163.324Z" fill="#F7E4CB"/>
<path d="M156.643 163.324H58.7334V169.04H156.643V163.324Z" stroke="#353535" stroke-width="1.90548" stroke-miterlimit="10" stroke-linecap="round" stroke-linejoin="round"/>
<path d="M131.841 159.513H83.5684V163.324H131.841V159.513Z" stroke="#353535" stroke-width="1.90548" stroke-miterlimit="10" stroke-linecap="round" stroke-linejoin="round"/>
<path d="M150.26 159.513H143.909V163.324H150.26V159.513Z" stroke="#353535" stroke-width="1.90548" stroke-miterlimit="10" stroke-linecap="round" stroke-linejoin="round"/>
<path d="M141.05 159.513H134.699V163.324H141.05V159.513Z" stroke="#353535" stroke-width="1.90548" stroke-miterlimit="10" stroke-linecap="round" stroke-linejoin="round"/>
<path d="M80.71 159.513H74.3584V163.324H80.71V159.513Z" stroke="#353535" stroke-width="1.90548" stroke-miterlimit="10" stroke-linecap="round" stroke-linejoin="round"/>
<path d="M71.5005 159.513H65.1489V163.324H71.5005V159.513Z" stroke="#353535" stroke-width="1.90548" stroke-miterlimit="10" stroke-linecap="round" stroke-linejoin="round"/>
<path d="M79.6303 135.218C79.3445 134.964 79.154 134.615 79.0587 134.234H77.0579C76.8356 134.52 76.6451 134.869 76.5498 135.218H79.6303Z" fill="#CF9742"/>
<path d="M78.9953 133.821C78.9953 133.662 79.0271 133.472 79.0589 133.345C79.0271 133.345 78.9636 133.345 78.9318 133.345C78.1696 133.345 77.5027 133.694 77.0581 134.234H79.0589C79.0271 134.075 78.9953 133.948 78.9953 133.821Z" fill="#6E9546"/>
<path d="M77.0579 137.378H80.8054C81.0594 137.092 81.2182 136.743 81.3135 136.393H76.5498C76.6451 136.743 76.8356 137.092 77.0579 137.378Z" fill="#7C4D83"/>
<path d="M78.9318 138.235C79.694 138.235 80.3609 137.886 80.8055 137.378H77.0581C77.5345 137.918 78.2014 138.235 78.9318 138.235Z" fill="#4D8DB9"/>
<path d="M76.4863 135.79C76.4863 135.981 76.5181 136.203 76.5498 136.393H81.3135C81.3453 136.203 81.3771 136.012 81.3771 135.79C81.3771 135.758 81.3771 135.695 81.3771 135.663C81.2183 135.695 81.0595 135.727 80.9007 135.727C80.3926 135.727 79.9479 135.536 79.6304 135.218H76.5816C76.5181 135.409 76.4863 135.599 76.4863 135.79Z" fill="#CB6757"/>
<path d="M141.146 124.77H131.174V123.245C131.174 122.928 131.428 122.642 131.777 122.642H140.542C140.86 122.642 141.146 122.896 141.146 123.245V124.77Z" fill="#353535"/>
<path d="M140.542 127.533H131.777C131.46 127.533 131.174 127.279 131.174 126.93V125.088H141.146V126.93C141.146 127.247 140.86 127.533 140.542 127.533Z" fill="#353535"/>
<path d="M139.907 126.04H109.864C109.705 126.04 109.546 125.913 109.546 125.723V124.42C109.546 124.262 109.673 124.103 109.864 124.103H139.907C140.066 124.103 140.225 124.23 140.225 124.42V125.723C140.193 125.913 140.066 126.04 139.907 126.04Z" fill="#282828"/>
<path d="M95.2426 83.5595V88.2637H95.8123C96.1921 88.2637 96.4616 88.3381 96.6207 88.487C96.785 88.6307 96.8671 88.8206 96.8671 89.0567C96.8671 89.2877 96.785 89.4776 96.6207 89.6265C96.4616 89.7702 96.1921 89.842 95.8123 89.842H93.7412C93.3614 89.842 93.0919 89.7702 92.9328 89.6265C92.7686 89.4776 92.6864 89.2851 92.6864 89.049C92.6864 88.818 92.766 88.6307 92.9251 88.487C93.0842 88.3381 93.3306 88.2637 93.6642 88.2637V82.0889C93.3871 82.0633 93.1766 81.9786 93.0329 81.8349C92.8943 81.6911 92.825 81.5115 92.825 81.2959C92.825 81.0598 92.9046 80.8699 93.0637 80.7262C93.2279 80.5773 93.5 80.5029 93.8798 80.5029L95.6121 80.5106L97.7602 85.261L99.8698 80.5029L101.618 80.5106C101.997 80.5106 102.267 80.5824 102.426 80.7262C102.59 80.8699 102.672 81.0598 102.672 81.2959C102.672 81.5115 102.6 81.6911 102.457 81.8349C102.313 81.9786 102.105 82.0633 101.833 82.0889V88.2637C102.167 88.2637 102.413 88.3381 102.572 88.487C102.731 88.6358 102.811 88.8257 102.811 89.0567C102.811 89.2877 102.729 89.4776 102.565 89.6265C102.405 89.7702 102.136 89.842 101.756 89.842H99.6773C99.3026 89.842 99.0332 89.7702 98.8689 89.6265C98.7098 89.4776 98.6302 89.2851 98.6302 89.049C98.6302 88.818 98.7098 88.6307 98.8689 88.487C99.0332 88.3381 99.3026 88.2637 99.6773 88.2637H100.255V83.5595L98.4454 87.6247H97.075L95.2426 83.5595ZM107.507 81.4807V89.1953H109.725C109.879 89.1953 109.989 89.2261 110.056 89.2877C110.123 89.3442 110.156 89.4212 110.156 89.5187C110.156 89.6111 110.123 89.6881 110.056 89.7497C109.989 89.8112 109.879 89.842 109.725 89.842H104.643C104.489 89.842 104.379 89.8112 104.312 89.7497C104.246 89.6881 104.212 89.6111 104.212 89.5187C104.212 89.4212 104.246 89.3442 104.312 89.2877C104.379 89.2261 104.489 89.1953 104.643 89.1953H106.861V81.4807H104.643C104.489 81.4807 104.379 81.4525 104.312 81.396C104.246 81.3344 104.212 81.2548 104.212 81.1573C104.212 81.0598 104.246 80.9828 104.312 80.9263C104.379 80.8648 104.489 80.834 104.643 80.834H109.725C109.879 80.834 109.989 80.8648 110.056 80.9263C110.123 80.9828 110.156 81.0598 110.156 81.1573C110.156 81.2548 110.123 81.3344 110.056 81.396C109.989 81.4525 109.879 81.4807 109.725 81.4807H107.507ZM116.97 81.4807V89.1953H118.648C118.802 89.1953 118.913 89.2261 118.979 89.2877C119.046 89.3442 119.079 89.4212 119.079 89.5187C119.079 89.6111 119.046 89.6881 118.979 89.7497C118.913 89.8112 118.802 89.842 118.648 89.842H114.637C114.483 89.842 114.373 89.8112 114.306 89.7497C114.239 89.6881 114.206 89.6111 114.206 89.5187C114.206 89.4212 114.239 89.3442 114.306 89.2877C114.373 89.2261 114.483 89.1953 114.637 89.1953H116.315V81.4807H113.667V83.7212C113.667 83.8803 113.636 83.9932 113.574 84.0599C113.518 84.1267 113.441 84.16 113.343 84.16C113.251 84.16 113.174 84.1267 113.112 84.0599C113.051 83.9932 113.02 83.8803 113.02 83.7212V80.834H120.265V83.7212C120.265 83.8803 120.234 83.9932 120.173 84.0599C120.116 84.1267 120.039 84.16 119.942 84.16C119.844 84.16 119.765 84.1267 119.703 84.0599C119.647 83.9932 119.618 83.8803 119.618 83.7212V81.4807H116.97Z" fill="white"/>
</svg>
