<svg width="96" height="99" viewBox="0 0 96 99" fill="none" xmlns="http://www.w3.org/2000/svg">
<mask id="path-1-inside-1" fill="white">
<path d="M48.9398 23.2653H40.2324V38.0452C44.3298 33.7511 47.3038 28.7032 48.9398 23.2653ZM37.3216 23.2653H28.6142C30.2502 28.7032 33.2242 33.7511 37.3216 38.0452V23.2653ZM27.1341 13.2767C27.1336 15.7617 27.4022 18.2409 27.936 20.6803H37.3216V11.6327H27.1341V13.2767ZM38.777 0.182245C37.528 0.852287 36.4813 1.78215 35.7273 2.89161C34.9732 4.00107 34.5344 5.2568 34.4487 6.55048C36.6318 4.82579 39.4529 3.87443 42.3747 3.87755H42.398C41.6564 2.33948 40.3899 1.04695 38.777 0.182245ZM43.1431 7.07265C43.1431 6.86585 43.1155 6.66551 43.0994 6.46258H42.3718C41.1198 6.45931 39.8808 6.68744 38.7335 7.13248C37.5862 7.57752 36.5557 8.22973 35.7076 9.04762H43.1431V7.07265ZM50.42 11.6327H40.2324V20.6803H49.618C50.1519 18.2409 50.4204 15.7617 50.42 13.2767V11.6327ZM78.072 0.784558V0H77.1886L58.3372 15.5438L60.5697 17.5265L78.072 0.784558ZM59.1522 22.7302L60.7327 21.3265L59.5786 20.3016L55.2125 16.424L54.0584 15.399L53.2055 16.1565C53.175 16.5584 53.1502 16.9604 53.1066 17.3611L59.1522 22.7302ZM52.603 25.8503C53.182 25.8503 53.7373 25.6461 54.1467 25.2825C54.5561 24.9189 54.7861 24.4258 54.7861 23.9116C54.7861 23.3974 54.5561 22.9042 54.1467 22.5406C53.7373 22.177 53.182 21.9728 52.603 21.9728H52.2843C51.967 23.2851 51.5789 24.5776 51.12 25.8503H52.603ZM72.7686 18.1702L59.5393 29.9192L64.3522 29.7499L77.8114 17.7915C78.4794 17.1957 79.3481 16.81 80.2856 16.6929L83.8934 16.2353C82.6617 15.7682 81.3382 15.5218 79.9989 15.5102C77.2885 15.5172 74.6906 16.473 72.7686 18.1702ZM76.2615 54.5778L82.978 56.9625C83.1651 57.0288 83.3347 57.1288 83.476 57.2563C83.6173 57.3838 83.7273 57.5359 83.7989 57.7031C83.8706 57.8703 83.9025 58.0488 83.8924 58.2275C83.8824 58.4061 83.8307 58.581 83.7406 58.741L80.8299 63.9111C80.7155 64.1118 80.5452 64.2831 80.3351 64.4087L77.1231 66.3061L79.4124 69.6951L81.2039 66.5258L87.1229 58.1154C87.3099 57.8482 87.3806 57.5295 87.322 57.2193C87.2633 56.909 87.0792 56.6283 86.8042 56.43L75.1874 47.9899C75.0228 47.8703 74.8896 47.7202 74.7973 47.55C74.7051 47.3799 74.6559 47.1938 74.6533 47.005C74.6516 46.8168 74.6962 46.6307 74.7839 46.4594C74.8717 46.2882 75.0004 46.1361 75.1612 46.0136C76.7551 44.7972 77.8845 43.1713 78.3936 41.3605L82.1077 28.1601C80.939 27.8274 79.919 27.1746 79.194 26.2953C78.4689 25.4159 78.0761 24.3552 78.072 23.2653H80.9827C80.9827 23.9509 81.2894 24.6084 81.8352 25.0932C82.3811 25.578 83.1215 25.8503 83.8934 25.8503V25.8646C84.1625 25.8618 84.4271 25.9259 84.6573 26.0497C84.8875 26.1735 85.0741 26.352 85.196 26.5651L88.4327 32.3129C88.5897 32.5907 88.8542 32.8089 89.1776 32.9276C89.501 33.0463 89.8617 33.0575 90.1937 32.9592L91 32.7214L88.7151 19.5248C88.6555 19.1891 88.4495 18.8877 88.1417 18.6859C87.8358 18.4838 87.4521 18.3978 87.0749 18.4468L80.6916 19.2585C80.3788 19.2967 80.0889 19.4253 79.8664 19.6243L66.0055 31.9394C65.7468 32.1691 65.4002 32.3038 65.0348 32.3168L51.331 32.8015L61.1446 36.2913C61.3222 36.3542 61.4841 36.4476 61.621 36.5661C61.7579 36.6846 61.8672 36.8259 61.9426 36.982C62.0181 37.138 62.0581 37.3057 62.0605 37.4755C62.0629 37.6453 62.0276 37.8139 61.9567 37.9716L56.7494 49.5331C58.8037 49.6997 60.872 49.6732 62.9201 49.4543C62.4195 48.97 61.9373 48.4707 61.4735 47.9563L60.9248 47.3475L63.1952 45.7318L63.7453 46.3406C67.0479 49.9988 71.3595 52.8364 76.2615 54.5778ZM56.2414 72.3809H60.1986L59.1958 68.8162C59.1317 68.5911 59.1377 68.3547 59.2133 68.1324L63.5299 55.3533L63.7409 51.9385C62.7008 52.0652 61.6564 52.1466 60.6075 52.1828V54.2857C60.6075 54.4005 60.5903 54.5148 60.5566 54.6256L56.2414 68.6766V72.3809ZM57.0899 55.427C57.2947 55.0356 57.3421 54.5936 57.2243 54.1749C57.1064 53.7562 56.8304 53.3861 56.4423 53.1263L53.9128 51.4422C53.6568 51.2717 53.4711 51.0311 53.3845 50.7575C53.298 50.4839 53.3154 50.1926 53.434 49.9286L58.7156 38.2029L46.9897 34.0384C46.2445 35.1586 45.4368 36.2512 44.5665 37.3162L51.0705 40.1973C51.3973 40.3421 51.6508 40.5908 51.7808 40.8939C51.9107 41.197 51.9076 41.5324 51.772 41.8336L46.5851 53.3473L57.0899 55.427ZM43.1635 46.5306C43.3055 46.5309 43.4467 46.5496 43.5826 46.5862L46.1848 47.2829L48.5702 41.9835L42.7487 39.3985C41.8231 40.3899 40.8451 41.3515 39.806 42.2731C39.533 42.5154 39.1629 42.6515 38.777 42.6515C38.3911 42.6515 38.021 42.5154 37.7481 42.2731C37.0888 41.6888 36.4615 41.0839 35.8473 40.4713C35.7947 42.5442 35.3418 44.5937 34.5084 46.5306H43.1635ZM38.4699 69.0023C38.6688 69.2291 38.7769 69.5084 38.777 69.7959V72.3809H44.0338L43.2959 70.415L33.2626 58.9569C33.1008 58.7723 32.9984 58.5522 32.9664 58.32C32.9343 58.0878 32.9738 57.8523 33.0807 57.6385L37.3464 49.1156H33.1258C32.2081 50.5313 31.0825 51.8322 29.7785 52.9841L28.684 57.8363L38.4699 69.0023ZM13.9571 54.8092L11.125 69.9032V72.3809H14.9264L14.1114 70.2043C14.0299 69.9914 14.0139 69.7629 14.0648 69.5426L16.9756 56.6174C17.0283 56.3822 17.1537 56.1646 17.3378 55.9891C17.5218 55.8136 17.7572 55.687 18.0176 55.6235L19.9882 55.1465C23.7095 54.2393 26.9929 52.2731 29.3352 49.5495C31.6775 46.8259 32.9493 43.4951 32.9555 40.068H35.4544C33.4833 38.0486 31.7393 35.8629 30.2471 33.5421L29.892 33.555C29.0598 33.5835 28.2334 33.6901 27.4266 33.873C24.8456 34.4522 22.5562 35.78 20.9214 37.6458C19.2865 39.5117 18.3998 41.8088 18.4018 44.1731V49.1156C18.4018 49.3953 18.2997 49.6674 18.1108 49.8911L13.9571 54.8092ZM13.0563 42.2718L15.609 36.9802C15.6872 36.8184 15.8018 36.6726 15.9457 36.5515C16.0897 36.4305 16.2599 36.3368 16.4461 36.2763C16.6322 36.2158 16.8303 36.1897 17.0283 36.1996C17.2262 36.2095 17.4197 36.2552 17.597 36.3339L18.1937 36.5989C18.8495 35.7676 19.6109 35.006 20.4626 34.3292L18.8923 32.4706C18.4272 31.92 17.7943 31.4991 17.0686 31.2576C16.3428 31.016 15.5544 30.9639 14.7964 31.1074C14.0383 31.2509 13.3424 31.584 12.7906 32.0674C12.2388 32.5508 11.8543 33.1643 11.6824 33.8355L10 45.5974C11.3495 44.7623 12.4083 43.6079 13.0563 42.2653V42.2718Z"/>
</mask>
<path d="M48.9398 23.2653H40.2324V38.0452C44.3298 33.7511 47.3038 28.7032 48.9398 23.2653ZM37.3216 23.2653H28.6142C30.2502 28.7032 33.2242 33.7511 37.3216 38.0452V23.2653ZM27.1341 13.2767C27.1336 15.7617 27.4022 18.2409 27.936 20.6803H37.3216V11.6327H27.1341V13.2767ZM38.777 0.182245C37.528 0.852287 36.4813 1.78215 35.7273 2.89161C34.9732 4.00107 34.5344 5.2568 34.4487 6.55048C36.6318 4.82579 39.4529 3.87443 42.3747 3.87755H42.398C41.6564 2.33948 40.3899 1.04695 38.777 0.182245ZM43.1431 7.07265C43.1431 6.86585 43.1155 6.66551 43.0994 6.46258H42.3718C41.1198 6.45931 39.8808 6.68744 38.7335 7.13248C37.5862 7.57752 36.5557 8.22973 35.7076 9.04762H43.1431V7.07265ZM50.42 11.6327H40.2324V20.6803H49.618C50.1519 18.2409 50.4204 15.7617 50.42 13.2767V11.6327ZM78.072 0.784558V0H77.1886L58.3372 15.5438L60.5697 17.5265L78.072 0.784558ZM59.1522 22.7302L60.7327 21.3265L59.5786 20.3016L55.2125 16.424L54.0584 15.399L53.2055 16.1565C53.175 16.5584 53.1502 16.9604 53.1066 17.3611L59.1522 22.7302ZM52.603 25.8503C53.182 25.8503 53.7373 25.6461 54.1467 25.2825C54.5561 24.9189 54.7861 24.4258 54.7861 23.9116C54.7861 23.3974 54.5561 22.9042 54.1467 22.5406C53.7373 22.177 53.182 21.9728 52.603 21.9728H52.2843C51.967 23.2851 51.5789 24.5776 51.12 25.8503H52.603ZM72.7686 18.1702L59.5393 29.9192L64.3522 29.7499L77.8114 17.7915C78.4794 17.1957 79.3481 16.81 80.2856 16.6929L83.8934 16.2353C82.6617 15.7682 81.3382 15.5218 79.9989 15.5102C77.2885 15.5172 74.6906 16.473 72.7686 18.1702ZM76.2615 54.5778L82.978 56.9625C83.1651 57.0288 83.3347 57.1288 83.476 57.2563C83.6173 57.3838 83.7273 57.5359 83.7989 57.7031C83.8706 57.8703 83.9025 58.0488 83.8924 58.2275C83.8824 58.4061 83.8307 58.581 83.7406 58.741L80.8299 63.9111C80.7155 64.1118 80.5452 64.2831 80.3351 64.4087L77.1231 66.3061L79.4124 69.6951L81.2039 66.5258L87.1229 58.1154C87.3099 57.8482 87.3806 57.5295 87.322 57.2193C87.2633 56.909 87.0792 56.6283 86.8042 56.43L75.1874 47.9899C75.0228 47.8703 74.8896 47.7202 74.7973 47.55C74.7051 47.3799 74.6559 47.1938 74.6533 47.005C74.6516 46.8168 74.6962 46.6307 74.7839 46.4594C74.8717 46.2882 75.0004 46.1361 75.1612 46.0136C76.7551 44.7972 77.8845 43.1713 78.3936 41.3605L82.1077 28.1601C80.939 27.8274 79.919 27.1746 79.194 26.2953C78.4689 25.4159 78.0761 24.3552 78.072 23.2653H80.9827C80.9827 23.9509 81.2894 24.6084 81.8352 25.0932C82.3811 25.578 83.1215 25.8503 83.8934 25.8503V25.8646C84.1625 25.8618 84.4271 25.9259 84.6573 26.0497C84.8875 26.1735 85.0741 26.352 85.196 26.5651L88.4327 32.3129C88.5897 32.5907 88.8542 32.8089 89.1776 32.9276C89.501 33.0463 89.8617 33.0575 90.1937 32.9592L91 32.7214L88.7151 19.5248C88.6555 19.1891 88.4495 18.8877 88.1417 18.6859C87.8358 18.4838 87.4521 18.3978 87.0749 18.4468L80.6916 19.2585C80.3788 19.2967 80.0889 19.4253 79.8664 19.6243L66.0055 31.9394C65.7468 32.1691 65.4002 32.3038 65.0348 32.3168L51.331 32.8015L61.1446 36.2913C61.3222 36.3542 61.4841 36.4476 61.621 36.5661C61.7579 36.6846 61.8672 36.8259 61.9426 36.982C62.0181 37.138 62.0581 37.3057 62.0605 37.4755C62.0629 37.6453 62.0276 37.8139 61.9567 37.9716L56.7494 49.5331C58.8037 49.6997 60.872 49.6732 62.9201 49.4543C62.4195 48.97 61.9373 48.4707 61.4735 47.9563L60.9248 47.3475L63.1952 45.7318L63.7453 46.3406C67.0479 49.9988 71.3595 52.8364 76.2615 54.5778ZM56.2414 72.3809H60.1986L59.1958 68.8162C59.1317 68.5911 59.1377 68.3547 59.2133 68.1324L63.5299 55.3533L63.7409 51.9385C62.7008 52.0652 61.6564 52.1466 60.6075 52.1828V54.2857C60.6075 54.4005 60.5903 54.5148 60.5566 54.6256L56.2414 68.6766V72.3809ZM57.0899 55.427C57.2947 55.0356 57.3421 54.5936 57.2243 54.1749C57.1064 53.7562 56.8304 53.3861 56.4423 53.1263L53.9128 51.4422C53.6568 51.2717 53.4711 51.0311 53.3845 50.7575C53.298 50.4839 53.3154 50.1926 53.434 49.9286L58.7156 38.2029L46.9897 34.0384C46.2445 35.1586 45.4368 36.2512 44.5665 37.3162L51.0705 40.1973C51.3973 40.3421 51.6508 40.5908 51.7808 40.8939C51.9107 41.197 51.9076 41.5324 51.772 41.8336L46.5851 53.3473L57.0899 55.427ZM43.1635 46.5306C43.3055 46.5309 43.4467 46.5496 43.5826 46.5862L46.1848 47.2829L48.5702 41.9835L42.7487 39.3985C41.8231 40.3899 40.8451 41.3515 39.806 42.2731C39.533 42.5154 39.1629 42.6515 38.777 42.6515C38.3911 42.6515 38.021 42.5154 37.7481 42.2731C37.0888 41.6888 36.4615 41.0839 35.8473 40.4713C35.7947 42.5442 35.3418 44.5937 34.5084 46.5306H43.1635ZM38.4699 69.0023C38.6688 69.2291 38.7769 69.5084 38.777 69.7959V72.3809H44.0338L43.2959 70.415L33.2626 58.9569C33.1008 58.7723 32.9984 58.5522 32.9664 58.32C32.9343 58.0878 32.9738 57.8523 33.0807 57.6385L37.3464 49.1156H33.1258C32.2081 50.5313 31.0825 51.8322 29.7785 52.9841L28.684 57.8363L38.4699 69.0023ZM13.9571 54.8092L11.125 69.9032V72.3809H14.9264L14.1114 70.2043C14.0299 69.9914 14.0139 69.7629 14.0648 69.5426L16.9756 56.6174C17.0283 56.3822 17.1537 56.1646 17.3378 55.9891C17.5218 55.8136 17.7572 55.687 18.0176 55.6235L19.9882 55.1465C23.7095 54.2393 26.9929 52.2731 29.3352 49.5495C31.6775 46.8259 32.9493 43.4951 32.9555 40.068H35.4544C33.4833 38.0486 31.7393 35.8629 30.2471 33.5421L29.892 33.555C29.0598 33.5835 28.2334 33.6901 27.4266 33.873C24.8456 34.4522 22.5562 35.78 20.9214 37.6458C19.2865 39.5117 18.3998 41.8088 18.4018 44.1731V49.1156C18.4018 49.3953 18.2997 49.6674 18.1108 49.8911L13.9571 54.8092ZM13.0563 42.2718L15.609 36.9802C15.6872 36.8184 15.8018 36.6726 15.9457 36.5515C16.0897 36.4305 16.2599 36.3368 16.4461 36.2763C16.6322 36.2158 16.8303 36.1897 17.0283 36.1996C17.2262 36.2095 17.4197 36.2552 17.597 36.3339L18.1937 36.5989C18.8495 35.7676 19.6109 35.006 20.4626 34.3292L18.8923 32.4706C18.4272 31.92 17.7943 31.4991 17.0686 31.2576C16.3428 31.016 15.5544 30.9639 14.7964 31.1074C14.0383 31.2509 13.3424 31.584 12.7906 32.0674C12.2388 32.5508 11.8543 33.1643 11.6824 33.8355L10 45.5974C11.3495 44.7623 12.4083 43.6079 13.0563 42.2653V42.2718Z" stroke="#E3E3E3" stroke-width="3.30435" mask="url(#path-1-inside-1)"/>
<path d="M11.9732 83H12.9932V97H11.9732V83ZM27.6516 86.48C28.9583 86.48 29.9916 86.86 30.7516 87.62C31.5116 88.38 31.8916 89.4733 31.8916 90.9V97H30.8916V90.98C30.8916 89.8067 30.5916 88.9133 29.9916 88.3C29.405 87.6867 28.5783 87.38 27.5116 87.38C26.285 87.38 25.3183 87.7467 24.6116 88.48C23.905 89.2133 23.5516 90.2 23.5516 91.44V97H22.5516V86.56H23.5116V88.82C23.8716 88.0867 24.405 87.5133 25.1116 87.1C25.8316 86.6867 26.6783 86.48 27.6516 86.48ZM45.9687 92.16V97H44.5087V92.16L38.9087 83H40.4887L45.2887 90.86L50.0887 83H51.5687L45.9687 92.16ZM63.811 83C65.5977 83 66.9977 83.4267 68.011 84.28C69.0243 85.1333 69.531 86.3067 69.531 87.8C69.531 89.2933 69.0243 90.4667 68.011 91.32C66.9977 92.16 65.5977 92.58 63.811 92.58H60.051V97H58.571V83H63.811ZM63.771 91.28C65.1577 91.28 66.2177 90.98 66.951 90.38C67.6843 89.7667 68.051 88.9067 68.051 87.8C68.051 86.6667 67.6843 85.8 66.951 85.2C66.2177 84.5867 65.1577 84.28 63.771 84.28H60.051V91.28H63.771ZM79.9824 84.28H75.0624V83H86.3824V84.28H81.4624V97H79.9824V84.28Z" fill="#E3E3E3"/>
</svg>
