<svg width="922" height="538" viewBox="0 0 922 538" fill="none" xmlns="http://www.w3.org/2000/svg">
<g clip-path="url(#clip0)">
<path d="M0 537.833H922V0.00018543H0V537.833Z" fill="#6B5465"/>
<path d="M471.803 295.73V277.782C471.803 277.406 471.803 277.301 471.803 277.301V274.594H446.172V277.301C446.172 277.301 446.172 277.406 446.172 277.782V295.73C446.172 315.488 435.031 319.991 435.031 319.991H482.944C482.944 319.991 471.803 315.488 471.803 295.73Z" fill="#F8D43F"/>
<path d="M512.343 393.672H405.634V383.208H512.343V393.672Z" fill="#2A2F3F"/>
<path d="M505.979 376.886H411.998C408.484 376.886 405.634 379.716 405.634 383.208H512.343C512.343 379.716 509.494 376.886 505.979 376.886Z" fill="#40465A"/>
<path d="M494.948 333.217H423.029C416.937 333.217 411.998 338.12 411.998 344.169V376.886H505.979V344.169C505.979 338.12 501.04 333.217 494.948 333.217" fill="#2A2F3F"/>
<path d="M482.944 319.991H435.031V327.165H482.944V319.991" fill="#F7B415"/>
<path d="M540.427 196.031C540.427 210.642 530.979 223.101 517.831 227.703C518.905 223.222 519.475 218.547 519.475 213.741V180.426H540.427V196.031ZM377.549 196.031V180.426H398.501V213.741C398.501 218.547 399.071 223.222 400.145 227.703C386.997 223.101 377.549 210.642 377.549 196.031V196.031ZM519.475 169.278V155.812H398.501V169.278H366.323V196.031C366.323 202.065 367.514 207.922 369.864 213.44C372.133 218.765 375.379 223.547 379.513 227.653C383.648 231.757 388.463 234.981 393.826 237.233C397.33 238.706 400.971 239.718 404.705 240.266C414.571 260.135 435.171 273.802 458.988 273.802C482.805 273.802 503.405 260.135 513.27 240.266C517.006 239.718 520.646 238.706 524.15 237.233C529.513 234.981 534.328 231.757 538.463 227.653C542.597 223.547 545.843 218.765 548.112 213.44C550.462 207.922 551.653 202.065 551.653 196.031V169.278H519.475" fill="#F8D43F"/>
<path d="M500.984 155.812V207.359C500.984 240.53 473.904 267.422 440.497 267.422C436.964 267.422 433.501 267.119 430.134 266.542C438.71 271.173 448.539 273.802 458.987 273.802C492.393 273.802 519.474 246.912 519.474 213.741V155.812H500.984Z" fill="#F7B415"/>
<path d="M442.699 269.082V273.851C442.699 275.757 444.254 277.301 446.172 277.301H471.803C473.721 277.301 475.276 275.757 475.276 273.851V269.082H442.699Z" fill="#F7B415"/>
<path d="M522.561 144H395.415C392.129 144 389.466 146.645 389.466 149.906C389.466 153.168 392.129 155.812 395.415 155.812H522.561C525.847 155.812 528.51 153.168 528.51 149.906C528.51 146.645 525.847 144 522.561 144Z" fill="#F8D43F"/>
<path d="M406.137 148.201H396.388C395.44 148.201 394.672 148.965 394.672 149.905C394.672 150.847 395.44 151.611 396.388 151.611H406.137C407.085 151.611 407.854 150.847 407.854 149.905C407.854 148.965 407.085 148.201 406.137 148.201Z" fill="#6B5465"/>
<path d="M418.2 148.201H414.79C413.841 148.201 413.073 148.965 413.073 149.905C413.073 150.847 413.841 151.611 414.79 151.611H418.2C419.149 151.611 419.916 150.847 419.916 149.905C419.916 148.965 419.149 148.201 418.2 148.201Z" fill="#6B5465"/>
<path d="M486.988 327.164H430.989C427.621 327.164 424.893 329.874 424.893 333.217H493.084C493.084 329.874 490.355 327.164 486.988 327.164Z" fill="#F8D43F"/>
<path d="M494.063 336.242V346.99C494.063 359.124 484.156 368.959 471.937 368.959H411.998V344.168C411.998 338.12 416.937 333.217 423.028 333.217H493.636C493.914 334.179 494.063 335.194 494.063 336.242" fill="#40465A"/>
<path d="M398.501 162.482H500.985V155.812H398.501V162.482Z" fill="#DCBD3A"/>
<path d="M500.984 162.482H519.474V155.812H500.984V162.482Z" fill="#DDA314"/>
<path d="M482.32 361.222V348.881C480.448 348.881 478.93 347.374 478.93 345.515H439.046C439.046 347.374 437.528 348.881 435.656 348.881V361.222C437.528 361.222 439.046 362.73 439.046 364.589H478.93C478.93 362.73 480.448 361.222 482.32 361.222Z" fill="#F8D43F"/>
<path d="M480.537 355.051C480.537 355.736 479.979 356.29 479.289 356.29C478.601 356.29 478.043 355.736 478.043 355.051C478.043 354.368 478.601 353.812 479.289 353.812C479.979 353.812 480.537 354.368 480.537 355.051Z" fill="#F7B415"/>
<path d="M439.948 355.051C439.948 355.736 439.389 356.29 438.701 356.29C438.012 356.29 437.453 355.736 437.453 355.051C437.453 354.368 438.012 353.812 438.701 353.812C439.389 353.812 439.948 354.368 439.948 355.051Z" fill="#F7B415"/>
<path d="M707.207 295.73V277.782C707.207 277.406 707.207 277.301 707.207 277.301V274.594H681.576V277.301C681.576 277.301 681.576 277.406 681.576 277.782V295.73C681.576 315.488 670.436 319.991 670.436 319.991H718.349C718.349 319.991 707.207 315.488 707.207 295.73Z" fill="#B5B7C4"/>
<path d="M747.748 393.672H641.037V383.208H747.748V393.672Z" fill="#2A2F3F"/>
<path d="M741.382 376.886H647.403C643.887 376.886 641.037 379.716 641.037 383.208H747.748C747.748 379.716 744.897 376.886 741.382 376.886" fill="#40465A"/>
<path d="M730.353 333.217H658.433C652.341 333.217 647.403 338.12 647.403 344.169V376.886H741.382V344.169C741.382 338.12 736.443 333.217 730.353 333.217" fill="#2A2F3F"/>
<path d="M718.349 319.991H670.436V327.165H718.349V319.991Z" fill="#999EAE"/>
<path d="M775.831 196.031C775.831 210.642 766.383 223.101 753.235 227.703C754.309 223.222 754.879 218.547 754.879 213.741V180.426H775.831V196.031ZM612.953 196.031V180.426H633.905V213.741C633.905 218.547 634.475 223.222 635.549 227.703C622.401 223.101 612.953 210.642 612.953 196.031ZM754.879 169.278V155.812H633.905V169.278H601.728V196.031C601.728 202.065 602.918 207.922 605.269 213.44C607.537 218.765 610.783 223.547 614.917 227.653C619.052 231.757 623.867 234.981 629.23 237.233C632.735 238.706 636.375 239.718 640.11 240.266C649.975 260.135 670.575 273.802 694.392 273.802C718.209 273.802 738.809 260.135 748.675 240.266C752.411 239.718 756.051 238.706 759.554 237.233C764.917 234.981 769.732 231.757 773.867 227.653C778.001 223.547 781.247 218.765 783.516 213.44C785.866 207.922 787.057 202.065 787.057 196.031V169.278H754.879Z" fill="#B5B7C4"/>
<path d="M736.39 155.812V207.359C736.39 240.53 709.309 267.422 675.904 267.422C672.37 267.422 668.906 267.119 665.539 266.542C674.115 271.173 683.944 273.802 694.392 273.802C727.798 273.802 754.88 246.912 754.88 213.741V155.812H736.39Z" fill="#999EAE"/>
<path d="M678.104 269.082V273.851C678.104 275.757 679.658 277.301 681.576 277.301H707.207C709.125 277.301 710.68 275.757 710.68 273.851V269.082H678.104Z" fill="#999EAE"/>
<path d="M757.968 144H630.819C627.534 144 624.872 146.645 624.872 149.906C624.872 153.168 627.534 155.812 630.819 155.812H757.968C761.252 155.812 763.915 153.168 763.915 149.906C763.915 146.645 761.252 144 757.968 144Z" fill="#B5B7C4"/>
<path d="M641.542 148.201H631.793C630.844 148.201 630.076 148.965 630.076 149.905C630.076 150.847 630.844 151.611 631.793 151.611H641.542C642.49 151.611 643.259 150.847 643.259 149.905C643.259 148.965 642.49 148.201 641.542 148.201Z" fill="#6B5465"/>
<path d="M653.604 148.201H650.194C649.247 148.201 648.478 148.965 648.478 149.905C648.478 150.847 649.247 151.611 650.194 151.611H653.604C654.553 151.611 655.321 150.847 655.321 149.905C655.321 148.965 654.553 148.201 653.604 148.201Z" fill="#6B5465"/>
<path d="M722.392 327.164H666.393C663.027 327.164 660.297 329.874 660.297 333.217H728.488C728.488 329.874 725.759 327.164 722.392 327.164Z" fill="#B5B7C4"/>
<path d="M729.467 336.242V346.99C729.467 359.124 719.561 368.959 707.341 368.959H647.403V344.168C647.403 338.12 652.341 333.217 658.431 333.217H729.04C729.318 334.179 729.467 335.194 729.467 336.242" fill="#40465A"/>
<path d="M633.906 162.482H736.39V155.812H633.906V162.482Z" fill="#A0A2AE"/>
<path d="M736.39 162.482H754.88V155.812H736.39V162.482Z" fill="#888D9D"/>
<path d="M717.724 361.222V348.881C715.852 348.881 714.334 347.374 714.334 345.515H674.45C674.45 347.374 672.933 348.881 671.061 348.881V361.222C672.933 361.222 674.45 362.73 674.45 364.589H714.334C714.334 362.73 715.852 361.222 717.724 361.222Z" fill="#B5B7C4"/>
<path d="M715.941 355.051C715.941 355.736 715.383 356.29 714.695 356.29C714.005 356.29 713.447 355.736 713.447 355.051C713.447 354.368 714.005 353.812 714.695 353.812C715.383 353.812 715.941 354.368 715.941 355.051Z" fill="#999EAE"/>
<path d="M675.353 355.051C675.353 355.736 674.795 356.29 674.105 356.29C673.417 356.29 672.857 355.736 672.857 355.051C672.857 354.368 673.417 353.812 674.105 353.812C674.795 353.812 675.353 354.368 675.353 355.051Z" fill="#999EAE"/>
<path d="M239.48 295.73V277.782C239.48 277.406 239.48 277.301 239.48 277.301V274.594H213.85V277.301C213.85 277.301 213.85 277.406 213.85 277.782V295.73C213.85 315.488 202.708 319.991 202.708 319.991H250.622C250.622 319.991 239.48 315.488 239.48 295.73" fill="#EC6C26"/>
<path d="M280.02 393.672H173.31V383.208H280.02V393.672Z" fill="#2A2F3F"/>
<path d="M273.654 376.886H179.675C176.16 376.886 173.31 379.716 173.31 383.208H280.02C280.02 379.716 277.17 376.886 273.654 376.886" fill="#40465A"/>
<path d="M262.625 333.217H190.705C184.613 333.217 179.676 338.12 179.676 344.169V376.886H273.655V344.169C273.655 338.12 268.717 333.217 262.625 333.217" fill="#2A2F3F"/>
<path d="M250.622 319.991H202.708V327.165H250.622V319.991Z" fill="#E84E1D"/>
<path d="M308.105 196.031C308.105 210.642 298.655 223.101 285.508 227.703C286.583 223.222 287.152 218.547 287.152 213.741V180.426H308.105V196.031ZM145.226 196.031V180.426H166.178V213.741C166.178 218.547 166.748 223.222 167.822 227.703C154.675 223.101 145.226 210.642 145.226 196.031ZM287.152 169.278V155.812H166.178V169.278H134V196.031C134 202.065 135.191 207.922 137.541 213.44C139.81 218.765 143.056 223.547 147.191 227.653C151.324 231.757 156.14 234.981 161.504 237.233C165.007 238.706 168.647 239.718 172.383 240.266C182.247 260.135 202.849 273.802 226.664 273.802H226.666C250.482 273.802 271.083 260.135 280.947 240.266C284.683 239.718 288.323 238.706 291.826 237.233C297.189 234.981 302.006 231.757 306.14 227.653C310.273 223.547 313.521 218.765 315.789 213.44C318.139 207.922 319.331 202.065 319.331 196.031V169.278H287.152Z" fill="#EC6C26"/>
<path d="M268.662 155.812V207.359C268.662 240.53 241.581 267.422 208.175 267.422C204.641 267.422 201.179 267.119 197.811 266.542C206.387 271.173 216.216 273.802 226.664 273.802H226.665C260.071 273.802 287.151 246.912 287.151 213.741V155.812H268.662Z" fill="#E84E1D"/>
<path d="M210.377 269.082V273.851C210.377 275.757 211.932 277.301 213.85 277.301H239.479C241.397 277.301 242.952 275.757 242.952 273.851V269.082H210.377" fill="#E84E1D"/>
<path d="M290.239 144H163.091C159.806 144 157.144 146.645 157.144 149.906C157.144 153.168 159.806 155.812 163.091 155.812H290.239C293.525 155.812 296.187 153.168 296.187 149.906C296.187 146.645 293.525 144 290.239 144" fill="#EC6C26"/>
<path d="M173.814 148.201H164.065C163.116 148.201 162.348 148.965 162.348 149.905C162.348 150.847 163.116 151.611 164.065 151.611H173.814C174.762 151.611 175.531 150.847 175.531 149.905C175.531 148.965 174.762 148.201 173.814 148.201Z" fill="#6B5465"/>
<path d="M185.875 148.201H182.466C181.518 148.201 180.749 148.965 180.749 149.905C180.749 150.847 181.518 151.611 182.466 151.611H185.875C186.824 151.611 187.593 150.847 187.593 149.905C187.593 148.965 186.824 148.201 185.875 148.201Z" fill="#6B5465"/>
<path d="M254.664 327.164H198.664C195.298 327.164 192.569 329.874 192.569 333.217H260.759C260.759 329.874 258.03 327.164 254.664 327.164" fill="#EC6C26"/>
<path d="M261.739 336.242V346.99C261.739 359.124 251.834 368.959 239.615 368.959H179.676V344.168C179.676 338.12 184.613 333.217 190.705 333.217H261.314C261.591 334.179 261.739 335.194 261.739 336.242" fill="#40465A"/>
<path d="M166.178 162.482H268.662V155.812H166.178V162.482Z" fill="#D56221"/>
<path d="M268.661 162.482H287.15V155.812H268.661V162.482Z" fill="#D04720"/>
<path d="M249.997 361.222V348.881C248.125 348.881 246.606 347.374 246.606 345.515H206.722C206.722 347.374 205.204 348.881 203.332 348.881V361.222C205.204 361.222 206.722 362.73 206.722 364.589H246.606C246.606 362.73 248.125 361.222 249.997 361.222Z" fill="#EC6C26"/>
<path d="M248.214 355.051C248.214 355.736 247.655 356.29 246.966 356.29C246.278 356.29 245.719 355.736 245.719 355.051C245.719 354.368 246.278 353.812 246.966 353.812C247.655 353.812 248.214 354.368 248.214 355.051Z" fill="#E84E1D"/>
<path d="M207.624 355.051C207.624 355.736 207.066 356.29 206.377 356.29C205.688 356.29 205.13 355.736 205.13 355.051C205.13 354.368 205.688 353.812 206.377 353.812C207.066 353.812 207.624 354.368 207.624 355.051Z" fill="#E84E1D"/>
</g>
<defs>
<clipPath id="clip0">
<rect width="922" height="537.833" fill="white"/>
</clipPath>
</defs>
</svg>
