<svg width="456" height="356" viewBox="0 0 456 356" fill="none" xmlns="http://www.w3.org/2000/svg">
<path d="M367.9 334.576C361.516 334.576 356.348 329.408 356.348 323.024V232.432H379.452V323.024C379.452 329.408 374.284 334.576 367.9 334.576Z" fill="white"/>
<path d="M381.276 222.704H354.524C351.849 222.704 349.66 224.893 349.66 227.568C349.66 230.243 351.849 232.432 354.524 232.432H381.276C383.951 232.432 386.14 230.243 386.14 227.568C386.14 224.893 383.951 222.704 381.276 222.704Z" fill="#D8D8D8"/>
<path d="M367.9 334.576C361.516 334.576 356.348 329.408 356.348 323.024V232.432H379.452V323.024C379.452 329.408 374.284 334.576 367.9 334.576Z" stroke="#133B4F" stroke-width="2.432" stroke-miterlimit="10" stroke-linecap="round" stroke-linejoin="round"/>
<path d="M381.276 222.704H354.524C351.849 222.704 349.66 224.893 349.66 227.568C349.66 230.243 351.849 232.432 354.524 232.432H381.276C383.951 232.432 386.14 230.243 386.14 227.568C386.14 224.893 383.951 222.704 381.276 222.704Z" stroke="#133B4F" stroke-width="2.432" stroke-miterlimit="10" stroke-linecap="round" stroke-linejoin="round"/>
<path d="M361.819 290.192V323.024C361.819 326.368 364.555 329.104 367.899 329.104C371.243 329.104 373.979 326.368 373.979 323.024V290.192H361.819Z" fill="#EC1CE4"/>
<path d="M361.819 290.192V323.024C361.819 326.368 364.555 329.104 367.899 329.104C371.243 329.104 373.979 326.368 373.979 323.024V290.192H361.819Z" stroke="#133B4F" stroke-width="2.432" stroke-miterlimit="10" stroke-linecap="round" stroke-linejoin="round"/>
<path d="M356.348 200.877C357.624 200.877 358.658 199.843 358.658 198.567C358.658 197.291 357.624 196.256 356.348 196.256C355.072 196.256 354.037 197.291 354.037 198.567C354.037 199.843 355.072 200.877 356.348 200.877Z" fill="#EC1CE4"/>
<path d="M364.799 211.152C365.874 211.152 366.745 210.281 366.745 209.207C366.745 208.132 365.874 207.261 364.799 207.261C363.725 207.261 362.854 208.132 362.854 209.207C362.854 210.281 363.725 211.152 364.799 211.152Z" fill="#EC1CE4"/>
<path d="M374.891 183.488C377.309 183.488 379.269 181.528 379.269 179.11C379.269 176.693 377.309 174.733 374.891 174.733C372.474 174.733 370.514 176.693 370.514 179.11C370.514 181.528 372.474 183.488 374.891 183.488Z" fill="#EC1CE4"/>
<path d="M372.338 200.877C374.42 200.877 376.108 199.189 376.108 197.107C376.108 195.025 374.42 193.338 372.338 193.338C370.256 193.338 368.568 195.025 368.568 197.107C368.568 199.189 370.256 200.877 372.338 200.877Z" fill="#EC1CE4"/>
<path d="M356.348 200.877C357.624 200.877 358.658 199.843 358.658 198.567C358.658 197.291 357.624 196.256 356.348 196.256C355.072 196.256 354.037 197.291 354.037 198.567C354.037 199.843 355.072 200.877 356.348 200.877Z" stroke="#133B4F" stroke-width="2.432" stroke-miterlimit="10" stroke-linecap="round" stroke-linejoin="round"/>
<path d="M364.799 211.152C365.874 211.152 366.745 210.281 366.745 209.207C366.745 208.132 365.874 207.261 364.799 207.261C363.725 207.261 362.854 208.132 362.854 209.207C362.854 210.281 363.725 211.152 364.799 211.152Z" stroke="#133B4F" stroke-width="2.432" stroke-miterlimit="10" stroke-linecap="round" stroke-linejoin="round"/>
<path d="M363.645 190.237C364.35 190.237 364.922 189.665 364.922 188.96C364.922 188.255 364.35 187.683 363.645 187.683C362.94 187.683 362.368 188.255 362.368 188.96C362.368 189.665 362.94 190.237 363.645 190.237Z" stroke="#133B4F" stroke-width="2.432" stroke-miterlimit="10" stroke-linecap="round" stroke-linejoin="round"/>
<path d="M374.891 183.488C377.309 183.488 379.269 181.528 379.269 179.11C379.269 176.693 377.309 174.733 374.891 174.733C372.474 174.733 370.514 176.693 370.514 179.11C370.514 181.528 372.474 183.488 374.891 183.488Z" stroke="#133B4F" stroke-width="2.432" stroke-miterlimit="10" stroke-linecap="round" stroke-linejoin="round"/>
<path d="M372.338 200.877C374.42 200.877 376.108 199.189 376.108 197.107C376.108 195.025 374.42 193.338 372.338 193.338C370.256 193.338 368.568 195.025 368.568 197.107C368.568 199.189 370.256 200.877 372.338 200.877Z" stroke="#133B4F" stroke-width="2.432" stroke-miterlimit="10" stroke-linecap="round" stroke-linejoin="round"/>
<path d="M365.772 270.493C368.19 270.493 370.15 268.533 370.15 266.115C370.15 263.698 368.19 261.738 365.772 261.738C363.354 261.738 361.395 263.698 361.395 266.115C361.395 268.533 363.354 270.493 365.772 270.493Z" fill="#EC1CE4"/>
<path d="M365.772 270.493C368.19 270.493 370.15 268.533 370.15 266.115C370.15 263.698 368.19 261.738 365.772 261.738C363.354 261.738 361.395 263.698 361.395 266.115C361.395 268.533 363.354 270.493 365.772 270.493Z" stroke="#133B4F" stroke-width="2.432" stroke-miterlimit="10" stroke-linecap="round" stroke-linejoin="round"/>
<path d="M369.542 283.018C370.583 283.018 371.427 282.174 371.427 281.133C371.427 280.092 370.583 279.248 369.542 279.248C368.501 279.248 367.657 280.092 367.657 281.133C367.657 282.174 368.501 283.018 369.542 283.018Z" fill="#EC1CE4"/>
<path d="M369.542 283.018C370.583 283.018 371.427 282.174 371.427 281.133C371.427 280.092 370.583 279.248 369.542 279.248C368.501 279.248 367.657 280.092 367.657 281.133C367.657 282.174 368.501 283.018 369.542 283.018Z" stroke="#133B4F" stroke-width="2.432" stroke-miterlimit="10" stroke-linecap="round" stroke-linejoin="round"/>
<path d="M372.033 243.558C373.477 243.558 374.648 242.388 374.648 240.944C374.648 239.5 373.477 238.33 372.033 238.33C370.589 238.33 369.419 239.5 369.419 240.944C369.419 242.388 370.589 243.558 372.033 243.558Z" fill="#EC1CE4"/>
<path d="M372.033 243.558C373.477 243.558 374.648 242.388 374.648 240.944C374.648 239.5 373.477 238.33 372.033 238.33C370.589 238.33 369.419 239.5 369.419 240.944C369.419 242.388 370.589 243.558 372.033 243.558Z" stroke="#133B4F" stroke-width="2.432" stroke-miterlimit="10" stroke-linecap="round" stroke-linejoin="round"/>
<path d="M362.854 237.843C363.391 237.843 363.826 237.408 363.826 236.871C363.826 236.333 363.391 235.898 362.854 235.898C362.316 235.898 361.881 236.333 361.881 236.871C361.881 237.408 362.316 237.843 362.854 237.843Z" fill="#67CC70"/>
<path d="M362.854 237.843C363.391 237.843 363.826 237.408 363.826 236.871C363.826 236.333 363.391 235.898 362.854 235.898C362.316 235.898 361.881 236.333 361.881 236.871C361.881 237.408 362.316 237.843 362.854 237.843Z" stroke="#133B4F" stroke-width="2.432" stroke-miterlimit="10" stroke-linecap="round" stroke-linejoin="round"/>
<path d="M368.63 300.65C369.167 300.65 369.603 300.214 369.603 299.677C369.603 299.14 369.167 298.704 368.63 298.704C368.093 298.704 367.657 299.14 367.657 299.677C367.657 300.214 368.093 300.65 368.63 300.65Z" fill="#133B4F"/>
<path d="M363.4 311.472C364.273 311.472 364.981 310.764 364.981 309.891C364.981 309.018 364.273 308.31 363.4 308.31C362.527 308.31 361.819 309.018 361.819 309.891C361.819 310.764 362.527 311.472 363.4 311.472Z" fill="#133B4F"/>
<path d="M370.514 320.106C371.79 320.106 372.825 319.071 372.825 317.795C372.825 316.519 371.79 315.485 370.514 315.485C369.238 315.485 368.204 316.519 368.204 317.795C368.204 319.071 369.238 320.106 370.514 320.106Z" fill="#133B4F"/>
<path d="M367.109 297.184C367.31 297.184 367.474 297.021 367.474 296.819C367.474 296.618 367.31 296.454 367.109 296.454C366.907 296.454 366.744 296.618 366.744 296.819C366.744 297.021 366.907 297.184 367.109 297.184Z" fill="#133B4F"/>
<path d="M267.277 253.712C265.939 253.712 264.845 252.618 264.845 251.28V133.024C264.845 123.114 256.819 115.088 246.909 115.088C236.998 115.088 228.973 123.114 228.973 133.024V159.898C228.973 182.454 210.611 200.816 188.054 200.816C165.498 200.816 147.136 182.454 147.136 159.898V101.773C147.136 88.0321 135.949 76.8449 122.208 76.8449C108.467 76.8449 97.28 88.0321 97.28 101.773V126.64C97.28 127.978 96.1856 129.072 94.848 129.072C93.5104 129.072 92.416 127.978 92.416 126.64V101.773C92.416 85.3569 105.792 71.9809 122.208 71.9809C138.624 71.9809 152 85.3569 152 101.773V159.898C152 179.779 168.173 195.952 188.054 195.952C207.936 195.952 224.109 179.779 224.109 159.898V133.024C224.109 120.438 234.323 110.224 246.909 110.224C259.494 110.224 269.709 120.438 269.709 133.024V251.28C269.709 252.618 268.614 253.712 267.277 253.712Z" fill="white"/>
<path d="M267.277 253.712C265.939 253.712 264.845 252.618 264.845 251.28V133.024C264.845 123.114 256.819 115.088 246.909 115.088C236.998 115.088 228.973 123.114 228.973 133.024V159.898C228.973 182.454 210.611 200.816 188.054 200.816C165.498 200.816 147.136 182.454 147.136 159.898V101.773C147.136 88.0321 135.949 76.8449 122.208 76.8449C108.467 76.8449 97.28 88.0321 97.28 101.773V126.64C97.28 127.978 96.1856 129.072 94.848 129.072C93.5104 129.072 92.416 127.978 92.416 126.64V101.773C92.416 85.3569 105.792 71.9809 122.208 71.9809C138.624 71.9809 152 85.3569 152 101.773V159.898C152 179.779 168.173 195.952 188.054 195.952C207.936 195.952 224.109 179.779 224.109 159.898V133.024C224.109 120.438 234.323 110.224 246.909 110.224C259.494 110.224 269.709 120.438 269.709 133.024V251.28C269.709 252.618 268.614 253.712 267.277 253.712Z" stroke="#133B4F" stroke-width="2.432" stroke-miterlimit="10" stroke-linecap="round" stroke-linejoin="round"/>
<path d="M183.555 354.64H171.395V8.08C171.395 4.736 174.131 2 177.475 2C180.819 2 183.555 4.736 183.555 8.08V354.64Z" fill="white"/>
<path d="M183.555 354.64H171.395V8.08C171.395 4.736 174.131 2 177.475 2C180.819 2 183.555 4.736 183.555 8.08V354.64Z" stroke="#133B4F" stroke-width="2.432" stroke-miterlimit="10" stroke-linecap="round" stroke-linejoin="round"/>
<path d="M204.774 157.405H187.871V151.325H204.774C206.476 151.325 207.814 152.662 207.814 154.365C207.814 156.006 206.415 157.405 204.774 157.405Z" fill="#6F8699"/>
<path d="M204.774 157.405H187.871V151.325H204.774C206.476 151.325 207.814 152.662 207.814 154.365C207.814 156.006 206.415 157.405 204.774 157.405Z" stroke="#133B4F" stroke-width="2.432" stroke-miterlimit="10" stroke-linecap="round" stroke-linejoin="round"/>
<path d="M417.271 344.304H222.711V354.64H417.271V344.304Z" fill="#DABC95"/>
<path d="M417.271 344.304H222.711V354.64H417.271V344.304Z" stroke="#133B4F" stroke-width="2.432" stroke-miterlimit="10" stroke-linecap="round" stroke-linejoin="round"/>
<path d="M238.639 253.104H232.559V344.304H238.639V253.104Z" fill="#D6D9E2"/>
<path d="M238.639 253.104H232.559V344.304H238.639V253.104Z" stroke="#133B4F" stroke-width="2.432" stroke-miterlimit="10" stroke-linecap="round" stroke-linejoin="round"/>
<path d="M407.481 253.104H401.401V344.304H407.481V253.104Z" fill="#D6D9E2"/>
<path d="M407.481 253.104H401.401V344.304H407.481V253.104Z" stroke="#133B4F" stroke-width="2.432" stroke-miterlimit="10" stroke-linecap="round" stroke-linejoin="round"/>
<path d="M92.051 287.213C92.051 287.213 91.8078 281.558 90.835 278.883C93.6926 280.16 96.3677 285.997 96.3677 285.997L92.051 287.213Z" stroke="#133B4F" stroke-width="2.432" stroke-miterlimit="10"/>
<path d="M207.815 341.264H132.727V354.64H207.815V341.264Z" fill="#6F8699"/>
<path d="M207.815 341.264H132.727V354.64H207.815V341.264Z" stroke="#133B4F" stroke-width="2.432" stroke-miterlimit="10" stroke-linecap="round" stroke-linejoin="round"/>
<path d="M114.365 326.003L101.415 323.814V314.026H106.583C108.65 314.026 110.474 312.445 110.535 310.378C110.595 308.25 108.893 306.486 106.765 306.486H83.1138C81.0466 306.486 79.2226 308.067 79.1618 310.134C79.101 312.262 80.8034 314.026 82.9314 314.026H88.2818V323.814L75.3314 326.003C72.413 326.49 70.4066 329.286 70.893 332.266L74.0546 349.776C74.541 352.634 77.0338 354.701 79.9522 354.701H109.866C112.723 354.701 115.216 352.634 115.763 349.776L118.925 332.266C119.29 329.286 117.344 326.49 114.365 326.003Z" fill="white"/>
<path d="M114.365 326.003L101.415 323.814V314.026H106.583C108.65 314.026 110.474 312.445 110.535 310.378C110.595 308.25 108.893 306.486 106.765 306.486H83.1138C81.0466 306.486 79.2226 308.067 79.1618 310.134C79.101 312.262 80.8034 314.026 82.9314 314.026H88.2818V323.814L75.3314 326.003C72.413 326.49 70.4066 329.286 70.893 332.266L74.0546 349.776C74.541 352.634 77.0338 354.701 79.9522 354.701H109.866C112.723 354.701 115.216 352.634 115.763 349.776L118.925 332.266C119.29 329.286 117.344 326.49 114.365 326.003Z" stroke="#133B4F" stroke-width="2.432" stroke-miterlimit="10" stroke-linecap="round" stroke-linejoin="round"/>
<path d="M104.455 290.8C101.962 282.774 96.9763 278.397 94.8483 276.208C93.6931 285.328 84.1475 288.186 85.1203 296.758C85.9107 303.75 92.5987 305.878 95.8819 305.331C102.752 304.176 106.4 297.002 104.455 290.8Z" fill="#FF815F"/>
<path d="M104.455 290.8C101.962 282.774 96.9763 278.397 94.8483 276.208C93.6931 285.328 84.1475 288.186 85.1203 296.758C85.9107 303.75 92.5987 305.878 95.8819 305.331C102.752 304.176 106.4 297.002 104.455 290.8Z" stroke="#133B4F" stroke-width="2.432" stroke-miterlimit="10"/>
<path d="M98.9224 297.002C97.9496 292.685 95.8824 290.496 94.788 289.341C94.18 294.144 89.1944 295.603 89.6808 300.102C90.1064 303.811 93.6328 304.906 95.3352 304.602C98.9224 303.994 99.4696 299.494 98.9224 297.002Z" fill="#FFBB22"/>
<path d="M99.4696 296.333C98.4968 292.259 95.8824 290.435 94.788 289.28C94.18 294.083 89.1944 295.542 89.6808 300.042C90.1064 303.75 93.6328 304.845 95.3352 304.541C98.9224 303.994 100.078 298.886 99.4696 296.333Z" stroke="#133B4F" stroke-width="2.432" stroke-miterlimit="10"/>
<path d="M77.5801 335.366L79.6473 346.797C79.8297 347.77 80.6809 348.499 81.7145 348.499H107.919C108.953 348.499 109.804 347.77 109.986 346.797L112.054 335.366H77.5801Z" fill="#67CF70"/>
<path d="M77.5801 335.366L79.6473 346.797C79.8297 347.77 80.6809 348.499 81.7145 348.499H107.919C108.953 348.499 109.804 347.77 109.986 346.797L112.054 335.366H77.5801Z" stroke="#133B4F" stroke-width="2.432" stroke-miterlimit="10" stroke-linecap="round" stroke-linejoin="round"/>
<path d="M94.8477 306.486V343.088" stroke="#133B4F" stroke-width="2.432" stroke-miterlimit="10" stroke-linecap="round" stroke-linejoin="round"/>
<path d="M105.186 169.261V133.997H84.5139V169.261C84.5139 171.206 83.2979 172.909 81.4739 173.517C64.1459 179.232 51.7427 195.77 52.2899 215.165C52.8979 237.661 71.3203 255.962 93.8163 256.509C117.771 257.056 137.41 237.782 137.41 213.949C137.41 195.162 125.189 179.171 108.287 173.578C106.402 172.848 105.186 171.146 105.186 169.261Z" fill="white"/>
<path d="M105.186 169.261V133.997H84.5139V169.261C84.5139 171.206 83.2979 172.909 81.4739 173.517C64.1459 179.232 51.7427 195.77 52.2899 215.165C52.8979 237.661 71.3203 255.962 93.8163 256.509C117.771 257.056 137.41 237.782 137.41 213.949C137.41 195.162 125.189 179.171 108.287 173.578C106.402 172.848 105.186 171.146 105.186 169.261Z" stroke="#133B4F" stroke-width="2.432" stroke-miterlimit="10" stroke-linecap="round" stroke-linejoin="round"/>
<path d="M129.81 203.552C128.959 199.843 125.676 197.107 121.785 197.107C119.9 197.107 118.137 197.776 116.738 198.87C115.765 198.202 114.61 197.776 113.333 197.776C112.117 197.776 110.962 198.141 110.05 198.81C110.05 198.627 110.05 198.506 110.05 198.323C110.05 195.101 107.436 192.547 104.274 192.547C103.362 192.547 102.511 192.79 101.721 193.155C99.7142 190.176 96.3094 188.23 92.4182 188.23C86.2166 188.23 81.1702 193.277 81.1702 199.478C81.1702 200.938 81.9606 203.613 81.9606 203.613C81.9606 203.43 81.9606 203.613 81.9606 203.43C81.9606 199.722 78.1302 196.378 74.4822 196.378C70.8342 196.378 67.7942 199.357 67.7942 203.066C67.7942 203.248 67.7942 203.43 67.7942 203.552H59.8294C58.7958 207.139 58.2486 210.97 58.3702 214.922C58.6134 224.224 62.4438 233.04 69.1318 239.667C75.8198 246.294 84.6358 250.125 93.9382 250.307C94.2422 250.307 94.5462 250.307 94.8502 250.307C104.578 250.307 113.759 246.538 120.629 239.606C127.5 232.736 131.33 223.555 131.33 213.827C131.33 210.301 130.783 206.835 129.81 203.552Z" fill="#F6164C"/>
<path d="M129.81 203.552C128.959 199.843 125.676 197.107 121.785 197.107C119.9 197.107 118.137 197.776 116.738 198.87C115.765 198.202 114.61 197.776 113.333 197.776C112.117 197.776 110.962 198.141 110.05 198.81C110.05 198.627 110.05 198.506 110.05 198.323C110.05 195.101 107.436 192.547 104.274 192.547C103.362 192.547 102.511 192.79 101.721 193.155C99.7142 190.176 96.3094 188.23 92.4182 188.23C86.2166 188.23 81.1702 193.277 81.1702 199.478C81.1702 200.938 81.9606 203.613 81.9606 203.613C81.9606 203.43 81.9606 203.613 81.9606 203.43C81.9606 199.722 78.1302 196.378 74.4822 196.378C70.8342 196.378 67.7942 199.357 67.7942 203.066C67.7942 203.248 67.7942 203.43 67.7942 203.552H59.8294C58.7958 207.139 58.2486 210.97 58.3702 214.922C58.6134 224.224 62.4438 233.04 69.1318 239.667C75.8198 246.294 84.6358 250.125 93.9382 250.307C94.2422 250.307 94.5462 250.307 94.8502 250.307C104.578 250.307 113.759 246.538 120.629 239.606C127.5 232.736 131.33 223.555 131.33 213.827C131.33 210.301 130.783 206.835 129.81 203.552Z" stroke="#133B4F" stroke-width="2.432" stroke-miterlimit="10" stroke-linecap="round" stroke-linejoin="round"/>
<path d="M68.9491 206.774C68.2195 205.68 67.7939 204.403 67.7939 203.005C67.7939 199.296 70.7731 196.317 74.4819 196.317C78.1907 196.317 81.9603 198.141 81.9603 203.005" stroke="#133B4F" stroke-width="2.432" stroke-miterlimit="10" stroke-linecap="round" stroke-linejoin="round"/>
<path d="M81.23 200.938C81.1692 200.451 81.1084 199.904 81.1084 199.418C81.1084 193.216 86.1548 188.17 92.3564 188.17C96.2476 188.17 99.6524 190.115 101.659 193.094" stroke="#133B4F" stroke-width="2.432" stroke-miterlimit="10" stroke-linecap="round" stroke-linejoin="round"/>
<path d="M98.7412 196.378C99.2276 194.918 100.322 193.763 101.66 193.094" stroke="#133B4F" stroke-width="2.432" stroke-miterlimit="10" stroke-linecap="round" stroke-linejoin="round"/>
<path d="M101.721 193.094C102.511 192.73 103.362 192.486 104.274 192.486C107.497 192.486 110.05 195.101 110.05 198.262" stroke="#133B4F" stroke-width="2.432" stroke-miterlimit="10" stroke-linecap="round" stroke-linejoin="round"/>
<path d="M110.901 198.262C111.631 197.898 112.482 197.715 113.333 197.715C114.61 197.715 115.765 198.141 116.738 198.81" stroke="#133B4F" stroke-width="2.432" stroke-miterlimit="10" stroke-linecap="round" stroke-linejoin="round"/>
<path d="M113.516 205.376C113.516 202.701 114.732 200.39 116.677 198.87" stroke="#133B4F" stroke-width="2.432" stroke-miterlimit="10" stroke-linecap="round" stroke-linejoin="round"/>
<path d="M116.738 198.87C118.137 197.776 119.9 197.107 121.785 197.107C125.737 197.107 129.02 199.843 129.81 203.552" stroke="#133B4F" stroke-width="2.432" stroke-miterlimit="10" stroke-linecap="round" stroke-linejoin="round"/>
<path d="M100.503 117.52H89.1338V139.104H100.503V117.52Z" fill="#CE7867"/>
<path d="M100.503 117.52H89.1338V139.104H100.503V117.52Z" stroke="#133B4F" stroke-width="2.432" stroke-miterlimit="10" stroke-linecap="round" stroke-linejoin="round"/>
<path d="M107.618 133.936H82.0818C79.4066 133.936 77.2178 131.747 77.2178 129.072C77.2178 126.397 79.4066 124.208 82.0818 124.208H107.618C110.293 124.208 112.482 126.397 112.482 129.072C112.482 131.808 110.293 133.936 107.618 133.936Z" fill="#D8D8D8"/>
<path d="M107.618 133.936H82.0818C79.4066 133.936 77.2178 131.747 77.2178 129.072C77.2178 126.397 79.4066 124.208 82.0818 124.208H107.618C110.293 124.208 112.482 126.397 112.482 129.072C112.482 131.808 110.293 133.936 107.618 133.936Z" stroke="#133B4F" stroke-width="2.432" stroke-miterlimit="10" stroke-linecap="round" stroke-linejoin="round"/>
<path d="M94.8491 177.286C97.3675 177.286 99.4091 175.245 99.4091 172.726C99.4091 170.208 97.3675 168.166 94.8491 168.166C92.3306 168.166 90.2891 170.208 90.2891 172.726C90.2891 175.245 92.3306 177.286 94.8491 177.286Z" fill="#F6164C"/>
<path d="M94.8491 177.286C97.3675 177.286 99.4091 175.245 99.4091 172.726C99.4091 170.208 97.3675 168.166 94.8491 168.166C92.3306 168.166 90.2891 170.208 90.2891 172.726C90.2891 175.245 92.3306 177.286 94.8491 177.286Z" stroke="#133B4F" stroke-width="2.432" stroke-miterlimit="10"/>
<path d="M109.137 190.48C110.48 190.48 111.569 189.391 111.569 188.048C111.569 186.705 110.48 185.616 109.137 185.616C107.794 185.616 106.705 186.705 106.705 188.048C106.705 189.391 107.794 190.48 109.137 190.48Z" fill="#F6164C"/>
<path d="M109.137 190.48C110.48 190.48 111.569 189.391 111.569 188.048C111.569 186.705 110.48 185.616 109.137 185.616C107.794 185.616 106.705 186.705 106.705 188.048C106.705 189.391 107.794 190.48 109.137 190.48Z" stroke="#133B4F" stroke-width="2.432" stroke-miterlimit="10" stroke-linecap="round" stroke-linejoin="round"/>
<path d="M84.515 183.974C85.0859 183.974 85.5486 183.512 85.5486 182.941C85.5486 182.37 85.0859 181.907 84.515 181.907C83.9442 181.907 83.4814 182.37 83.4814 182.941C83.4814 183.512 83.9442 183.974 84.515 183.974Z" stroke="#133B4F" stroke-width="2.432" stroke-miterlimit="10" stroke-linecap="round" stroke-linejoin="round"/>
<path d="M84.3324 223.494C85.6755 223.494 86.7644 222.406 86.7644 221.062C86.7644 219.719 85.6755 218.63 84.3324 218.63C82.9892 218.63 81.9004 219.719 81.9004 221.062C81.9004 222.406 82.9892 223.494 84.3324 223.494Z" fill="#133B4F"/>
<path d="M97.2203 237.296C99.3694 237.296 101.112 235.554 101.112 233.405C101.112 231.256 99.3694 229.514 97.2203 229.514C95.0713 229.514 93.3291 231.256 93.3291 233.405C93.3291 235.554 95.0713 237.296 97.2203 237.296Z" fill="#133B4F"/>
<path d="M110.9 223.92C111.673 223.92 112.299 223.294 112.299 222.522C112.299 221.749 111.673 221.123 110.9 221.123C110.128 221.123 109.502 221.749 109.502 222.522C109.502 223.294 110.128 223.92 110.9 223.92Z" fill="#133B4F"/>
<path d="M98.7414 212.55C99.2786 212.55 99.7141 212.115 99.7141 211.578C99.7141 211.04 99.2786 210.605 98.7414 210.605C98.2041 210.605 97.7686 211.04 97.7686 211.578C97.7686 212.115 98.2041 212.55 98.7414 212.55Z" fill="#133B4F"/>
<path d="M187.812 144.029H167.14V164.701H187.812V144.029Z" fill="#6F8699"/>
<path d="M187.812 144.029H167.14V164.701H187.812V144.029Z" stroke="#133B4F" stroke-width="2.432" stroke-miterlimit="10" stroke-linecap="round" stroke-linejoin="round"/>
<path d="M277.065 284.112C275.727 284.112 274.633 283.018 274.633 281.68V202.822C274.633 189.629 285.334 178.928 298.527 178.928C311.721 178.928 322.422 189.629 322.422 202.822V257.664C322.422 259.002 321.327 260.096 319.99 260.096C318.652 260.096 317.558 259.002 317.558 257.664V202.822C317.558 192.304 309.046 183.792 298.527 183.792C288.009 183.792 279.497 192.304 279.497 202.822V281.68C279.497 283.018 278.402 284.112 277.065 284.112Z" fill="white"/>
<path d="M277.065 284.112C275.727 284.112 274.633 283.018 274.633 281.68V202.822C274.633 189.629 285.334 178.928 298.527 178.928C311.721 178.928 322.422 189.629 322.422 202.822V257.664C322.422 259.002 321.327 260.096 319.99 260.096C318.652 260.096 317.558 259.002 317.558 257.664V202.822C317.558 192.304 309.046 183.792 298.527 183.792C288.009 183.792 279.497 192.304 279.497 202.822V281.68C279.497 283.018 278.402 284.112 277.065 284.112Z" stroke="#133B4F" stroke-width="2.432" stroke-miterlimit="10" stroke-linecap="round" stroke-linejoin="round"/>
<path d="M319.992 334.576C313.608 334.576 308.44 329.408 308.44 323.024V232.432H331.544V323.024C331.544 329.408 326.376 334.576 319.992 334.576Z" fill="white"/>
<path d="M319.992 334.576C313.608 334.576 308.44 329.408 308.44 323.024V232.432H331.544V323.024C331.544 329.408 326.376 334.576 319.992 334.576Z" stroke="#133B4F" stroke-width="2.432" stroke-miterlimit="10" stroke-linecap="round" stroke-linejoin="round"/>
<path d="M329.597 210.726H310.445V232.432H329.597V210.726Z" fill="#CE7867"/>
<path d="M329.597 210.726H310.445V232.432H329.597V210.726Z" stroke="#133B4F" stroke-width="2.432" stroke-miterlimit="10" stroke-linecap="round" stroke-linejoin="round"/>
<path d="M333.366 222.704H306.614C303.939 222.704 301.75 224.893 301.75 227.568C301.75 230.243 303.939 232.432 306.614 232.432H333.366C336.041 232.432 338.23 230.243 338.23 227.568C338.23 224.893 336.041 222.704 333.366 222.704Z" fill="#D8D8D8"/>
<path d="M333.366 222.704H306.614C303.939 222.704 301.75 224.893 301.75 227.568C301.75 230.243 303.939 232.432 306.614 232.432H333.366C336.041 232.432 338.23 230.243 338.23 227.568C338.23 224.893 336.041 222.704 333.366 222.704Z" stroke="#133B4F" stroke-width="2.432" stroke-miterlimit="10" stroke-linecap="round" stroke-linejoin="round"/>
<path d="M313.909 304.297V323.024C313.909 326.368 316.645 329.104 319.989 329.104C323.333 329.104 326.069 326.368 326.069 323.024V304.297H313.909Z" fill="#984DB2"/>
<path d="M313.909 304.297V323.024C313.909 326.368 316.645 329.104 319.989 329.104C323.333 329.104 326.069 326.368 326.069 323.024V304.297H313.909Z" stroke="#133B4F" stroke-width="2.432" stroke-miterlimit="10" stroke-linecap="round" stroke-linejoin="round"/>
<path d="M317.983 290.192C318.991 290.192 319.807 289.375 319.807 288.368C319.807 287.36 318.991 286.544 317.983 286.544C316.976 286.544 316.159 287.36 316.159 288.368C316.159 289.375 316.976 290.192 317.983 290.192Z" fill="#984DB2"/>
<path d="M317.983 290.192C318.991 290.192 319.807 289.375 319.807 288.368C319.807 287.36 318.991 286.544 317.983 286.544C316.976 286.544 316.159 287.36 316.159 288.368C316.159 289.375 316.976 290.192 317.983 290.192Z" stroke="#133B4F" stroke-width="2.432" stroke-miterlimit="10" stroke-linecap="round" stroke-linejoin="round"/>
<path d="M321.024 273.046C322.703 273.046 324.064 271.685 324.064 270.006C324.064 268.327 322.703 266.966 321.024 266.966C319.345 266.966 317.984 268.327 317.984 270.006C317.984 271.685 319.345 273.046 321.024 273.046Z" fill="#984DB2"/>
<path d="M321.024 273.046C322.703 273.046 324.064 271.685 324.064 270.006C324.064 268.327 322.703 266.966 321.024 266.966C319.345 266.966 317.984 268.327 317.984 270.006C317.984 271.685 319.345 273.046 321.024 273.046Z" stroke="#133B4F" stroke-width="2.432" stroke-miterlimit="10" stroke-linecap="round" stroke-linejoin="round"/>
<path d="M321.389 298.704C322.06 298.704 322.605 298.159 322.605 297.488C322.605 296.816 322.06 296.272 321.389 296.272C320.717 296.272 320.173 296.816 320.173 297.488C320.173 298.159 320.717 298.704 321.389 298.704Z" fill="#984DB2"/>
<path d="M321.389 298.704C322.06 298.704 322.605 298.159 322.605 297.488C322.605 296.816 322.06 296.272 321.389 296.272C320.717 296.272 320.173 296.816 320.173 297.488C320.173 298.159 320.717 298.704 321.389 298.704Z" stroke="#133B4F" stroke-width="2.432" stroke-miterlimit="10" stroke-linecap="round" stroke-linejoin="round"/>
<path d="M319.016 318.889C319.621 318.889 320.111 318.399 320.111 317.795C320.111 317.191 319.621 316.701 319.016 316.701C318.412 316.701 317.922 317.191 317.922 317.795C317.922 318.399 318.412 318.889 319.016 318.889Z" fill="#133B4F"/>
<path d="M319.626 313.357C320.599 313.357 321.389 312.567 321.389 311.593C321.389 310.62 320.599 309.83 319.626 309.83C318.652 309.83 317.862 310.62 317.862 311.593C317.862 312.567 318.652 313.357 319.626 313.357Z" fill="#133B4F"/>
<path d="M281.686 210.726H262.534V232.432H281.686V210.726Z" fill="#CE7867"/>
<path d="M281.686 210.726H262.534V232.432H281.686V210.726Z" stroke="#133B4F" stroke-width="2.432" stroke-miterlimit="10" stroke-linecap="round" stroke-linejoin="round"/>
<path d="M285.516 222.704H258.764C256.089 222.704 253.9 224.893 253.9 227.568C253.9 230.243 256.089 232.432 258.764 232.432H285.516C288.192 232.432 290.38 230.243 290.38 227.568C290.38 224.893 288.192 222.704 285.516 222.704Z" fill="#D8D8D8"/>
<path d="M285.516 222.704H258.764C256.089 222.704 253.9 224.893 253.9 227.568C253.9 230.243 256.089 232.432 258.764 232.432H285.516C288.192 232.432 290.38 230.243 290.38 227.568C290.38 224.893 288.192 222.704 285.516 222.704Z" stroke="#133B4F" stroke-width="2.432" stroke-miterlimit="10" stroke-linecap="round" stroke-linejoin="round"/>
<path d="M272.14 334.576C265.756 334.576 260.588 329.408 260.588 323.024V232.432H283.692V323.024C283.692 329.408 278.524 334.576 272.14 334.576Z" fill="white"/>
<path d="M272.14 334.576C265.756 334.576 260.588 329.408 260.588 323.024V232.432H283.692V323.024C283.692 329.408 278.524 334.576 272.14 334.576Z" stroke="#133B4F" stroke-width="2.432" stroke-miterlimit="10" stroke-linecap="round" stroke-linejoin="round"/>
<path d="M266.06 274.566V323.024C266.06 326.368 268.796 329.104 272.14 329.104C275.484 329.104 278.22 326.368 278.22 323.024V274.566H266.06Z" fill="#F3C50D"/>
<path d="M266.06 274.566V323.024C266.06 326.368 268.796 329.104 272.14 329.104C275.484 329.104 278.22 326.368 278.22 323.024V274.566H266.06Z" stroke="#133B4F" stroke-width="2.432" stroke-miterlimit="10" stroke-linecap="round" stroke-linejoin="round"/>
<path d="M270.377 298.035C271.351 298.035 272.141 297.246 272.141 296.272C272.141 295.298 271.351 294.509 270.377 294.509C269.404 294.509 268.614 295.298 268.614 296.272C268.614 297.246 269.404 298.035 270.377 298.035Z" fill="#133B4F"/>
<path d="M269.709 265.993C270.347 265.993 270.864 265.476 270.864 264.838C270.864 264.2 270.347 263.683 269.709 263.683C269.071 263.683 268.554 264.2 268.554 264.838C268.554 265.476 269.071 265.993 269.709 265.993Z" fill="#133B4F"/>
<path d="M273.903 282.47C274.306 282.47 274.633 282.144 274.633 281.741C274.633 281.338 274.306 281.011 273.903 281.011C273.5 281.011 273.174 281.338 273.174 281.741C273.174 282.144 273.5 282.47 273.903 282.47Z" fill="#133B4F"/>
<path d="M273.903 308.857C274.306 308.857 274.633 308.531 274.633 308.128C274.633 307.725 274.306 307.398 273.903 307.398C273.5 307.398 273.174 307.725 273.174 308.128C273.174 308.531 273.5 308.857 273.903 308.857Z" fill="#133B4F"/>
<path d="M417.271 248.24H222.711V253.104H417.271V248.24Z" fill="#DABC95"/>
<path d="M417.271 248.24H222.711V253.104H417.271V248.24Z" stroke="#133B4F" stroke-width="2.432" stroke-miterlimit="10" stroke-linecap="round" stroke-linejoin="round"/>
<path d="M154.736 106.819H144.278V160.445H154.736V106.819Z" fill="#CE7867"/>
<path d="M154.736 106.819H144.278V160.445H154.736V106.819Z" stroke="#133B4F" stroke-width="2.432" stroke-miterlimit="10" stroke-linecap="round" stroke-linejoin="round"/>
<path d="M167.139 151.325H116.554V157.405H167.139V151.325Z" fill="#6F8699"/>
<path d="M167.139 151.325H116.554V157.405H167.139V151.325Z" stroke="#133B4F" stroke-width="2.432" stroke-miterlimit="10" stroke-linecap="round" stroke-linejoin="round"/>
<path d="M76.6081 162.269H113.088C117.466 162.269 120.992 158.742 120.992 154.365C120.992 149.987 117.466 146.461 113.088 146.461H76.6081C72.2305 146.461 68.7041 149.987 68.7041 154.365C68.7041 158.742 72.2305 162.269 76.6081 162.269Z" fill="#6F8699"/>
<path d="M76.6081 162.269H113.088C117.466 162.269 120.992 158.742 120.992 154.365C120.992 149.987 117.466 146.461 113.088 146.461H76.6081C72.2305 146.461 68.7041 149.987 68.7041 154.365C68.7041 158.742 72.2305 162.269 76.6081 162.269Z" stroke="#133B4F" stroke-width="2.432" stroke-miterlimit="10" stroke-linecap="round" stroke-linejoin="round"/>
</svg>
