<svg width="500" height="500" viewBox="0 0 500 500" fill="none" xmlns="http://www.w3.org/2000/svg">
<path d="M500 0H0V500H500V0Z" fill="#CE7484"/>
<g opacity="0.4">
<g opacity="0.4">
<path opacity="0.4" d="M135.25 114.05L152 143.05L135.25 172.05H101.8L85.05 143.05L101.8 114.05H135.25Z" stroke="white" stroke-width="3" stroke-miterlimit="10"/>
</g>
</g>
<g opacity="0.4">
<g opacity="0.4">
<path opacity="0.4" d="M193.25 147.5L209.95 176.5L193.25 205.5H159.8L143.05 176.5L159.8 147.5H193.25Z" fill="white" stroke="white" stroke-width="3" stroke-miterlimit="10"/>
</g>
<g opacity="0.4">
<path opacity="0.4" d="M193.25 214.4L209.95 243.4L193.25 272.4H159.8L143.05 243.4L159.8 214.4H193.25Z" stroke="white" stroke-width="3" stroke-miterlimit="10"/>
</g>
</g>
<g opacity="0.4">
<g opacity="0.4">
<path opacity="0.4" d="M251.25 114.05L267.95 143.05L251.25 172.05H217.8L201.05 143.05L217.8 114.05H251.25Z" stroke="white" stroke-width="3" stroke-miterlimit="10"/>
</g>
<g opacity="0.4">
<path opacity="0.4" d="M251.25 180.95L267.95 209.95L251.25 238.95H217.8L201.05 209.95L217.8 180.95H251.25Z" fill="white" stroke="white" stroke-width="3" stroke-miterlimit="10"/>
</g>
</g>
<g opacity="0.4">
<g opacity="0.4">
<path opacity="0.4" d="M309.2 80.5999L325.95 109.6L309.2 138.6H275.75L259.05 109.6L275.75 80.5999H309.2Z" fill="white" stroke="white" stroke-width="3" stroke-miterlimit="10"/>
</g>
<g opacity="0.4">
<path opacity="0.4" d="M309.2 147.5L325.95 176.5L309.2 205.5H275.75L259.05 176.5L275.75 147.5H309.2Z" stroke="white" stroke-width="3" stroke-miterlimit="10"/>
</g>
<g opacity="0.4">
<path opacity="0.4" d="M309.2 214.4L325.95 243.4L309.2 272.4H275.75L259.05 243.4L275.75 214.4H309.2Z" stroke="white" stroke-width="3" stroke-miterlimit="10"/>
</g>
</g>
<g opacity="0.4">
<g opacity="0.4">
<path opacity="0.4" d="M367.2 180.95L383.95 209.95L367.2 238.95H333.75L317.05 209.95L333.75 180.95H367.2Z" fill="white" stroke="white" stroke-width="3" stroke-miterlimit="10"/>
</g>
</g>
<g opacity="0.4">
<g opacity="0.4">
<path opacity="0.4" d="M425.2 80.5999L441.95 109.6L425.2 138.6H391.75L375 109.6L391.75 80.5999H425.2Z" fill="white" stroke="white" stroke-width="3" stroke-miterlimit="10"/>
</g>
<g opacity="0.4">
<path opacity="0.4" d="M425.2 147.5L441.95 176.5L425.2 205.5H391.75L375 176.5L391.75 147.5H425.2Z" stroke="white" stroke-width="3" stroke-miterlimit="10"/>
</g>
</g>
<path d="M183.8 341.5C182.95 341.5 182.25 340.8 182.25 339.95V334.5H170.25V339.95C170.25 340.8 169.55 341.5 168.7 341.5H168.2C164.75 341.5 162 344.3 162 347.7V379.35C162 382.35 164.4 384.75 167.4 384.75H184.6C187.6 384.75 190 382.35 190 379.35V347.7C190 344.3 187.2 341.5 183.8 341.5Z" fill="white"/>
<path d="M183.8 341.5C182.95 341.5 182.25 340.8 182.25 339.95V334.5H170.25V339.95C170.25 340.8 169.55 341.5 168.7 341.5H168.2C164.75 341.5 162 344.3 162 347.7V379.35C162 382.35 164.4 384.75 167.4 384.75H184.6C187.6 384.75 190 382.35 190 379.35V347.7C190 344.3 187.2 341.5 183.8 341.5Z" stroke="#30292C" stroke-width="2" stroke-miterlimit="10" stroke-linecap="round" stroke-linejoin="round"/>
<path d="M166 334.5V329.6C166 328.45 166.95 327.5 168.1 327.5H184.9C186.05 327.5 187 328.45 187 329.6V334.5" fill="#CCCCCC"/>
<path d="M187 334.5H166V329.6C166 328.45 166.95 327.5 168.1 327.5H184.9C186.05 327.5 187 328.45 187 329.6V334.5Z" stroke="#30292C" stroke-width="2" stroke-miterlimit="10" stroke-linecap="round" stroke-linejoin="round"/>
<path d="M185.95 350C185.8 348.9 184.9 348 183.75 348C183.3 348 182.85 348.15 182.5 348.4C182.45 346.5 180.9 345 179 345C177.05 345 175.5 346.55 175.5 348.5C175.5 349.05 175.5 349.5 175.5 349.25C175.5 347.75 174.25 346.5 172.75 346.5C171.25 346.5 170 347.75 170 349.25C170 349.5 169.5 349.85 169.5 349.75C169.5 348.8 168.7 348 167.75 348C166.8 348 166 348.8 166 349.75C166 349.85 166 349.9 166.05 350H166V379.35C166 380.1 166.6 380.75 167.4 380.75H184.6C185.35 380.75 186 380.15 186 379.35L185.95 350Z" fill="#5CECFF"/>
<path d="M170.85 357.5C171.651 357.5 172.3 356.851 172.3 356.05C172.3 355.249 171.651 354.6 170.85 354.6C170.049 354.6 169.4 355.249 169.4 356.05C169.4 356.851 170.049 357.5 170.85 357.5Z" fill="#30292C"/>
<path d="M176.45 363.7C176.754 363.7 177 363.454 177 363.15C177 362.846 176.754 362.6 176.45 362.6C176.146 362.6 175.9 362.846 175.9 363.15C175.9 363.454 176.146 363.7 176.45 363.7Z" fill="#30292C"/>
<path d="M175.95 341.7C176.254 341.7 176.5 341.453 176.5 341.15C176.5 340.846 176.254 340.6 175.95 340.6C175.646 340.6 175.4 340.846 175.4 341.15C175.4 341.453 175.646 341.7 175.95 341.7Z" fill="#30292C"/>
<path d="M172.7 343.2C172.866 343.2 173 343.066 173 342.9C173 342.734 172.866 342.6 172.7 342.6C172.534 342.6 172.4 342.734 172.4 342.9C172.4 343.066 172.534 343.2 172.7 343.2Z" fill="#30292C"/>
<path d="M181.2 374.7C181.642 374.7 182 374.342 182 373.9C182 373.458 181.642 373.1 181.2 373.1C180.758 373.1 180.4 373.458 180.4 373.9C180.4 374.342 180.758 374.7 181.2 374.7Z" fill="#30292C"/>
<path d="M179.95 356.2C180.254 356.2 180.5 355.954 180.5 355.65C180.5 355.346 180.254 355.1 179.95 355.1C179.646 355.1 179.4 355.346 179.4 355.65C179.4 355.954 179.646 356.2 179.95 356.2Z" fill="#30292C"/>
<path d="M185.95 350C185.8 348.9 184.9 348 183.75 348C183.3 348 182.85 348.15 182.5 348.4C182.45 346.5 180.9 345 179 345C177.05 345 175.5 346.55 175.5 348.5C175.5 349.05 175.5 349.5 175.5 349.25C175.5 347.75 174.25 346.5 172.75 346.5C171.25 346.5 170 347.75 170 349.25C170 349.5 169.5 349.85 169.5 349.75C169.5 348.8 168.7 348 167.75 348C166.8 348 166 348.8 166 349.75C166 349.85 166 349.9 166.05 350H166V379.35C166 380.1 166.6 380.75 167.4 380.75H184.6C185.35 380.75 186 380.15 186 379.35L185.95 350Z" stroke="#30292C" stroke-width="2" stroke-miterlimit="10" stroke-linecap="round" stroke-linejoin="round"/>
<path d="M140.1 307C135.4 307 131.6 303.2 131.6 298.5V291H111.6V298.5C111.6 303.2 107.8 307 103.1 307C96.4499 307 91.0999 312.35 91.0999 319V373C91.0999 379.65 96.4499 385 103.1 385H140.1C146.75 385 152.1 379.65 152.1 373V319C152.1 312.35 146.7 307 140.1 307Z" fill="white"/>
<path d="M127.5 323C128.466 323 129.25 322.217 129.25 321.25C129.25 320.284 128.466 319.5 127.5 319.5C126.533 319.5 125.75 320.284 125.75 321.25C125.75 322.217 126.533 323 127.5 323Z" fill="#FF415B"/>
<path d="M127.5 323C128.466 323 129.25 322.217 129.25 321.25C129.25 320.284 128.466 319.5 127.5 319.5C126.533 319.5 125.75 320.284 125.75 321.25C125.75 322.217 126.533 323 127.5 323Z" stroke="#30292C" stroke-width="2" stroke-miterlimit="10" stroke-linecap="round" stroke-linejoin="round"/>
<path d="M95.0996 322.5V373C95.0996 377.4 98.6996 381 103.1 381H140.1C144.5 381 148.1 377.4 148.1 373V322.5H95.0996Z" fill="#FF415B"/>
<path d="M140.1 307C135.4 307 131.6 303.2 131.6 298.5V291H111.6V298.5C111.6 303.2 107.8 307 103.1 307C96.4499 307 91.0999 312.35 91.0999 319V373C91.0999 379.65 96.4499 385 103.1 385H140.1C146.75 385 152.1 379.65 152.1 373V319C152.1 312.35 146.7 307 140.1 307Z" stroke="#30292C" stroke-width="2" stroke-miterlimit="10" stroke-linecap="round" stroke-linejoin="round"/>
<path d="M136.1 283H107.1V297H136.1V283Z" fill="#8E5645"/>
<path d="M112.5 283H109.5V297H112.5V283Z" fill="#AE6553"/>
<path d="M119.65 283H116.65V297H119.65V283Z" fill="#AE6553"/>
<path d="M126.85 283H123.85V297H126.85V283Z" fill="#AE6553"/>
<path d="M134 283H131V297H134V283Z" fill="#AE6553"/>
<path d="M134.5 283H108.65V281.85C108.65 280 110.15 278.5 112 278.5H131.15C133 278.5 134.5 280 134.5 281.85V283Z" fill="#8E5645"/>
<path d="M136.1 283H107.1V297H136.1V283Z" stroke="#30292C" stroke-width="2" stroke-miterlimit="10" stroke-linecap="round" stroke-linejoin="round"/>
<path d="M134.5 283H108.65V281.85C108.65 280 110.15 278.5 112 278.5H131.15C133 278.5 134.5 280 134.5 281.85V283Z" stroke="#30292C" stroke-width="2" stroke-miterlimit="10" stroke-linecap="round" stroke-linejoin="round"/>
<path d="M95.0996 322.5V373C95.0996 377.4 98.6996 381 103.1 381H140.1C144.5 381 148.1 377.4 148.1 373V322.5H95.0996Z" stroke="#30292C" stroke-width="2" stroke-miterlimit="10" stroke-linecap="round" stroke-linejoin="round"/>
<path d="M140.6 329.5H102.6V357.5H140.6V329.5Z" fill="#FFC25D"/>
<path d="M140.6 329.5H102.6V357.5H140.6V329.5Z" stroke="#30292C" stroke-width="2" stroke-miterlimit="10" stroke-linecap="round" stroke-linejoin="round"/>
<path d="M99.2497 361.05C99.6915 361.05 100.05 360.692 100.05 360.25C100.05 359.808 99.6915 359.45 99.2497 359.45C98.8079 359.45 98.4497 359.808 98.4497 360.25C98.4497 360.692 98.8079 361.05 99.2497 361.05Z" fill="#30292C"/>
<path d="M113.95 366.45C114.668 366.45 115.25 365.868 115.25 365.15C115.25 364.432 114.668 363.85 113.95 363.85C113.232 363.85 112.65 364.432 112.65 365.15C112.65 365.868 113.232 366.45 113.95 366.45Z" fill="#30292C"/>
<path d="M119.8 373.55C120.849 373.55 121.7 372.7 121.7 371.65C121.7 370.601 120.849 369.75 119.8 369.75C118.751 369.75 117.9 370.601 117.9 371.65C117.9 372.7 118.751 373.55 119.8 373.55Z" fill="#30292C"/>
<path d="M137.8 367.05C138.849 367.05 139.7 366.199 139.7 365.15C139.7 364.101 138.849 363.25 137.8 363.25C136.751 363.25 135.9 364.101 135.9 365.15C135.9 366.199 136.751 367.05 137.8 367.05Z" fill="#30292C"/>
<path d="M109 337H134.5" stroke="#30292C" stroke-width="2" stroke-miterlimit="10" stroke-linecap="round" stroke-linejoin="round"/>
<path d="M120.5 343.5H134.5" stroke="#30292C" stroke-width="2" stroke-miterlimit="10" stroke-linecap="round" stroke-linejoin="round"/>
<path d="M120.5 349H134.5" stroke="#30292C" stroke-width="2" stroke-miterlimit="10" stroke-linecap="round" stroke-linejoin="round"/>
<path d="M112.5 350C114.433 350 116 348.433 116 346.5C116 344.567 114.433 343 112.5 343C110.567 343 109 344.567 109 346.5C109 348.433 110.567 350 112.5 350Z" stroke="#30292C" stroke-width="2" stroke-miterlimit="10" stroke-linecap="round" stroke-linejoin="round"/>
<path d="M118 315.5C119.353 315.5 120.45 314.403 120.45 313.05C120.45 311.697 119.353 310.6 118 310.6C116.646 310.6 115.55 311.697 115.55 313.05C115.55 314.403 116.646 315.5 118 315.5Z" fill="#FF415B"/>
<path d="M118 315.5C119.353 315.5 120.45 314.403 120.45 313.05C120.45 311.697 119.353 310.6 118 310.6C116.646 310.6 115.55 311.697 115.55 313.05C115.55 314.403 116.646 315.5 118 315.5Z" stroke="#30292C" stroke-width="2" stroke-miterlimit="10" stroke-linecap="round" stroke-linejoin="round"/>
<path d="M128.343 309.764C128.431 309.219 128.061 308.706 127.516 308.617C126.971 308.529 126.457 308.899 126.369 309.444C126.28 309.989 126.65 310.503 127.196 310.591C127.741 310.68 128.254 310.31 128.343 309.764Z" stroke="#30292C" stroke-width="2" stroke-miterlimit="10" stroke-linecap="round" stroke-linejoin="round"/>
<path d="M140.4 317.65C141.201 317.65 141.85 317.001 141.85 316.2C141.85 315.399 141.201 314.75 140.4 314.75C139.599 314.75 138.95 315.399 138.95 316.2C138.95 317.001 139.599 317.65 140.4 317.65Z" fill="#30292C"/>
<path d="M102.4 319.65C103.201 319.65 103.85 319.001 103.85 318.2C103.85 317.399 103.201 316.75 102.4 316.75C101.599 316.75 100.95 317.399 100.95 318.2C100.95 319.001 101.599 319.65 102.4 319.65Z" fill="#30292C"/>
<path d="M330.1 364H216.6C212.75 364 209.6 367.15 209.6 371V378C209.6 381.85 212.75 385 216.6 385H221.75C222.9 381.25 226.4 378.5 230.55 378.5H316.15C320.3 378.5 323.8 381.25 324.95 385H330.1C333.95 385 337.1 381.85 337.1 378V371C337.1 367.15 334 364 330.1 364Z" fill="#CCCCCC"/>
<path d="M330.1 364H216.6C212.75 364 209.6 367.15 209.6 371V378C209.6 381.85 212.75 385 216.6 385H221.75C222.9 381.25 226.4 378.5 230.55 378.5H316.15C320.3 378.5 323.8 381.25 324.95 385H330.1C333.95 385 337.1 381.85 337.1 378V371C337.1 367.15 334 364 330.1 364Z" stroke="#30292C" stroke-width="2" stroke-miterlimit="10" stroke-linecap="round" stroke-linejoin="round"/>
<path d="M319.35 283.35C309.05 301.75 289.35 314.25 266.75 314.25C233.45 314.25 206.5 287.3 206.5 254C206.5 223.05 229.85 197.55 259.9 194.15L257.85 182.15C222.7 188.35 196 219.05 196 256C196 297.4 229.6 331 271 331C300.35 331 325.75 314.15 338.1 289.55L319.35 283.35Z" fill="#CCCCCC"/>
<path d="M319.35 283.35C309.05 301.75 289.35 314.25 266.75 314.25C233.45 314.25 206.5 287.3 206.5 254C206.5 223.05 229.85 197.55 259.9 194.15L257.85 182.15C222.7 188.35 196 219.05 196 256C196 297.4 229.6 331 271 331C300.35 331 325.75 314.15 338.1 289.55L319.35 283.35Z" stroke="#30292C" stroke-width="2" stroke-miterlimit="10" stroke-linecap="round" stroke-linejoin="round"/>
<path d="M277.6 364H233.6V317C233.6 304.85 243.45 295 255.6 295C267.75 295 277.6 304.85 277.6 317V364Z" fill="white"/>
<path d="M255.6 330.25C263.056 330.25 269.1 324.205 269.1 316.75C269.1 309.294 263.056 303.25 255.6 303.25C248.144 303.25 242.1 309.294 242.1 316.75C242.1 324.205 248.144 330.25 255.6 330.25Z" fill="#00C899"/>
<path d="M255.6 322.749C258.914 322.749 261.6 320.063 261.6 316.749C261.6 313.435 258.914 310.749 255.6 310.749C252.286 310.749 249.6 313.435 249.6 316.749C249.6 320.063 252.286 322.749 255.6 322.749Z" fill="#00C899"/>
<path d="M277.6 364H233.6V317C233.6 304.85 243.45 295 255.6 295C267.75 295 277.6 304.85 277.6 317V364Z" stroke="#30292C" stroke-width="2" stroke-miterlimit="10" stroke-linecap="round" stroke-linejoin="round"/>
<path d="M255.6 330.25C263.056 330.25 269.1 324.205 269.1 316.75C269.1 309.294 263.056 303.25 255.6 303.25C248.144 303.25 242.1 309.294 242.1 316.75C242.1 324.205 248.144 330.25 255.6 330.25Z" stroke="#30292C" stroke-width="2" stroke-miterlimit="10" stroke-linecap="round" stroke-linejoin="round"/>
<path d="M255.6 322.749C258.914 322.749 261.6 320.063 261.6 316.749C261.6 313.435 258.914 310.749 255.6 310.749C252.286 310.749 249.6 313.435 249.6 316.749C249.6 320.063 252.286 322.749 255.6 322.749Z" fill="#959595"/>
<path d="M255.6 322.749C258.914 322.749 261.6 320.063 261.6 316.749C261.6 313.435 258.914 310.749 255.6 310.749C252.286 310.749 249.6 313.435 249.6 316.749C249.6 320.063 252.286 322.749 255.6 322.749Z" stroke="#30292C" stroke-width="2" stroke-miterlimit="10" stroke-linecap="round" stroke-linejoin="round"/>
<path d="M330.5 298.5C337.955 298.5 344 292.456 344 285C344 277.544 337.955 271.5 330.5 271.5C323.044 271.5 317 277.544 317 285C317 292.456 323.044 298.5 330.5 298.5Z" fill="white"/>
<path d="M330.5 298.5C337.955 298.5 344 292.456 344 285C344 277.544 337.955 271.5 330.5 271.5C323.044 271.5 317 277.544 317 285C317 292.456 323.044 298.5 330.5 298.5Z" stroke="#30292C" stroke-width="2" stroke-miterlimit="10" stroke-linecap="round" stroke-linejoin="round"/>
<path d="M330.5 291C333.814 291 336.5 288.314 336.5 285C336.5 281.686 333.814 279 330.5 279C327.186 279 324.5 281.686 324.5 285C324.5 288.314 327.186 291 330.5 291Z" fill="#959595"/>
<path d="M330.5 291C333.814 291 336.5 288.314 336.5 285C336.5 281.686 333.814 279 330.5 279C327.186 279 324.5 281.686 324.5 285C324.5 288.314 327.186 291 330.5 291Z" stroke="#30292C" stroke-width="2" stroke-miterlimit="10" stroke-linecap="round" stroke-linejoin="round"/>
<path d="M270.666 136.886L251.26 141.724L255.432 158.462L274.838 153.624L270.666 136.886Z" fill="#00B2C8"/>
<path d="M273.1 136.3L248.75 142.35C247.75 142.6 246.75 142.05 246.4 141.1L243.45 133.35L273.55 125.85L274.6 134.1C274.75 135.1 274.1 136.05 273.1 136.3Z" fill="white"/>
<path d="M278.201 152.768L252.003 159.299L276.193 256.329L302.391 249.798L278.201 152.768Z" fill="white"/>
<path d="M278.201 152.768L252.003 159.299L276.193 256.329L302.391 249.798L278.201 152.768Z" stroke="#30292C" stroke-width="2" stroke-miterlimit="10" stroke-linecap="round" stroke-linejoin="round"/>
<path d="M299.576 238.408L273.378 244.939L276.22 256.34L302.418 249.809L299.576 238.408Z" fill="#959595"/>
<path d="M299.576 238.408L273.378 244.939L276.22 256.34L302.418 249.809L299.576 238.408Z" stroke="#30292C" stroke-width="2" stroke-miterlimit="10" stroke-linecap="round" stroke-linejoin="round"/>
<path d="M270.666 136.886L251.26 141.724L255.432 158.462L274.838 153.624L270.666 136.886Z" stroke="#30292C" stroke-width="2" stroke-miterlimit="10" stroke-linecap="round" stroke-linejoin="round"/>
<path d="M273.1 136.3L248.75 142.35C247.75 142.6 246.75 142.05 246.4 141.1L243.45 133.35L273.55 125.85L274.6 134.1C274.75 135.1 274.1 136.05 273.1 136.3Z" stroke="#30292C" stroke-width="2" stroke-miterlimit="10" stroke-linecap="round" stroke-linejoin="round"/>
<path d="M287.75 217.951L290.6 229.301" stroke="#30292C" stroke-width="2" stroke-miterlimit="10" stroke-linecap="round" stroke-linejoin="round"/>
<path d="M273.05 158.95L283.6 201.15" stroke="#30292C" stroke-width="2" stroke-miterlimit="10" stroke-linecap="round" stroke-linejoin="round"/>
<path d="M266.35 142.4L268.5 151.1" stroke="#30292C" stroke-width="2" stroke-miterlimit="10" stroke-linecap="round" stroke-linejoin="round"/>
<path d="M257.5 201.5C264.956 201.5 271 195.456 271 188C271 180.545 264.956 174.5 257.5 174.5C250.044 174.5 244 180.545 244 188C244 195.456 250.044 201.5 257.5 201.5Z" fill="white"/>
<path d="M257.5 201.5C264.956 201.5 271 195.456 271 188C271 180.545 264.956 174.5 257.5 174.5C250.044 174.5 244 180.545 244 188C244 195.456 250.044 201.5 257.5 201.5Z" stroke="#30292C" stroke-width="2" stroke-miterlimit="10" stroke-linecap="round" stroke-linejoin="round"/>
<path d="M257.5 194C260.813 194 263.5 191.314 263.5 188C263.5 184.687 260.813 182 257.5 182C254.186 182 251.5 184.687 251.5 188C251.5 191.314 254.186 194 257.5 194Z" fill="#959595"/>
<path d="M257.5 194C260.813 194 263.5 191.314 263.5 188C263.5 184.687 260.813 182 257.5 182C254.186 182 251.5 184.687 251.5 188C251.5 191.314 254.186 194 257.5 194Z" stroke="#30292C" stroke-width="2" stroke-miterlimit="10" stroke-linecap="round" stroke-linejoin="round"/>
<path d="M358 266.85L276.65 288.8C274.8 289.3 272.85 288.2 272.35 286.35C271.85 284.5 272.95 282.55 274.8 282.05L356.15 260.1C358 259.6 359.95 260.7 360.45 262.55C360.95 264.4 359.85 266.3 358 266.85Z" fill="white"/>
<path d="M358 266.85L276.65 288.8C274.8 289.3 272.85 288.2 272.35 286.35C271.85 284.5 272.95 282.55 274.8 282.05L356.15 260.1C358 259.6 359.95 260.7 360.45 262.55C360.95 264.4 359.85 266.3 358 266.85Z" stroke="#30292C" stroke-width="2" stroke-miterlimit="10" stroke-linecap="round" stroke-linejoin="round"/>
<path d="M316.1 270.901L278.9 280.951L279.45 276.651L313.5 267.451L316.1 270.901Z" fill="#959595"/>
<path d="M316.1 270.901L278.9 280.951L279.45 276.651L313.5 267.451L316.1 270.901Z" stroke="#30292C" stroke-width="2" stroke-miterlimit="10" stroke-linecap="round" stroke-linejoin="round"/>
<path d="M62.5 385H464.5" stroke="#30292C" stroke-width="4" stroke-miterlimit="10" stroke-linecap="round" stroke-linejoin="round"/>
<path d="M425 383C419.75 383 415.5 378.75 415.5 373.5V299H434.5V373.5C434.5 378.75 430.25 383 425 383Z" fill="white"/>
<path d="M436 291H414C411.8 291 410 292.8 410 295C410 297.2 411.8 299 414 299H436C438.2 299 440 297.2 440 295C440 292.8 438.2 291 436 291Z" fill="#D8D8D8"/>
<path d="M425 383C419.75 383 415.5 378.75 415.5 373.5V299H434.5V373.5C434.5 378.75 430.25 383 425 383Z" stroke="#30292C" stroke-width="2" stroke-miterlimit="10" stroke-linecap="round" stroke-linejoin="round"/>
<path d="M436 291H414C411.8 291 410 292.8 410 295C410 297.2 411.8 299 414 299H436C438.2 299 440 297.2 440 295C440 292.8 438.2 291 436 291Z" stroke="#30292C" stroke-width="2" stroke-miterlimit="10" stroke-linecap="round" stroke-linejoin="round"/>
<path d="M420 346.5V373.5C420 376.25 422.25 378.5 425 378.5C427.75 378.5 430 376.25 430 373.5V346.5H420Z" fill="#FF415B"/>
<path d="M420 346.5V373.5C420 376.25 422.25 378.5 425 378.5C427.75 378.5 430 376.25 430 373.5V346.5H420Z" stroke="#30292C" stroke-width="2" stroke-miterlimit="10" stroke-linecap="round" stroke-linejoin="round"/>
<path d="M422.5 281.5C423.384 281.5 424.1 280.784 424.1 279.9C424.1 279.017 423.384 278.3 422.5 278.3C421.616 278.3 420.9 279.017 420.9 279.9C420.9 280.784 421.616 281.5 422.5 281.5Z" fill="#EC1CE4"/>
<path d="M416.25 265.75C418.238 265.75 419.85 264.139 419.85 262.15C419.85 260.162 418.238 258.55 416.25 258.55C414.262 258.55 412.65 260.162 412.65 262.15C412.65 264.139 414.262 265.75 416.25 265.75Z" fill="#FF415B"/>
<path d="M433.2 279.051C434.912 279.051 436.3 277.663 436.3 275.951C436.3 274.239 434.912 272.851 433.2 272.851C431.488 272.851 430.1 274.239 430.1 275.951C430.1 277.663 431.488 279.051 433.2 279.051Z" fill="#FF415B"/>
<path d="M422.5 281.5C423.384 281.5 424.1 280.784 424.1 279.9C424.1 279.017 423.384 278.3 422.5 278.3C421.616 278.3 420.9 279.017 420.9 279.9C420.9 280.784 421.616 281.5 422.5 281.5Z" stroke="#133B4F" stroke-width="2" stroke-miterlimit="10" stroke-linecap="round" stroke-linejoin="round"/>
<path d="M426 270.3C426.58 270.3 427.05 269.83 427.05 269.25C427.05 268.67 426.58 268.2 426 268.2C425.42 268.2 424.95 268.67 424.95 269.25C424.95 269.83 425.42 270.3 426 270.3Z" stroke="#133B4F" stroke-width="2" stroke-miterlimit="10" stroke-linecap="round" stroke-linejoin="round"/>
<path d="M416.25 265.75C418.238 265.75 419.85 264.139 419.85 262.15C419.85 260.162 418.238 258.55 416.25 258.55C414.262 258.55 412.65 260.162 412.65 262.15C412.65 264.139 414.262 265.75 416.25 265.75Z" stroke="#133B4F" stroke-width="2" stroke-miterlimit="10" stroke-linecap="round" stroke-linejoin="round"/>
<path d="M433.2 279.051C434.912 279.051 436.3 277.663 436.3 275.951C436.3 274.239 434.912 272.851 433.2 272.851C431.488 272.851 430.1 274.239 430.1 275.951C430.1 277.663 431.488 279.051 433.2 279.051Z" stroke="#133B4F" stroke-width="2" stroke-miterlimit="10" stroke-linecap="round" stroke-linejoin="round"/>
<path d="M423.25 330.3C425.238 330.3 426.85 328.688 426.85 326.7C426.85 324.712 425.238 323.1 423.25 323.1C421.262 323.1 419.65 324.712 419.65 326.7C419.65 328.688 421.262 330.3 423.25 330.3Z" fill="#FF415B"/>
<path d="M423.25 330.3C425.238 330.3 426.85 328.688 426.85 326.7C426.85 324.712 425.238 323.1 423.25 323.1C421.262 323.1 419.65 324.712 419.65 326.7C419.65 328.688 421.262 330.3 423.25 330.3Z" stroke="#30292C" stroke-width="2" stroke-miterlimit="10" stroke-linecap="round" stroke-linejoin="round"/>
<path d="M426.4 340.6C427.256 340.6 427.95 339.907 427.95 339.05C427.95 338.194 427.256 337.5 426.4 337.5C425.544 337.5 424.85 338.194 424.85 339.05C424.85 339.907 425.544 340.6 426.4 340.6Z" fill="#FF415B"/>
<path d="M426.4 340.6C427.256 340.6 427.95 339.907 427.95 339.05C427.95 338.194 427.256 337.5 426.4 337.5C425.544 337.5 424.85 338.194 424.85 339.05C424.85 339.907 425.544 340.6 426.4 340.6Z" stroke="#30292C" stroke-width="2" stroke-miterlimit="10" stroke-linecap="round" stroke-linejoin="round"/>
<path d="M428.4 308.151C429.587 308.151 430.55 307.188 430.55 306.001C430.55 304.813 429.587 303.851 428.4 303.851C427.213 303.851 426.25 304.813 426.25 306.001C426.25 307.188 427.213 308.151 428.4 308.151Z" fill="#FF415B"/>
<path d="M428.4 308.151C429.587 308.151 430.55 307.188 430.55 306.001C430.55 304.813 429.587 303.851 428.4 303.851C427.213 303.851 426.25 304.813 426.25 306.001C426.25 307.188 427.213 308.151 428.4 308.151Z" stroke="#30292C" stroke-width="2" stroke-miterlimit="10" stroke-linecap="round" stroke-linejoin="round"/>
<path d="M420.9 303.451C421.342 303.451 421.7 303.092 421.7 302.651C421.7 302.209 421.342 301.851 420.9 301.851C420.458 301.851 420.1 302.209 420.1 302.651C420.1 303.092 420.458 303.451 420.9 303.451Z" fill="#67CC70"/>
<path d="M420.9 303.451C421.342 303.451 421.7 303.092 421.7 302.651C421.7 302.209 421.342 301.851 420.9 301.851C420.458 301.851 420.1 302.209 420.1 302.651C420.1 303.092 420.458 303.451 420.9 303.451Z" stroke="#30292C" stroke-width="2" stroke-miterlimit="10" stroke-linecap="round" stroke-linejoin="round"/>
<path d="M425.6 355.1C426.042 355.1 426.4 354.742 426.4 354.3C426.4 353.859 426.042 353.5 425.6 353.5C425.158 353.5 424.8 353.859 424.8 354.3C424.8 354.742 425.158 355.1 425.6 355.1Z" fill="#30292C"/>
<path d="M421.3 364C422.018 364 422.6 363.418 422.6 362.7C422.6 361.982 422.018 361.4 421.3 361.4C420.582 361.4 420 361.982 420 362.7C420 363.418 420.582 364 421.3 364Z" fill="#30292C"/>
<path d="M427.15 371.1C428.199 371.1 429.05 370.25 429.05 369.2C429.05 368.151 428.199 367.3 427.15 367.3C426.1 367.3 425.25 368.151 425.25 369.2C425.25 370.25 426.1 371.1 427.15 371.1Z" fill="#30292C"/>
<path d="M424.35 352.25C424.516 352.25 424.65 352.116 424.65 351.95C424.65 351.785 424.516 351.65 424.35 351.65C424.184 351.65 424.05 351.785 424.05 351.95C424.05 352.116 424.184 352.25 424.35 352.25Z" fill="#30292C"/>
<path d="M391.05 383C385.8 383 381.55 378.75 381.55 373.5V299H400.55V373.5C400.55 378.75 396.3 383 391.05 383Z" fill="white"/>
<path d="M391.05 383C385.8 383 381.55 378.75 381.55 373.5V299H400.55V373.5C400.55 378.75 396.3 383 391.05 383Z" stroke="#30292C" stroke-width="2" stroke-miterlimit="10" stroke-linecap="round" stroke-linejoin="round"/>
<path d="M398.95 281.15H383.2V299H398.95V281.15Z" fill="#CE7867"/>
<path d="M398.95 281.15H383.2V299H398.95V281.15Z" stroke="#30292C" stroke-width="2" stroke-miterlimit="10" stroke-linecap="round" stroke-linejoin="round"/>
<path d="M402.05 291H380.05C377.85 291 376.05 292.8 376.05 295C376.05 297.2 377.85 299 380.05 299H402.05C404.25 299 406.05 297.2 406.05 295C406.05 292.8 404.25 291 402.05 291Z" fill="#D8D8D8"/>
<path d="M402.05 291H380.05C377.85 291 376.05 292.8 376.05 295C376.05 297.2 377.85 299 380.05 299H402.05C404.25 299 406.05 297.2 406.05 295C406.05 292.8 404.25 291 402.05 291Z" stroke="#30292C" stroke-width="2" stroke-miterlimit="10" stroke-linecap="round" stroke-linejoin="round"/>
<path d="M386.05 320V373.5C386.05 376.25 388.3 378.5 391.05 378.5C393.8 378.5 396.05 376.25 396.05 373.5V320H386.05Z" fill="#5CECFF"/>
<path d="M386.05 320V373.5C386.05 376.25 388.3 378.5 391.05 378.5C393.8 378.5 396.05 376.25 396.05 373.5V320H386.05Z" stroke="#30292C" stroke-width="2" stroke-miterlimit="10" stroke-linecap="round" stroke-linejoin="round"/>
<path d="M387.9 336.5C388.729 336.5 389.4 335.829 389.4 335C389.4 334.172 388.729 333.5 387.9 333.5C387.072 333.5 386.4 334.172 386.4 335C386.4 335.829 387.072 336.5 387.9 336.5Z" fill="#30292C"/>
<path d="M387.9 310.9C389.281 310.9 390.4 309.781 390.4 308.4C390.4 307.02 389.281 305.9 387.9 305.9C386.519 305.9 385.4 307.02 385.4 308.4C385.4 309.781 386.519 310.9 387.9 310.9Z" fill="#5CECFF"/>
<path d="M387.9 310.9C389.281 310.9 390.4 309.781 390.4 308.4C390.4 307.02 389.281 305.9 387.9 305.9C386.519 305.9 385.4 307.02 385.4 308.4C385.4 309.781 386.519 310.9 387.9 310.9Z" stroke="#30292C" stroke-width="2" stroke-miterlimit="10" stroke-linecap="round" stroke-linejoin="round"/>
<path d="M394.2 344C394.752 344 395.2 343.553 395.2 343C395.2 342.448 394.752 342 394.2 342C393.648 342 393.2 342.448 393.2 343C393.2 343.553 393.648 344 394.2 344Z" fill="#30292C"/>
<path d="M390.25 370.1C390.747 370.1 391.15 369.697 391.15 369.2C391.15 368.703 390.747 368.3 390.25 368.3C389.753 368.3 389.35 368.703 389.35 369.2C389.35 369.697 389.753 370.1 390.25 370.1Z" fill="#30292C"/>
<path d="M390.75 365.55C391.551 365.55 392.2 364.901 392.2 364.1C392.2 363.3 391.551 362.65 390.75 362.65C389.949 362.65 389.3 363.3 389.3 364.1C389.3 364.901 389.949 365.55 390.75 365.55Z" fill="#30292C"/>
<path d="M391.05 383C385.8 383 381.55 378.75 381.55 373.5V299H400.55V373.5C400.55 378.75 396.3 383 391.05 383Z" stroke="#30292C" stroke-width="2" stroke-miterlimit="10" stroke-linecap="round" stroke-linejoin="round"/>
<path d="M450 370.5H366.5V377.5H381.05C382.4 381.45 386.1 384.25 390.5 384.25C394.9 384.25 398.6 381.45 399.95 377.5H414.95C416.2 381.55 420 384.5 424.5 384.5C429 384.5 432.75 381.55 434.05 377.5H450V370.5Z" fill="#CCCCCC"/>
<path d="M450 370.5H366.5V377.5H381.05C382.4 381.45 386.1 384.25 390.5 384.25C394.9 384.25 398.6 381.45 399.95 377.5H414.95C416.2 381.55 420 384.5 424.5 384.5C429 384.5 432.75 381.55 434.05 377.5H450V370.5Z" stroke="#30292C" stroke-width="2" stroke-miterlimit="10" stroke-linecap="round" stroke-linejoin="round"/>
</svg>
