<svg width="420" height="420" viewBox="0 0 420 420" fill="none" xmlns="http://www.w3.org/2000/svg">
<path d="M420 0H0V420H420V0Z" fill="#07B594"/>
<path d="M283.08 291.48H167.16V125.16H283.08C287.238 125.16 290.64 128.436 290.64 132.594V283.794C290.64 287.994 287.238 291.48 283.08 291.48Z" fill="#0A7362" stroke="#0A7362" stroke-width="3.36" stroke-miterlimit="10" stroke-linecap="round" stroke-linejoin="round"/>
<path d="M266.7 294.84H260.82C259.644 294.84 258.72 293.916 258.72 292.74V123.9C258.72 122.724 259.644 121.8 260.82 121.8H266.7C267.876 121.8 268.8 122.724 268.8 123.9V292.74C268.8 293.916 267.876 294.84 266.7 294.84Z" fill="#0A7362" stroke="#0A7362" stroke-width="3.36" stroke-miterlimit="10" stroke-linecap="round" stroke-linejoin="round"/>
<path d="M192.78 310.674L180.18 303.66V291.48H192.78V310.674Z" fill="#0A7362" stroke="#0A7362" stroke-width="3.36" stroke-miterlimit="10" stroke-linecap="round" stroke-linejoin="round"/>
<path d="M278.88 285.18H162.96V118.86H278.88C283.038 118.86 286.44 122.136 286.44 126.294V277.494C286.44 281.694 283.038 285.18 278.88 285.18Z" fill="#4C5B60"/>
<mask id="mask0" style="mask-type:alpha" maskUnits="userSpaceOnUse" x="162" y="119" width="125" height="168">
<path d="M278.88 286.02H162.96V119.7H278.88C283.038 119.7 286.44 122.976 286.44 127.134V278.334C286.44 282.534 283.038 286.02 278.88 286.02Z" fill="white"/>
</mask>
<g mask="url(#mask0)">
<path opacity="0.11" d="M152.208 413.112C152.04 413.112 151.872 413.07 151.746 412.944C151.494 412.692 151.494 412.314 151.746 412.062L296.394 267.456C296.646 267.204 297.024 267.204 297.276 267.456C297.528 267.708 297.528 268.086 297.276 268.338L152.67 412.944C152.544 413.07 152.376 413.112 152.208 413.112Z" fill="#102D3B"/>
<path opacity="0.11" d="M152.208 407.232C152.04 407.232 151.872 407.19 151.746 407.064C151.494 406.812 151.494 406.434 151.746 406.182L296.394 261.576C296.646 261.324 297.024 261.324 297.276 261.576C297.528 261.828 297.528 262.206 297.276 262.458L152.67 407.064C152.544 407.19 152.376 407.232 152.208 407.232Z" fill="#102D3B"/>
<path opacity="0.11" d="M152.208 401.352C152.04 401.352 151.872 401.31 151.746 401.184C151.494 400.932 151.494 400.554 151.746 400.302L296.394 255.696C296.646 255.444 297.024 255.444 297.276 255.696C297.528 255.948 297.528 256.326 297.276 256.578L152.67 401.184C152.544 401.31 152.376 401.352 152.208 401.352Z" fill="#102D3B"/>
<path opacity="0.11" d="M152.208 395.472C152.04 395.472 151.872 395.43 151.746 395.304C151.494 395.052 151.494 394.674 151.746 394.422L296.394 249.816C296.646 249.564 297.024 249.564 297.276 249.816C297.528 250.068 297.528 250.446 297.276 250.698L152.67 395.304C152.544 395.43 152.376 395.472 152.208 395.472Z" fill="#102D3B"/>
<path opacity="0.11" d="M152.208 389.592C152.04 389.592 151.872 389.55 151.746 389.424C151.494 389.172 151.494 388.794 151.746 388.542L296.394 243.936C296.646 243.684 297.024 243.684 297.276 243.936C297.528 244.188 297.528 244.566 297.276 244.818L152.67 389.424C152.544 389.55 152.376 389.592 152.208 389.592Z" fill="#102D3B"/>
<path opacity="0.11" d="M152.208 383.712C152.04 383.712 151.872 383.67 151.746 383.544C151.494 383.292 151.494 382.914 151.746 382.662L296.394 238.056C296.646 237.804 297.024 237.804 297.276 238.056C297.528 238.308 297.528 238.686 297.276 238.938L152.67 383.544C152.544 383.67 152.376 383.712 152.208 383.712Z" fill="#102D3B"/>
<path opacity="0.11" d="M152.208 377.832C152.04 377.832 151.872 377.79 151.746 377.664C151.494 377.412 151.494 377.034 151.746 376.782L296.394 232.176C296.646 231.924 297.024 231.924 297.276 232.176C297.528 232.428 297.528 232.806 297.276 233.058L152.67 377.664C152.544 377.79 152.376 377.832 152.208 377.832Z" fill="#102D3B"/>
<path opacity="0.11" d="M152.208 371.952C152.04 371.952 151.872 371.91 151.746 371.784C151.494 371.532 151.494 371.154 151.746 370.902L296.394 226.296C296.646 226.044 297.024 226.044 297.276 226.296C297.528 226.548 297.528 226.926 297.276 227.178L152.67 371.784C152.544 371.91 152.376 371.952 152.208 371.952Z" fill="#102D3B"/>
<path opacity="0.11" d="M152.208 366.072C152.04 366.072 151.872 366.03 151.746 365.904C151.494 365.652 151.494 365.274 151.746 365.022L296.394 220.416C296.646 220.164 297.024 220.164 297.276 220.416C297.528 220.668 297.528 221.046 297.276 221.298L152.67 365.904C152.544 366.03 152.376 366.072 152.208 366.072Z" fill="#102D3B"/>
<path opacity="0.11" d="M152.208 360.192C152.04 360.192 151.872 360.15 151.746 360.024C151.494 359.772 151.494 359.394 151.746 359.142L296.394 214.536C296.646 214.284 297.024 214.284 297.276 214.536C297.528 214.788 297.528 215.166 297.276 215.418L152.67 360.024C152.544 360.15 152.376 360.192 152.208 360.192Z" fill="#102D3B"/>
<path opacity="0.11" d="M152.208 354.312C152.04 354.312 151.872 354.27 151.746 354.144C151.494 353.892 151.494 353.514 151.746 353.262L296.394 208.656C296.646 208.404 297.024 208.404 297.276 208.656C297.528 208.908 297.528 209.286 297.276 209.538L152.67 354.144C152.544 354.27 152.376 354.312 152.208 354.312Z" fill="#102D3B"/>
<path opacity="0.11" d="M152.208 348.432C152.04 348.432 151.872 348.39 151.746 348.264C151.494 348.012 151.494 347.634 151.746 347.382L296.394 202.776C296.646 202.524 297.024 202.524 297.276 202.776C297.528 203.028 297.528 203.406 297.276 203.658L152.67 348.264C152.544 348.39 152.376 348.432 152.208 348.432Z" fill="#102D3B"/>
<path opacity="0.11" d="M152.208 342.552C152.04 342.552 151.872 342.51 151.746 342.384C151.494 342.132 151.494 341.754 151.746 341.502L296.394 196.896C296.646 196.644 297.024 196.644 297.276 196.896C297.528 197.148 297.528 197.526 297.276 197.778L152.67 342.384C152.544 342.51 152.376 342.552 152.208 342.552Z" fill="#102D3B"/>
<path opacity="0.11" d="M152.208 336.672C152.04 336.672 151.872 336.63 151.746 336.504C151.494 336.252 151.494 335.874 151.746 335.622L296.394 191.016C296.646 190.764 297.024 190.764 297.276 191.016C297.528 191.268 297.528 191.646 297.276 191.898L152.67 336.504C152.544 336.63 152.376 336.672 152.208 336.672Z" fill="#102D3B"/>
<path opacity="0.11" d="M152.208 330.792C152.04 330.792 151.872 330.75 151.746 330.624C151.494 330.372 151.494 329.994 151.746 329.742L296.394 185.136C296.646 184.884 297.024 184.884 297.276 185.136C297.528 185.388 297.528 185.766 297.276 186.018L152.67 330.624C152.544 330.75 152.376 330.792 152.208 330.792Z" fill="#102D3B"/>
<path opacity="0.11" d="M152.208 324.912C152.04 324.912 151.872 324.87 151.746 324.744C151.494 324.492 151.494 324.114 151.746 323.862L296.394 179.256C296.646 179.004 297.024 179.004 297.276 179.256C297.528 179.508 297.528 179.886 297.276 180.138L152.67 324.744C152.544 324.87 152.376 324.912 152.208 324.912Z" fill="#102D3B"/>
<path opacity="0.11" d="M152.208 319.032C152.04 319.032 151.872 318.99 151.746 318.864C151.494 318.612 151.494 318.234 151.746 317.982L296.394 173.376C296.646 173.124 297.024 173.124 297.276 173.376C297.528 173.628 297.528 174.006 297.276 174.258L152.67 318.864C152.544 318.99 152.376 319.032 152.208 319.032Z" fill="#102D3B"/>
<path opacity="0.11" d="M152.208 313.152C152.04 313.152 151.872 313.11 151.746 312.984C151.494 312.732 151.494 312.354 151.746 312.102L296.394 167.496C296.646 167.244 297.024 167.244 297.276 167.496C297.528 167.748 297.528 168.126 297.276 168.378L152.67 312.984C152.544 313.11 152.376 313.152 152.208 313.152Z" fill="#102D3B"/>
<path opacity="0.11" d="M152.208 307.272C152.04 307.272 151.872 307.23 151.746 307.104C151.494 306.852 151.494 306.474 151.746 306.222L296.394 161.616C296.646 161.364 297.024 161.364 297.276 161.616C297.528 161.868 297.528 162.246 297.276 162.498L152.67 307.104C152.544 307.23 152.376 307.272 152.208 307.272Z" fill="#102D3B"/>
<path opacity="0.11" d="M152.208 301.392C152.04 301.392 151.872 301.35 151.746 301.224C151.494 300.972 151.494 300.594 151.746 300.342L296.394 155.736C296.646 155.484 297.024 155.484 297.276 155.736C297.528 155.988 297.528 156.366 297.276 156.618L152.67 301.224C152.544 301.35 152.376 301.392 152.208 301.392Z" fill="#102D3B"/>
<path opacity="0.11" d="M152.208 295.512C152.04 295.512 151.872 295.47 151.746 295.344C151.494 295.092 151.494 294.714 151.746 294.462L296.394 149.856C296.646 149.604 297.024 149.604 297.276 149.856C297.528 150.108 297.528 150.486 297.276 150.738L152.67 295.344C152.544 295.47 152.376 295.512 152.208 295.512Z" fill="#102D3B"/>
<path opacity="0.11" d="M152.208 289.632C152.04 289.632 151.872 289.59 151.746 289.464C151.494 289.212 151.494 288.834 151.746 288.582L296.394 143.976C296.646 143.724 297.024 143.724 297.276 143.976C297.528 144.228 297.528 144.606 297.276 144.858L152.67 289.464C152.544 289.59 152.376 289.632 152.208 289.632Z" fill="#102D3B"/>
<path opacity="0.11" d="M152.208 283.752C152.04 283.752 151.872 283.71 151.746 283.584C151.494 283.332 151.494 282.954 151.746 282.702L296.394 138.096C296.646 137.844 297.024 137.844 297.276 138.096C297.528 138.348 297.528 138.726 297.276 138.978L152.67 283.584C152.544 283.71 152.376 283.752 152.208 283.752Z" fill="#102D3B"/>
<path opacity="0.11" d="M152.208 277.872C152.04 277.872 151.872 277.83 151.746 277.704C151.494 277.452 151.494 277.074 151.746 276.822L296.394 132.216C296.646 131.964 297.024 131.964 297.276 132.216C297.528 132.468 297.528 132.846 297.276 133.098L152.67 277.704C152.544 277.83 152.376 277.872 152.208 277.872Z" fill="#102D3B"/>
<path opacity="0.11" d="M152.208 271.992C152.04 271.992 151.872 271.95 151.746 271.824C151.494 271.572 151.494 271.194 151.746 270.942L296.394 126.336C296.646 126.084 297.024 126.084 297.276 126.336C297.528 126.588 297.528 126.966 297.276 127.218L152.67 271.824C152.544 271.95 152.376 271.992 152.208 271.992Z" fill="#102D3B"/>
<path opacity="0.11" d="M152.208 266.112C152.04 266.112 151.872 266.07 151.746 265.944C151.494 265.692 151.494 265.314 151.746 265.062L296.394 120.456C296.646 120.204 297.024 120.204 297.276 120.456C297.528 120.708 297.528 121.086 297.276 121.338L152.67 265.944C152.544 266.07 152.376 266.112 152.208 266.112Z" fill="#102D3B"/>
<path opacity="0.11" d="M152.208 260.232C152.04 260.232 151.872 260.19 151.746 260.064C151.494 259.812 151.494 259.434 151.746 259.182L296.394 114.576C296.646 114.324 297.024 114.324 297.276 114.576C297.528 114.828 297.528 115.206 297.276 115.458L152.67 260.064C152.544 260.19 152.376 260.232 152.208 260.232Z" fill="#102D3B"/>
<path opacity="0.11" d="M152.208 254.352C152.04 254.352 151.872 254.31 151.746 254.184C151.494 253.932 151.494 253.554 151.746 253.302L296.394 108.696C296.646 108.444 297.024 108.444 297.276 108.696C297.528 108.948 297.528 109.326 297.276 109.578L152.67 254.184C152.544 254.31 152.376 254.352 152.208 254.352Z" fill="#102D3B"/>
<path opacity="0.11" d="M152.208 248.472C152.04 248.472 151.872 248.43 151.746 248.304C151.494 248.052 151.494 247.674 151.746 247.422L296.394 102.816C296.646 102.564 297.024 102.564 297.276 102.816C297.528 103.068 297.528 103.446 297.276 103.698L152.67 248.304C152.544 248.43 152.376 248.472 152.208 248.472Z" fill="#102D3B"/>
<path opacity="0.11" d="M152.208 242.592C152.04 242.592 151.872 242.55 151.746 242.424C151.494 242.172 151.494 241.794 151.746 241.542L296.394 96.9363C296.646 96.6843 297.024 96.6843 297.276 96.9363C297.528 97.1883 297.528 97.5663 297.276 97.8183L152.67 242.424C152.544 242.55 152.376 242.592 152.208 242.592Z" fill="#102D3B"/>
<path opacity="0.11" d="M152.208 236.712C152.04 236.712 151.872 236.67 151.746 236.544C151.494 236.292 151.494 235.914 151.746 235.662L296.394 91.0562C296.646 90.8042 297.024 90.8042 297.276 91.0562C297.528 91.3082 297.528 91.6862 297.276 91.9382L152.67 236.544C152.544 236.67 152.376 236.712 152.208 236.712Z" fill="#102D3B"/>
<path opacity="0.11" d="M152.208 230.832C152.04 230.832 151.872 230.79 151.746 230.664C151.494 230.412 151.494 230.034 151.746 229.782L296.394 85.1763C296.646 84.9243 297.024 84.9243 297.276 85.1763C297.528 85.4283 297.528 85.8063 297.276 86.0583L152.67 230.664C152.544 230.79 152.376 230.832 152.208 230.832Z" fill="#102D3B"/>
<path opacity="0.11" d="M152.208 224.952C152.04 224.952 151.872 224.91 151.746 224.784C151.494 224.532 151.494 224.154 151.746 223.902L296.394 79.2962C296.646 79.0442 297.024 79.0442 297.276 79.2962C297.528 79.5482 297.528 79.9262 297.276 80.1782L152.67 224.784C152.544 224.91 152.376 224.952 152.208 224.952Z" fill="#102D3B"/>
<path opacity="0.11" d="M152.208 219.072C152.04 219.072 151.872 219.03 151.746 218.904C151.494 218.652 151.494 218.274 151.746 218.022L296.394 73.4163C296.646 73.1643 297.024 73.1643 297.276 73.4163C297.528 73.6683 297.528 74.0463 297.276 74.2983L152.67 218.904C152.544 219.03 152.376 219.072 152.208 219.072Z" fill="#102D3B"/>
<path opacity="0.11" d="M152.208 213.192C152.04 213.192 151.872 213.15 151.746 213.024C151.494 212.772 151.494 212.394 151.746 212.142L296.394 67.5362C296.646 67.2842 297.024 67.2842 297.276 67.5362C297.528 67.7882 297.528 68.1662 297.276 68.4182L152.67 213.024C152.544 213.15 152.376 213.192 152.208 213.192Z" fill="#102D3B"/>
<path opacity="0.11" d="M152.208 207.312C152.04 207.312 151.872 207.27 151.746 207.144C151.494 206.892 151.494 206.514 151.746 206.262L296.394 61.6563C296.646 61.4043 297.024 61.4043 297.276 61.6563C297.528 61.9083 297.528 62.2863 297.276 62.5383L152.67 207.144C152.544 207.27 152.376 207.312 152.208 207.312Z" fill="#102D3B"/>
<path opacity="0.11" d="M152.208 201.432C152.04 201.432 151.872 201.39 151.746 201.264C151.494 201.012 151.494 200.634 151.746 200.382L296.394 55.7762C296.646 55.5242 297.024 55.5242 297.276 55.7762C297.528 56.0282 297.528 56.4062 297.276 56.6582L152.67 201.264C152.544 201.39 152.376 201.432 152.208 201.432Z" fill="#102D3B"/>
<path opacity="0.11" d="M152.208 195.552C152.04 195.552 151.872 195.51 151.746 195.384C151.494 195.132 151.494 194.754 151.746 194.502L296.394 49.854C296.646 49.602 297.024 49.602 297.276 49.854C297.528 50.106 297.528 50.484 297.276 50.736L152.67 195.384C152.544 195.51 152.376 195.552 152.208 195.552Z" fill="#102D3B"/>
<path opacity="0.11" d="M152.208 189.672C152.04 189.672 151.872 189.63 151.746 189.504C151.494 189.252 151.494 188.874 151.746 188.622L296.394 43.9739C296.646 43.7219 297.024 43.7219 297.276 43.9739C297.528 44.2259 297.528 44.6039 297.276 44.8559L152.67 189.504C152.544 189.63 152.376 189.672 152.208 189.672Z" fill="#102D3B"/>
<path opacity="0.11" d="M152.208 183.792C152.04 183.792 151.872 183.75 151.746 183.624C151.494 183.372 151.494 182.994 151.746 182.742L296.394 38.0523C296.646 37.8003 297.024 37.8003 297.276 38.0523C297.528 38.3043 297.528 38.6823 297.276 38.9343L152.67 183.624C152.544 183.75 152.376 183.792 152.208 183.792Z" fill="#102D3B"/>
<path opacity="0.11" d="M152.208 177.912C152.04 177.912 151.872 177.87 151.746 177.744C151.494 177.492 151.494 177.114 151.746 176.862L296.394 32.1722C296.646 31.9202 297.024 31.9202 297.276 32.1722C297.528 32.4242 297.528 32.8022 297.276 33.0542L152.67 177.744C152.544 177.87 152.376 177.912 152.208 177.912Z" fill="#102D3B"/>
<path opacity="0.11" d="M152.208 172.032C152.04 172.032 151.872 171.99 151.746 171.864C151.494 171.612 151.494 171.234 151.746 170.982L296.394 26.2923C296.646 26.0403 297.024 26.0403 297.276 26.2923C297.528 26.5443 297.528 26.9223 297.276 27.1743L152.67 171.864C152.544 171.99 152.376 172.032 152.208 172.032Z" fill="#102D3B"/>
<path opacity="0.11" d="M152.208 166.152C152.04 166.152 151.872 166.11 151.746 165.984C151.494 165.732 151.494 165.354 151.746 165.102L296.394 20.4121C296.646 20.1601 297.024 20.1601 297.276 20.4121C297.528 20.6641 297.528 21.0421 297.276 21.2941L152.67 165.984C152.544 166.11 152.376 166.152 152.208 166.152Z" fill="#102D3B"/>
<path opacity="0.11" d="M152.208 160.272C152.04 160.272 151.872 160.23 151.746 160.104C151.494 159.852 151.494 159.474 151.746 159.222L296.394 14.5323C296.646 14.2803 297.024 14.2803 297.276 14.5323C297.528 14.7843 297.528 15.1623 297.276 15.4143L152.67 160.104C152.544 160.23 152.376 160.272 152.208 160.272Z" fill="#102D3B"/>
<path opacity="0.11" d="M152.208 154.392C152.04 154.392 151.872 154.35 151.746 154.224C151.494 153.972 151.494 153.594 151.746 153.342L296.394 8.65213C296.646 8.40013 297.024 8.40013 297.276 8.65213C297.528 8.90413 297.528 9.28213 297.276 9.53413L152.67 154.224C152.544 154.35 152.376 154.392 152.208 154.392Z" fill="#102D3B"/>
<path opacity="0.11" d="M152.208 148.512C152.04 148.512 151.872 148.47 151.746 148.344C151.494 148.092 151.494 147.714 151.746 147.462L296.394 2.77225C296.646 2.52025 297.024 2.52025 297.276 2.77225C297.528 3.02425 297.528 3.40225 297.276 3.65425L152.67 148.344C152.544 148.47 152.376 148.512 152.208 148.512Z" fill="#102D3B"/>
<path opacity="0.11" d="M152.208 142.632C152.04 142.632 151.872 142.59 151.746 142.464C151.494 142.212 151.494 141.834 151.746 141.582L283.122 10.1221C283.374 9.87011 283.752 9.87011 284.004 10.1221C284.256 10.3741 284.256 10.7521 284.004 11.0041L152.67 142.464C152.544 142.59 152.376 142.632 152.208 142.632Z" fill="#102D3B"/>
<path opacity="0.11" d="M152.208 136.752C152.04 136.752 151.872 136.71 151.746 136.584C151.494 136.332 151.494 135.954 151.746 135.702L274.974 12.4322C275.226 12.1802 275.604 12.1802 275.856 12.4322C276.108 12.6842 276.108 13.0622 275.856 13.3142L152.67 136.584C152.544 136.71 152.376 136.752 152.208 136.752Z" fill="#102D3B"/>
</g>
<path d="M269.22 118.86H259.14V285.18H269.22V118.86Z" fill="#3E4B4F"/>
<path opacity="0.3" d="M170.1 118.86H162.96V285.18H170.1V118.86Z" fill="#CCDDE5"/>
<path d="M278.88 285.18H162.96V118.86H278.88C283.038 118.86 286.44 122.136 286.44 126.294V277.494C286.44 281.694 283.038 285.18 278.88 285.18Z" stroke="#102D3B" stroke-width="3.36" stroke-miterlimit="10" stroke-linecap="round" stroke-linejoin="round"/>
<path d="M177.24 118.86H162.96V285.18H177.24V118.86Z" stroke="#102D3B" stroke-width="3.36" stroke-miterlimit="10" stroke-linecap="round" stroke-linejoin="round"/>
<path d="M286.44 166.74H162.96V213.78H286.44V166.74Z" fill="#FF9852"/>
<path d="M218.064 181.188C218.064 182.07 217.896 182.784 217.56 183.33C217.224 183.876 216.846 184.296 216.426 184.632C215.796 185.136 214.956 185.346 213.822 185.346H209.16V176.694H212.772C213.318 176.694 213.78 176.736 214.158 176.778C214.536 176.82 214.872 176.904 215.208 177.03C215.544 177.156 215.796 177.24 216.006 177.366C216.216 177.492 216.426 177.618 216.594 177.786C216.888 178.038 217.14 178.332 217.35 178.626C217.56 178.92 217.77 179.34 217.896 179.76C218.022 180.222 218.064 180.684 218.064 181.188ZM215.418 181.104C215.418 180.39 215.292 179.844 214.998 179.466C214.746 179.088 214.41 178.794 214.032 178.668C213.654 178.542 213.276 178.458 212.898 178.458H211.806V183.582H212.898C213.57 183.582 214.158 183.414 214.662 183.078C215.166 182.742 215.418 182.112 215.418 181.104Z" fill="#D85639"/>
<path d="M228.942 181.02C228.942 181.818 228.774 182.574 228.396 183.246C228.018 183.918 227.472 184.464 226.716 184.842C225.96 185.22 225.078 185.43 224.028 185.43C222.978 185.43 222.054 185.22 221.298 184.8C220.542 184.38 219.996 183.834 219.66 183.162C219.282 182.49 219.114 181.776 219.114 180.978C219.114 180.18 219.282 179.466 219.66 178.794C220.038 178.122 220.584 177.576 221.298 177.156C222.054 176.736 222.936 176.526 224.028 176.526C224.826 176.526 225.54 176.652 226.17 176.862C226.8 177.072 227.304 177.408 227.724 177.828C228.144 178.248 228.438 178.71 228.648 179.256C228.858 179.802 228.942 180.432 228.942 181.02ZM226.296 181.02C226.296 180.684 226.254 180.39 226.17 180.138C226.086 179.886 225.918 179.634 225.75 179.424C225.54 179.214 225.33 179.088 225.036 178.962C224.742 178.836 224.448 178.794 224.07 178.794C223.356 178.794 222.81 179.004 222.432 179.424C222.054 179.844 221.844 180.348 221.844 181.02C221.844 181.692 222.054 182.196 222.432 182.616C222.852 183.036 223.398 183.246 224.07 183.246C224.532 183.246 224.952 183.162 225.288 182.952C225.624 182.742 225.876 182.49 226.044 182.154C226.17 181.86 226.296 181.482 226.296 181.02Z" fill="#D85639"/>
<path d="M238.098 178.836H234.948V185.388H232.344V178.836H229.194V176.736H238.14L238.098 178.836Z" fill="#D85639"/>
<path d="M217.35 195.048C217.182 195.132 217.014 195.174 216.888 195.216C216.762 195.258 216.636 195.3 216.51 195.342C216.384 195.384 216.216 195.426 215.964 195.468C215.586 195.552 215.166 195.636 214.788 195.678C214.41 195.72 213.99 195.762 213.528 195.762C212.646 195.762 211.848 195.594 211.092 195.3C210.336 194.964 209.748 194.502 209.286 193.83C208.824 193.158 208.614 192.318 208.614 191.352C208.614 190.722 208.74 190.092 208.95 189.504C209.16 188.916 209.538 188.412 210 188.034C210.378 187.74 210.798 187.488 211.176 187.32C211.596 187.152 211.974 187.068 212.352 186.984C212.73 186.942 213.15 186.9 213.612 186.9C214.368 186.9 214.998 186.942 215.502 187.068C216.006 187.194 216.552 187.32 217.14 187.53V189.588C216.762 189.378 216.342 189.168 215.88 189C215.46 188.832 214.914 188.79 214.242 188.79C213.486 188.79 212.898 188.916 212.436 189.21C211.974 189.504 211.68 189.84 211.512 190.218C211.344 190.596 211.26 191.016 211.26 191.352C211.26 191.772 211.344 192.192 211.554 192.57C211.764 192.948 212.058 193.242 212.478 193.452C212.898 193.662 213.402 193.788 213.948 193.788C214.284 193.788 214.62 193.746 214.998 193.662V192.654H213.822V190.932H217.266V195.048H217.35Z" fill="#D85639"/>
<path d="M227.766 195.678H224.952L224.28 194.124C224.028 193.578 223.818 193.158 223.608 192.906C223.398 192.654 223.23 192.486 223.02 192.402C222.81 192.318 222.6 192.276 222.306 192.276H222.012V195.636H219.408V186.984H223.86C224.574 186.984 225.162 187.11 225.624 187.404C226.086 187.698 226.422 188.034 226.632 188.454C226.842 188.874 226.926 189.252 226.926 189.63C226.926 190.05 226.842 190.428 226.674 190.722C226.506 191.016 226.338 191.226 226.128 191.394C225.96 191.52 225.75 191.646 225.498 191.772C225.792 191.94 226.002 192.108 226.17 192.36C226.338 192.612 226.59 193.032 226.926 193.704L227.766 195.678ZM224.238 189.756C224.238 189.336 224.112 189.084 223.86 188.916C223.608 188.748 223.188 188.664 222.6 188.664H222.054V190.764H222.6C223.23 190.764 223.692 190.68 223.902 190.554C224.112 190.428 224.238 190.134 224.238 189.756Z" fill="#D85639"/>
<path d="M231.546 195.678H228.942V187.026H231.546V195.678Z" fill="#D85639"/>
<path d="M242.634 191.478C242.634 192.36 242.466 193.074 242.13 193.62C241.794 194.166 241.416 194.586 240.996 194.922C240.366 195.426 239.526 195.636 238.392 195.636H233.73V186.984H237.342C237.888 186.984 238.35 187.026 238.728 187.068C239.106 187.11 239.442 187.194 239.778 187.32C240.114 187.446 240.366 187.53 240.576 187.656C240.786 187.782 240.996 187.908 241.164 188.076C241.458 188.328 241.71 188.622 241.92 188.916C242.13 189.21 242.34 189.63 242.466 190.05C242.55 190.512 242.634 190.974 242.634 191.478ZM239.988 191.394C239.988 190.68 239.862 190.134 239.568 189.756C239.316 189.378 238.98 189.084 238.602 188.958C238.224 188.832 237.846 188.748 237.468 188.748H236.376V193.872H237.468C238.14 193.872 238.728 193.704 239.232 193.368C239.736 193.032 239.988 192.402 239.988 191.394Z" fill="#D85639"/>
<path d="M217.098 203.49C217.098 204.246 216.846 204.834 216.342 205.254C215.838 205.716 215.124 205.926 214.2 205.926H209.202V197.274H213.36C213.906 197.274 214.368 197.316 214.788 197.442C215.208 197.526 215.502 197.694 215.754 197.862C216.006 198.03 216.174 198.24 216.3 198.492C216.426 198.744 216.468 198.996 216.468 199.29C216.468 199.626 216.426 199.878 216.3 200.172C216.174 200.466 216.006 200.676 215.838 200.844C215.67 201.012 215.46 201.138 215.292 201.222C215.88 201.474 216.342 201.768 216.636 202.104C216.93 202.44 217.098 202.944 217.098 203.49ZM214.032 199.794C214.032 199.374 213.906 199.122 213.612 198.954C213.318 198.786 212.898 198.744 212.31 198.744H211.764V200.802H212.31C212.898 200.802 213.318 200.718 213.612 200.592C213.906 200.508 214.032 200.214 214.032 199.794ZM214.452 203.406C214.452 202.65 213.906 202.314 212.856 202.314H211.806V204.54H212.856C213.948 204.498 214.452 204.12 214.452 203.406Z" fill="#D85639"/>
<path d="M228.018 201.642C228.018 202.44 227.85 203.196 227.472 203.868C227.094 204.54 226.548 205.086 225.792 205.464C225.036 205.842 224.154 206.052 223.104 206.052C222.054 206.052 221.13 205.842 220.374 205.422C219.618 205.002 219.072 204.456 218.736 203.784C218.358 203.112 218.19 202.398 218.19 201.6C218.19 200.802 218.358 200.088 218.736 199.416C219.114 198.744 219.66 198.198 220.374 197.778C221.13 197.358 222.012 197.148 223.104 197.148C223.902 197.148 224.616 197.274 225.246 197.484C225.876 197.694 226.38 198.03 226.8 198.45C227.22 198.87 227.514 199.332 227.724 199.878C227.934 200.424 228.018 201.012 228.018 201.642ZM225.33 201.642C225.33 201.306 225.288 201.012 225.204 200.76C225.12 200.508 224.952 200.256 224.784 200.046C224.574 199.836 224.364 199.71 224.07 199.584C223.776 199.458 223.482 199.416 223.104 199.416C222.39 199.416 221.844 199.626 221.466 200.046C221.088 200.466 220.878 200.97 220.878 201.642C220.878 202.314 221.088 202.818 221.466 203.238C221.886 203.658 222.432 203.868 223.104 203.868C223.566 203.868 223.986 203.784 224.322 203.574C224.658 203.364 224.91 203.112 225.078 202.776C225.246 202.44 225.33 202.062 225.33 201.642Z" fill="#D85639"/>
<path d="M238.854 201.642C238.854 202.44 238.686 203.196 238.308 203.868C237.93 204.54 237.384 205.086 236.628 205.464C235.872 205.842 234.99 206.052 233.94 206.052C232.89 206.052 231.966 205.842 231.21 205.422C230.454 205.002 229.908 204.456 229.572 203.784C229.194 203.112 229.026 202.398 229.026 201.6C229.026 200.802 229.194 200.088 229.572 199.416C229.95 198.744 230.496 198.198 231.21 197.778C231.966 197.358 232.848 197.148 233.94 197.148C234.738 197.148 235.452 197.274 236.082 197.484C236.712 197.694 237.216 198.03 237.636 198.45C238.056 198.87 238.35 199.332 238.56 199.878C238.77 200.424 238.854 201.012 238.854 201.642ZM236.208 201.642C236.208 201.306 236.166 201.012 236.082 200.76C235.998 200.508 235.83 200.256 235.662 200.046C235.452 199.836 235.242 199.71 234.948 199.584C234.654 199.458 234.36 199.416 233.982 199.416C233.268 199.416 232.722 199.626 232.344 200.046C231.966 200.466 231.756 200.97 231.756 201.642C231.756 202.314 231.966 202.818 232.344 203.238C232.764 203.658 233.31 203.868 233.982 203.868C234.444 203.868 234.864 203.784 235.2 203.574C235.536 203.364 235.788 203.112 235.956 202.776C236.124 202.44 236.208 202.062 236.208 201.642Z" fill="#D85639"/>
<path d="M249.564 205.968H246.372L243.054 201.936V205.968H240.45V197.316H243.054V201.18L246.204 197.316H249.018L245.784 201.348L249.564 205.968Z" fill="#D85639"/>
<path opacity="0.6" d="M177.24 166.74V213.78" stroke="#D85639" stroke-width="3.36" stroke-miterlimit="10"/>
<path d="M170.1 166.74H162.96V213.78H170.1V166.74Z" fill="#FDBA5D"/>
<path opacity="0.61" d="M269.22 166.74H262.08V213.78H269.22V166.74Z" fill="#D85639"/>
<path d="M286.44 166.74H162.96V213.78H286.44V166.74Z" stroke="#102D3B" stroke-width="3.36" stroke-miterlimit="10" stroke-linecap="round" stroke-linejoin="round"/>
<path d="M262.164 288.54H256.998C255.654 288.54 254.562 287.448 254.562 286.104V117.936C254.562 116.592 255.654 115.5 256.998 115.5H262.164C263.508 115.5 264.6 116.592 264.6 117.936V286.062C264.6 287.448 263.508 288.54 262.164 288.54Z" fill="#B7C8CE"/>
<path d="M262.164 288.54H256.998C255.654 288.54 254.562 287.448 254.562 286.104V117.936C254.562 116.592 255.654 115.5 256.998 115.5H262.164C263.508 115.5 264.6 116.592 264.6 117.936V286.062C264.6 287.448 263.508 288.54 262.164 288.54Z" stroke="#102D3B" stroke-width="3.36" stroke-miterlimit="10" stroke-linecap="round" stroke-linejoin="round"/>
<path d="M188.58 304.374L175.98 297.36V285.18H188.58V304.374Z" fill="#EA3939"/>
<path opacity="0.62" d="M188.58 285.18H175.98V289.926H188.58V285.18Z" fill="#EA3939"/>
<path d="M188.58 304.374L175.98 297.36V285.18H188.58V304.374Z" stroke="#102D3B" stroke-width="3.36" stroke-miterlimit="10" stroke-linecap="round" stroke-linejoin="round"/>
<path d="M138.18 154.14H124.74V217.56H138.18V154.14Z" fill="#0A7362" stroke="#0A7362" stroke-width="3.36" stroke-miterlimit="10" stroke-linecap="round" stroke-linejoin="round"/>
<path d="M138.348 260.4C133.812 260.4 129.234 260.4 124.698 260.4C123.816 251.16 123.816 241.5 124.698 231.84C129.234 231.84 133.812 231.84 138.348 231.84C139.23 241.5 139.23 251.16 138.348 260.4Z" fill="#0A7362" stroke="#0A7362" stroke-width="3.36" stroke-miterlimit="10" stroke-linecap="round" stroke-linejoin="round"/>
<path d="M138.348 231.84C133.812 231.84 129.234 231.84 124.698 231.84C127.512 227.64 127.512 222.18 124.698 217.56C129.234 217.56 133.812 217.56 138.348 217.56C135.534 222.18 135.534 227.64 138.348 231.84Z" fill="#0A7362" stroke="#0A7362" stroke-width="3.36" stroke-miterlimit="10" stroke-linecap="round" stroke-linejoin="round"/>
<path d="M133.266 280.14C135.534 273.42 138.264 267.12 138.348 260.4H124.698C124.782 267.12 127.512 273.42 129.78 280.14H133.266Z" fill="#0A7362" stroke="#0A7362" stroke-width="3.36" stroke-miterlimit="10" stroke-linecap="round" stroke-linejoin="round"/>
<path d="M133.14 280.14H129.78V282.66H133.14V280.14Z" fill="#0A7362" stroke="#0A7362" stroke-width="3.36" stroke-miterlimit="10" stroke-linecap="round" stroke-linejoin="round"/>
<path d="M131.46 283.08V288.54" stroke="#0A7362" stroke-width="3.36" stroke-miterlimit="10" stroke-linecap="round" stroke-linejoin="round"/>
<path d="M136.5 144.9H126.42V154.14H136.5V144.9Z" fill="#0A7362" stroke="#0A7362" stroke-width="3.36" stroke-miterlimit="10" stroke-linecap="round" stroke-linejoin="round"/>
<path d="M135.24 144.9H127.68V134.106C127.68 132.636 129.024 131.46 130.494 131.46H132.594C134.064 131.46 135.24 132.636 135.24 134.106V144.9Z" fill="#0A7362" stroke="#0A7362" stroke-width="3.36" stroke-miterlimit="10" stroke-linecap="round" stroke-linejoin="round"/>
<path d="M142.8 160.02H129.78V167.58H142.8V160.02Z" fill="#0A7362" stroke="#0A7362" stroke-width="3.36" stroke-miterlimit="10" stroke-linecap="round" stroke-linejoin="round"/>
<path d="M142.8 193.326L138.18 187.236V167.58H142.8V193.326Z" fill="#0A7362" stroke="#0A7362" stroke-width="3.36" stroke-miterlimit="10" stroke-linecap="round" stroke-linejoin="round"/>
<path d="M135.408 229.74C130.872 229.74 126.294 229.74 121.758 229.74C124.572 225.54 124.572 220.08 121.758 215.46C126.294 215.46 130.872 215.46 135.408 215.46C132.594 220.08 132.594 225.54 135.408 229.74Z" fill="#102D3B"/>
<path d="M135.24 152.04H121.8V215.46H135.24V152.04Z" fill="#526066"/>
<path d="M135.24 152.04H121.8V215.46H135.24V152.04Z" fill="#526066"/>
<path opacity="0.64" d="M126 152.04H121.8V215.46H126V152.04Z" fill="#526066"/>
<path opacity="0.3" d="M135.24 152.04H131.46V215.46H135.24V152.04Z" fill="#526066"/>
<path d="M135.24 152.04H121.8V215.46H135.24V152.04Z" stroke="#102D3B" stroke-width="3.36" stroke-miterlimit="10" stroke-linecap="round" stroke-linejoin="round"/>
<path d="M135.408 258.3C130.872 258.3 126.294 258.3 121.758 258.3C120.876 249.06 120.876 239.4 121.758 229.74C126.294 229.74 130.872 229.74 135.408 229.74C136.29 239.4 136.29 249.06 135.408 258.3Z" fill="#42708A"/>
<path d="M135.408 258.3C130.872 258.3 126.294 258.3 121.758 258.3C120.876 249.06 120.876 239.4 121.758 229.74C126.294 229.74 130.872 229.74 135.408 229.74C136.29 239.4 136.29 249.06 135.408 258.3Z" fill="#526066"/>
<path opacity="0.3" d="M135.408 229.74C134.316 229.74 133.224 229.74 132.132 229.74C133.014 239.4 133.014 249.06 132.132 258.3C133.224 258.3 134.316 258.3 135.408 258.3C136.29 249.06 136.29 239.4 135.408 229.74Z" fill="#526066"/>
<path opacity="0.73" d="M126.588 257.88C125.916 257.88 125.286 257.88 124.614 257.88C123.732 248.766 123.732 239.274 124.572 229.74C125.244 229.74 125.916 229.74 126.588 229.74C125.748 239.274 125.748 248.766 126.588 257.88Z" fill="#CCDDE5"/>
<path d="M135.408 258.3C130.872 258.3 126.294 258.3 121.758 258.3C120.876 249.06 120.876 239.4 121.758 229.74C126.294 229.74 130.872 229.74 135.408 229.74C136.29 239.4 136.29 249.06 135.408 258.3Z" stroke="#102D3B" stroke-width="3.36" stroke-miterlimit="10" stroke-linecap="round" stroke-linejoin="round"/>
<path d="M136.08 239.82H120.96V248.64H136.08V239.82Z" stroke="#102D3B" stroke-width="3.36" stroke-miterlimit="10" stroke-linecap="round" stroke-linejoin="round"/>
<path d="M135.408 229.74C130.872 229.74 126.294 229.74 121.758 229.74C124.572 225.54 124.572 220.08 121.758 215.46C126.294 215.46 130.872 215.46 135.408 215.46C132.594 220.08 132.594 225.54 135.408 229.74Z" stroke="#102D3B" stroke-width="3.36" stroke-miterlimit="10" stroke-linecap="round" stroke-linejoin="round"/>
<path d="M130.326 278.04C132.594 271.32 135.324 265.02 135.408 258.3H121.758C121.842 265.02 124.572 271.32 126.84 278.04H130.326Z" fill="#CCDDE5"/>
<path d="M135.408 258.3C135.408 258.426 135.408 258.594 135.408 258.72H126.42C126.462 265.314 127.638 271.614 129.024 278.04H126.84C124.572 271.32 121.842 265.02 121.758 258.3H135.408Z" fill="white"/>
<path d="M130.326 278.04C132.594 271.32 135.324 265.02 135.408 258.3H121.758C121.842 265.02 124.572 271.32 126.84 278.04H130.326Z" stroke="#102D3B" stroke-width="3.36" stroke-miterlimit="10" stroke-linecap="round" stroke-linejoin="round"/>
<path d="M130.2 278.04H126.84V280.56H130.2V278.04Z" stroke="#102D3B" stroke-width="3.36" stroke-miterlimit="10" stroke-linecap="round" stroke-linejoin="round"/>
<path d="M128.52 280.98V286.44" stroke="#102D3B" stroke-width="3.36" stroke-miterlimit="10" stroke-linecap="round" stroke-linejoin="round"/>
<path d="M133.56 142.8H123.48V152.04H133.56V142.8Z" stroke="#102D3B" stroke-width="3.36" stroke-miterlimit="10" stroke-linecap="round" stroke-linejoin="round"/>
<path d="M133.56 142.8H123.48V152.04H133.56V142.8Z" fill="#102D3B"/>
<path d="M132.3 142.8H124.74V132.006C124.74 130.536 126.084 129.36 127.554 129.36H129.654C131.124 129.36 132.3 130.536 132.3 132.006V142.8Z" fill="#CCDDE5"/>
<path d="M132.3 142.8H124.74V132.006C124.74 130.536 126.084 129.36 127.554 129.36H129.654C131.124 129.36 132.3 130.536 132.3 132.006V142.8Z" stroke="#102D3B" stroke-width="3.36" stroke-miterlimit="10" stroke-linecap="round" stroke-linejoin="round"/>
<path d="M139.86 157.92H126.84V165.48H139.86V157.92Z" fill="#CCDDE5"/>
<path d="M139.86 157.92H126.84V165.48H139.86V157.92Z" stroke="#102D3B" stroke-width="3.36" stroke-miterlimit="10" stroke-linecap="round" stroke-linejoin="round"/>
<path d="M139.86 191.226L135.24 185.136V165.48H139.86V191.226Z" fill="#CCDDE5"/>
<path d="M139.86 191.226L135.24 185.136V165.48H139.86V191.226Z" stroke="#102D3B" stroke-width="3.36" stroke-miterlimit="10" stroke-linecap="round" stroke-linejoin="round"/>
</svg>
