<svg width="207" height="207" viewBox="0 0 207 207" fill="none" xmlns="http://www.w3.org/2000/svg">
<g filter="url(#filter0_d)">
<circle cx="103.311" cy="103.311" r="92" transform="rotate(7.56484 103.311 103.311)" fill="#27AA8B"/>
<circle cx="103.311" cy="103.311" r="92" transform="rotate(7.56484 103.311 103.311)" fill="url(#paint0_linear)"/>
</g>
<g filter="url(#filter1_d)">
<path d="M52.154 129.672L60.0998 130.727C60.4483 130.773 60.6888 130.876 60.8213 131.035C60.9538 131.195 61.0054 131.385 60.9761 131.606C60.9484 131.815 60.8497 131.979 60.6802 132.098C60.5106 132.218 60.2516 132.254 59.9031 132.208L51.9573 131.153L50.6637 140.893C50.551 141.741 50.7938 142.495 51.392 143.153C52.0018 143.814 52.963 144.231 54.2757 144.405C55.2632 144.536 56.3512 144.533 57.5398 144.395C58.73 144.246 59.6692 144.028 60.3575 143.741C60.6099 143.621 60.8116 143.571 60.9626 143.591C61.1485 143.616 61.3011 143.713 61.4204 143.882C61.5413 144.04 61.5886 144.218 61.5624 144.415C61.5393 144.59 61.4422 144.742 61.2711 144.873C60.8485 145.207 59.8868 145.505 58.3862 145.767C56.8987 146.019 55.4986 146.057 54.1859 145.883C52.4782 145.656 51.1723 145.075 50.2681 144.139C49.3639 143.203 49.002 142.056 49.1825 140.697L50.4761 130.956L47.7752 130.597C47.4267 130.551 47.1862 130.448 47.0537 130.289C46.9212 130.129 46.8696 129.939 46.8989 129.718C46.9267 129.509 47.0253 129.345 47.1949 129.226C47.3644 129.106 47.6234 129.07 47.9719 129.116L50.6728 129.475L51.2467 125.153C51.293 124.805 51.3959 124.564 51.5553 124.432C51.7148 124.299 51.8991 124.247 52.1082 124.275C52.3289 124.304 52.4989 124.404 52.6183 124.573C52.7376 124.743 52.7741 125.002 52.7279 125.35L52.154 129.672ZM72.6749 125.499L71.4785 134.508C72.542 133.62 73.5248 133.03 74.4268 132.736C75.342 132.432 76.3282 132.35 77.3853 132.49C78.5237 132.642 79.4609 132.973 80.1969 133.484C80.946 133.986 81.5322 134.69 81.9554 135.598C82.3803 136.493 82.5318 137.4 82.4099 138.318L81.2042 147.396L82.8422 147.614C83.2023 147.662 83.4428 147.765 83.5637 147.922C83.6977 148.07 83.7501 148.255 83.7208 148.475C83.693 148.684 83.5944 148.849 83.4249 148.968C83.2669 149.089 83.0079 149.125 82.6478 149.078L77.8907 148.446C77.5306 148.398 77.2843 148.294 77.1518 148.135C77.0193 147.975 76.9669 147.791 76.9947 147.582C77.024 147.361 77.1227 147.197 77.2907 147.089C77.4602 146.97 77.725 146.934 78.0851 146.982L79.7231 147.2L80.9149 138.226C81.0553 137.169 80.7892 136.235 80.1166 135.424C79.4556 134.615 78.4455 134.121 77.0863 133.94C76.0176 133.798 75.071 133.939 74.2465 134.361C73.6511 134.66 72.6343 135.418 71.1961 136.634L69.965 145.904L71.6204 146.124C71.9689 146.17 72.2094 146.273 72.3419 146.432C72.476 146.58 72.5283 146.764 72.499 146.985C72.4712 147.194 72.3726 147.358 72.2031 147.478C72.0335 147.597 71.7745 147.634 71.426 147.587L66.6515 146.953C66.303 146.907 66.0625 146.804 65.93 146.645C65.7975 146.485 65.7451 146.301 65.7729 146.092C65.8022 145.871 65.9009 145.707 66.0689 145.599C66.2384 145.48 66.4974 145.443 66.8459 145.49L68.5013 145.709L71.0144 126.786L69.0454 126.524C68.6969 126.478 68.4564 126.375 68.3239 126.216C68.1914 126.056 68.1398 125.866 68.1691 125.645C68.1969 125.436 68.2955 125.272 68.4651 125.153C68.6346 125.033 68.8936 124.997 69.2421 125.043L72.6749 125.499ZM96.2744 135.531L95.7838 139.225C97.9173 137.759 99.4869 136.844 100.493 136.481C101.512 136.108 102.422 135.975 103.223 136.081C104.095 136.197 104.863 136.601 105.527 137.292C106.205 137.973 106.524 138.464 106.484 138.766C106.455 138.987 106.355 139.163 106.184 139.294C106.026 139.415 105.836 139.461 105.616 139.431C105.499 139.416 105.403 139.385 105.326 139.34C105.251 139.282 105.118 139.129 104.927 138.879C104.574 138.418 104.257 138.092 103.975 137.901C103.693 137.71 103.407 137.595 103.116 137.557C102.477 137.472 101.671 137.625 100.697 138.016C99.7344 138.408 98.0119 139.45 95.5293 141.142L94.4648 149.157L100.947 150.018C101.307 150.066 101.553 150.17 101.686 150.329C101.82 150.477 101.872 150.661 101.843 150.882C101.815 151.091 101.717 151.255 101.547 151.375C101.377 151.494 101.113 151.53 100.753 151.482L89.2694 149.957C88.9209 149.911 88.6796 149.814 88.5455 149.666C88.413 149.506 88.3607 149.322 88.3884 149.113C88.4147 148.915 88.506 148.762 88.6623 148.653C88.8319 148.533 89.0967 148.498 89.4568 148.546L92.9941 149.015L94.614 136.818L91.9131 136.459C91.5646 136.413 91.3241 136.31 91.1916 136.15C91.0591 135.991 91.0075 135.801 91.0368 135.58C91.0646 135.371 91.1574 135.206 91.3153 135.085C91.4848 134.966 91.7497 134.93 92.1098 134.978L96.2744 135.531ZM126.33 147.555L111.414 145.574C111.418 147.502 112.005 149.134 113.175 150.472C114.358 151.799 115.932 152.593 117.895 152.854C118.987 152.999 120.155 152.971 121.399 152.77C122.644 152.569 123.683 152.222 124.517 151.73C124.76 151.585 124.964 151.523 125.126 151.545C125.312 151.569 125.465 151.667 125.584 151.836C125.705 151.994 125.752 152.172 125.726 152.369C125.7 152.567 125.582 152.746 125.371 152.907C124.736 153.414 123.67 153.828 122.174 154.149C120.69 154.461 119.199 154.517 117.701 154.318C115.191 153.985 113.203 152.887 111.736 151.026C110.283 149.154 109.711 147.05 110.021 144.715C110.303 142.59 111.33 140.87 113.1 139.556C114.882 138.244 116.935 137.743 119.258 138.051C121.651 138.369 123.516 139.415 124.853 141.188C126.191 142.95 126.683 145.072 126.33 147.555ZM125.046 145.877C124.97 144.224 124.377 142.81 123.268 141.634C122.171 140.46 120.769 139.759 119.061 139.532C117.354 139.306 115.818 139.61 114.454 140.445C113.09 141.281 112.148 142.498 111.628 144.096L125.046 145.877ZM147.763 150.402L132.847 148.421C132.851 150.348 133.438 151.981 134.608 153.318C135.791 154.646 137.365 155.44 139.328 155.701C140.42 155.846 141.588 155.817 142.832 155.616C144.077 155.415 145.116 155.068 145.949 154.576C146.193 154.431 146.397 154.37 146.559 154.391C146.745 154.416 146.898 154.513 147.017 154.682C147.138 154.84 147.185 155.018 147.159 155.216C147.133 155.413 147.014 155.592 146.804 155.754C146.169 156.26 145.103 156.674 143.607 156.996C142.123 157.307 140.632 157.363 139.133 157.164C136.624 156.831 134.636 155.734 133.169 153.872C131.715 152 131.144 149.897 131.454 147.562C131.736 145.436 132.762 143.716 134.533 142.403C136.315 141.091 138.367 140.589 140.691 140.898C143.084 141.215 144.949 142.261 146.286 144.035C147.624 145.796 148.116 147.919 147.763 150.402ZM146.478 148.724C146.402 147.07 145.81 145.656 144.701 144.48C143.604 143.306 142.202 142.606 140.494 142.379C138.786 142.152 137.251 142.456 135.887 143.292C134.522 144.127 133.581 145.344 133.061 146.942L146.478 148.724Z" fill="white"/>
</g>
<g filter="url(#filter2_d)">
<path d="M58.9342 72.7386C58.7432 74.1766 59.0483 75.4438 59.8496 76.5402C60.6932 77.6422 61.7568 78.7088 63.0402 79.7401C64.3659 80.777 65.8001 81.8067 67.3429 82.8294C68.8857 83.8521 70.2848 84.9848 71.5401 86.2275C72.8377 87.4759 73.8563 88.8809 74.5958 90.4425C75.3832 91.9674 75.6393 93.7661 75.3641 95.8386C74.8979 99.3491 73.5106 101.855 71.2022 103.356C68.9361 104.863 65.646 105.33 61.3319 104.757C59.5978 104.527 57.9468 104.157 56.3789 103.647C54.8053 103.18 53.4643 102.421 52.3557 101.37C51.2471 100.319 50.4005 98.915 49.8159 97.1587C49.2737 95.4081 49.1188 93.1709 49.3514 90.4472C50.2932 90.4861 51.2561 90.5279 52.2401 90.5725C53.2241 90.6171 54.1447 90.6533 55.0018 90.6811C54.7719 93.0608 54.7968 94.9795 55.0767 96.437C55.3566 97.8946 55.8083 99.0306 56.4319 99.8451C57.0554 100.66 57.8184 101.234 58.7208 101.569C59.6711 101.868 60.6538 102.084 61.6689 102.219C64.2912 102.567 66.2688 102.098 67.6018 100.812C68.9403 99.4833 69.7557 97.7193 70.0478 95.5199C70.2612 93.9127 69.9757 92.4975 69.1912 91.2742C68.4124 90.0087 67.3841 88.8391 66.1063 87.7656C64.8341 86.6497 63.4478 85.5833 61.9473 84.5662C60.4468 83.5491 59.0633 82.4615 57.7967 81.3034C56.5302 80.1452 55.5159 78.8699 54.7539 77.4775C53.9919 76.0851 53.7317 74.4795 53.9732 72.6608C54.181 71.0959 54.6877 69.5491 55.4933 68.0205C56.3045 66.4497 57.3047 65.076 58.4939 63.8997C59.6888 62.6811 60.9979 61.7358 62.4214 61.0641C63.8505 60.35 65.2841 60.0884 66.7222 60.2794C67.7372 60.4142 68.6919 60.8423 69.586 61.5636C70.5281 62.2483 71.3758 63.1571 72.1292 64.2902C72.8826 65.4232 73.5233 66.7565 74.0514 68.29C74.6273 69.7869 75.0567 71.4149 75.3396 73.1741L69.7363 74.044C69.9187 72.3466 69.9489 70.8226 69.827 69.4722C69.705 68.1217 69.4704 66.9715 69.1231 66.0215C68.8237 65.0348 68.43 64.2723 67.942 63.7341C67.4539 63.1958 66.935 62.8902 66.3851 62.8171C65.5392 62.7048 64.7118 62.9392 63.9029 63.5205C63.0941 64.1017 62.3445 64.8845 61.6542 65.8689C60.9639 66.8532 60.3654 67.9574 59.8585 69.1813C59.3939 70.4109 59.0858 71.5966 58.9342 72.7386ZM92.0052 68.0919L80.8264 66.2199L81.2308 63.1747L107.433 66.6544L106.919 70.5244L95.7315 68.7159L91.4465 107.788L85.8635 107.046L92.0052 68.0919ZM130.51 101.742C129.682 103.44 128.81 104.981 127.894 106.366C126.984 107.708 126.015 108.849 124.986 109.789C124 110.734 122.981 111.438 121.93 111.901C120.921 112.369 119.909 112.536 118.893 112.401C117.117 112.165 115.562 111.076 114.227 109.135C112.892 107.193 111.842 104.729 111.077 101.743C110.311 98.758 109.828 95.4228 109.629 91.7378C109.435 88.0106 109.591 84.2437 110.097 80.4371C110.507 77.3495 111.174 74.9202 112.098 73.149C113.022 71.3779 114.119 70.0818 115.39 69.2607C116.709 68.4029 118.171 67.9298 119.775 67.8416C121.385 67.7111 123.057 67.7609 124.791 67.9912C126.441 68.2103 127.965 68.5633 129.364 69.0504C130.81 69.5008 132.048 70.2247 133.078 71.2223C134.113 72.1776 134.889 73.4643 135.406 75.0824C135.923 76.7005 136.119 78.7925 135.993 81.3583L130.335 82.1563C130.601 79.8244 130.616 77.9326 130.378 76.4806C130.189 74.992 129.803 73.8433 129.222 73.0344C128.689 72.1888 127.992 71.6013 127.132 71.2719C126.32 70.9058 125.427 70.6581 124.454 70.529C123.482 70.3998 122.534 70.4031 121.612 70.5389C120.69 70.6747 119.838 71.0995 119.054 71.8132C118.313 72.5326 117.651 73.6283 117.068 75.1004C116.485 76.5725 116.023 78.5985 115.68 81.1785C115.45 82.9126 115.246 84.6072 115.069 86.2624C114.935 87.9231 114.867 89.5712 114.865 91.2065L127.236 92.8494L126.857 95.7044L114.866 94.112C114.881 96.266 114.98 98.2805 115.161 100.155C115.343 102.03 115.618 103.681 115.988 105.107C116.364 106.492 116.819 107.606 117.352 108.452C117.885 109.298 118.511 109.768 119.231 109.864C120.415 110.021 121.599 109.21 122.782 107.43C124.013 105.614 125.169 103.228 126.25 100.272L130.51 101.742ZM145.026 71.6469C147.901 71.3832 150.502 71.4058 152.829 71.7147C157.735 72.3663 161.356 73.9447 163.692 76.45C166.076 78.9187 166.998 82.1832 166.459 86.2435C166.15 88.5698 165.371 90.7045 164.123 92.6478C162.881 94.5488 161.317 96.2779 159.431 97.8353C157.546 99.3926 155.405 100.765 153.009 101.954C150.619 103.1 148.121 104.081 145.517 104.897L144.012 114.769L140.459 114.297L145.026 71.6469ZM152.403 74.4343C152.065 74.3894 151.723 74.3656 151.379 74.363C151.041 74.318 150.679 74.2914 150.292 74.2832L145.968 101.987C147.746 101.233 149.481 100.323 151.172 99.2564C152.869 98.1474 154.39 96.9075 155.734 95.5365C157.078 94.1655 158.204 92.6579 159.111 91.0137C160.023 89.3272 160.609 87.5111 160.867 85.5655C161.288 82.3934 160.829 79.8575 159.489 77.9578C158.148 76.0582 155.787 74.8837 152.403 74.4343Z" fill="white"/>
</g>
<defs>
<filter id="filter0_d" x="3.30078" y="11.3004" width="192.021" height="193.021" filterUnits="userSpaceOnUse" color-interpolation-filters="sRGB">
<feFlood flood-opacity="0" result="BackgroundImageFix"/>
<feColorMatrix in="SourceAlpha" type="matrix" values="0 0 0 0 0 0 0 0 0 0 0 0 0 0 0 0 0 0 127 0" result="hardAlpha"/>
<feOffset dx="-6" dy="7"/>
<feGaussianBlur stdDeviation="1"/>
<feComposite in2="hardAlpha" operator="out"/>
<feColorMatrix type="matrix" values="0 0 0 0 0 0 0 0 0 0 0 0 0 0 0 0 0 0 0.5 0"/>
<feBlend mode="normal" in2="BackgroundImageFix" result="effect1_dropShadow"/>
<feBlend mode="normal" in="SourceGraphic" in2="effect1_dropShadow" result="shape"/>
</filter>
<filter id="filter1_d" x="44.8906" y="124.268" width="102.983" height="36.0131" filterUnits="userSpaceOnUse" color-interpolation-filters="sRGB">
<feFlood flood-opacity="0" result="BackgroundImageFix"/>
<feColorMatrix in="SourceAlpha" type="matrix" values="0 0 0 0 0 0 0 0 0 0 0 0 0 0 0 0 0 0 127 0" result="hardAlpha"/>
<feOffset dx="-2" dy="3"/>
<feComposite in2="hardAlpha" operator="out"/>
<feColorMatrix type="matrix" values="0 0 0 0 0.278431 0 0 0 0 0.278431 0 0 0 0 0.278431 0 0 0 1 0"/>
<feBlend mode="normal" in2="BackgroundImageFix" result="effect1_dropShadow"/>
<feBlend mode="normal" in="SourceGraphic" in2="effect1_dropShadow" result="shape"/>
</filter>
<filter id="filter2_d" x="47.2471" y="60.219" width="119.361" height="58.5498" filterUnits="userSpaceOnUse" color-interpolation-filters="sRGB">
<feFlood flood-opacity="0" result="BackgroundImageFix"/>
<feColorMatrix in="SourceAlpha" type="matrix" values="0 0 0 0 0 0 0 0 0 0 0 0 0 0 0 0 0 0 127 0" result="hardAlpha"/>
<feOffset dx="-2" dy="4"/>
<feComposite in2="hardAlpha" operator="out"/>
<feColorMatrix type="matrix" values="0 0 0 0 0.278431 0 0 0 0 0.278431 0 0 0 0 0.278431 0 0 0 1 0"/>
<feBlend mode="normal" in2="BackgroundImageFix" result="effect1_dropShadow"/>
<feBlend mode="normal" in="SourceGraphic" in2="effect1_dropShadow" result="shape"/>
</filter>
<linearGradient id="paint0_linear" x1="11.3113" y1="23.6852" x2="573.964" y2="271.113" gradientUnits="userSpaceOnUse">
<stop stop-color="#0042C2" stop-opacity="0.72"/>
<stop offset="0.456784" stop-color="white" stop-opacity="0"/>
</linearGradient>
</defs>
</svg>
