<svg width="215" height="216" viewBox="0 0 215 216" fill="none" xmlns="http://www.w3.org/2000/svg">
<g filter="url(#filter0_d)">
<circle cx="111.311" cy="103.311" r="92" transform="rotate(7.56484 111.311 103.311)" fill="#FF8966"/>
</g>
<g filter="url(#filter1_d)">
<path d="M79.154 132.672L87.0998 133.727C87.4483 133.773 87.6888 133.876 87.8213 134.035C87.9538 134.195 88.0054 134.385 87.9761 134.606C87.9484 134.815 87.8497 134.979 87.6802 135.098C87.5106 135.218 87.2516 135.254 86.9031 135.208L78.9573 134.153L77.6637 143.893C77.551 144.741 77.7938 145.495 78.392 146.153C79.0018 146.814 79.963 147.231 81.2757 147.405C82.2632 147.536 83.3512 147.533 84.5398 147.395C85.73 147.246 86.6692 147.028 87.3575 146.741C87.6099 146.621 87.8116 146.571 87.9626 146.591C88.1485 146.616 88.3011 146.713 88.4204 146.882C88.5413 147.04 88.5886 147.218 88.5624 147.415C88.5393 147.59 88.4422 147.742 88.2711 147.873C87.8485 148.207 86.8868 148.505 85.3862 148.767C83.8987 149.019 82.4986 149.057 81.1859 148.883C79.4782 148.656 78.1723 148.075 77.2681 147.139C76.3639 146.203 76.002 145.056 76.1825 143.697L77.4761 133.956L74.7752 133.597C74.4267 133.551 74.1862 133.448 74.0537 133.289C73.9212 133.129 73.8696 132.939 73.8989 132.718C73.9267 132.509 74.0253 132.345 74.1949 132.226C74.3644 132.106 74.6234 132.07 74.9719 132.116L77.6728 132.475L78.2467 128.153C78.293 127.805 78.3959 127.564 78.5553 127.432C78.7148 127.299 78.8991 127.247 79.1082 127.275C79.3289 127.304 79.4989 127.404 79.6183 127.573C79.7376 127.743 79.7741 128.002 79.7279 128.35L79.154 132.672ZM106.633 151.677L104.819 151.454L102.845 141.616L98.3889 150.6L96.579 150.342L95.3543 136.33L94.6399 136.235C94.2914 136.189 94.0509 136.086 93.9184 135.927C93.7859 135.767 93.7343 135.577 93.7636 135.357C93.7914 135.147 93.89 134.983 94.0595 134.864C94.2291 134.745 94.4881 134.708 94.8366 134.754L98.8618 135.289C99.2103 135.335 99.4508 135.438 99.5833 135.597C99.7158 135.757 99.7674 135.947 99.7381 136.168C99.7103 136.377 99.6117 136.541 99.4421 136.66C99.2726 136.78 99.0136 136.816 98.6651 136.77L96.8006 136.522L97.8557 148.472L102.206 139.616L103.948 139.848L105.924 149.544L109.957 138.27L108.11 138.024C107.761 137.978 107.515 137.874 107.371 137.713C107.238 137.554 107.186 137.364 107.216 137.143C107.244 136.934 107.342 136.77 107.512 136.65C107.681 136.531 107.946 136.495 108.306 136.543L112.314 137.075C112.674 137.123 112.92 137.227 113.053 137.386C113.185 137.546 113.237 137.736 113.208 137.957C113.18 138.166 113.081 138.33 112.912 138.449C112.742 138.569 112.477 138.604 112.117 138.556L111.42 138.464L106.633 151.677ZM132.2 147.43C131.904 149.66 130.849 151.459 129.036 152.826C127.235 154.195 125.208 154.729 122.954 154.43C120.677 154.127 118.848 153.081 117.466 151.289C116.086 149.487 115.543 147.476 115.838 145.257C116.134 143.027 117.183 141.227 118.984 139.859C120.787 138.478 122.827 137.94 125.104 138.242C127.357 138.541 129.175 139.586 130.557 141.378C131.95 143.17 132.498 145.188 132.2 147.43ZM130.719 147.233C130.963 145.398 130.514 143.748 129.372 142.284C128.243 140.822 126.748 139.968 124.89 139.721C123.031 139.474 121.359 139.914 119.873 141.041C118.401 142.157 117.544 143.628 117.302 145.451C117.061 147.264 117.505 148.907 118.633 150.38C119.773 151.856 121.272 152.717 123.131 152.964C124.99 153.211 126.655 152.776 128.127 151.659C129.613 150.532 130.477 149.057 130.719 147.233Z" fill="white"/>
</g>
<g filter="url(#filter2_d)">
<path d="M66.9342 72.7386C66.7432 74.1766 67.0483 75.4438 67.8496 76.5402C68.6932 77.6422 69.7568 78.7088 71.0402 79.7401C72.3659 80.777 73.8001 81.8067 75.3429 82.8294C76.8857 83.8521 78.2848 84.9848 79.5401 86.2275C80.8377 87.4759 81.8563 88.8809 82.5958 90.4425C83.3832 91.9674 83.6393 93.7661 83.3641 95.8386C82.8979 99.3491 81.5106 101.855 79.2022 103.356C76.9361 104.863 73.646 105.33 69.3319 104.757C67.5978 104.527 65.9468 104.157 64.3789 103.647C62.8053 103.18 61.4643 102.421 60.3557 101.37C59.2471 100.319 58.4005 98.915 57.8159 97.1587C57.2737 95.4081 57.1188 93.1709 57.3514 90.4472C58.2932 90.4861 59.2561 90.5279 60.2401 90.5725C61.2241 90.6171 62.1447 90.6533 63.0018 90.6811C62.7719 93.0608 62.7968 94.9795 63.0767 96.437C63.3566 97.8946 63.8083 99.0306 64.4319 99.8451C65.0554 100.66 65.8184 101.234 66.7208 101.569C67.6711 101.868 68.6538 102.084 69.6689 102.219C72.2912 102.567 74.2688 102.098 75.6018 100.812C76.9403 99.4833 77.7557 97.7193 78.0478 95.5199C78.2612 93.9127 77.9757 92.4975 77.1912 91.2742C76.4124 90.0087 75.3841 88.8391 74.1063 87.7656C72.8341 86.6497 71.4478 85.5833 69.9473 84.5662C68.4468 83.5491 67.0633 82.4615 65.7967 81.3034C64.5302 80.1452 63.5159 78.8699 62.7539 77.4775C61.9919 76.0851 61.7317 74.4795 61.9732 72.6608C62.181 71.0959 62.6877 69.5491 63.4933 68.0205C64.3045 66.4497 65.3047 65.076 66.4939 63.8997C67.6888 62.6811 68.9979 61.7358 70.4214 61.0641C71.8505 60.35 73.2841 60.0884 74.7222 60.2794C75.7372 60.4142 76.6919 60.8423 77.586 61.5636C78.5281 62.2483 79.3758 63.1571 80.1292 64.2902C80.8826 65.4232 81.5233 66.7565 82.0514 68.29C82.6273 69.7869 83.0567 71.4149 83.3396 73.1741L77.7363 74.044C77.9187 72.3466 77.9489 70.8226 77.827 69.4722C77.705 68.1217 77.4704 66.9715 77.1231 66.0215C76.8237 65.0348 76.43 64.2723 75.942 63.7341C75.4539 63.1958 74.935 62.8902 74.3851 62.8171C73.5392 62.7048 72.7118 62.9392 71.9029 63.5205C71.0941 64.1017 70.3445 64.8845 69.6542 65.8689C68.9639 66.8532 68.3654 67.9574 67.8585 69.1813C67.3939 70.4109 67.0858 71.5966 66.9342 72.7386ZM100.005 68.0919L88.8264 66.2199L89.2308 63.1747L115.433 66.6544L114.919 70.5244L103.732 68.7159L99.4465 107.788L93.8635 107.046L100.005 68.0919ZM138.51 101.742C137.682 103.44 136.81 104.981 135.894 106.366C134.984 107.708 134.015 108.849 132.986 109.789C132 110.734 130.981 111.438 129.93 111.901C128.921 112.369 127.909 112.536 126.893 112.401C125.117 112.165 123.562 111.076 122.227 109.135C120.892 107.193 119.842 104.729 119.077 101.743C118.311 98.758 117.828 95.4228 117.629 91.7378C117.435 88.0106 117.591 84.2437 118.097 80.4371C118.507 77.3495 119.174 74.9202 120.098 73.149C121.022 71.3779 122.119 70.0818 123.39 69.2607C124.709 68.4029 126.171 67.9298 127.775 67.8416C129.385 67.7111 131.057 67.7609 132.791 67.9912C134.441 68.2103 135.965 68.5633 137.364 69.0504C138.81 69.5008 140.048 70.2247 141.078 71.2223C142.113 72.1776 142.889 73.4643 143.406 75.0824C143.923 76.7005 144.119 78.7925 143.993 81.3583L138.335 82.1563C138.601 79.8244 138.616 77.9326 138.378 76.4806C138.189 74.992 137.803 73.8433 137.222 73.0344C136.689 72.1888 135.992 71.6013 135.132 71.2719C134.32 70.9058 133.427 70.6581 132.454 70.529C131.482 70.3998 130.534 70.4031 129.612 70.5389C128.69 70.6747 127.838 71.0995 127.054 71.8132C126.313 72.5326 125.651 73.6283 125.068 75.1004C124.485 76.5725 124.023 78.5985 123.68 81.1785C123.45 82.9126 123.246 84.6072 123.069 86.2624C122.935 87.9231 122.867 89.5712 122.865 91.2065L135.236 92.8494L134.857 95.7044L122.866 94.112C122.881 96.266 122.98 98.2805 123.161 100.155C123.343 102.03 123.618 103.681 123.988 105.107C124.364 106.492 124.819 107.606 125.352 108.452C125.885 109.298 126.511 109.768 127.231 109.864C128.415 110.021 129.599 109.21 130.782 107.43C132.013 105.614 133.169 103.228 134.25 100.272L138.51 101.742ZM153.026 71.6469C155.901 71.3832 158.502 71.4058 160.829 71.7147C165.735 72.3663 169.356 73.9447 171.692 76.45C174.076 78.9187 174.998 82.1832 174.459 86.2435C174.15 88.5698 173.371 90.7045 172.123 92.6478C170.881 94.5488 169.317 96.2779 167.431 97.8353C165.546 99.3926 163.405 100.765 161.009 101.954C158.619 103.1 156.121 104.081 153.517 104.897L152.012 114.769L148.459 114.297L153.026 71.6469ZM160.403 74.4343C160.065 74.3894 159.723 74.3656 159.379 74.363C159.041 74.318 158.679 74.2914 158.292 74.2832L153.968 101.987C155.746 101.233 157.481 100.323 159.172 99.2564C160.869 98.1474 162.39 96.9075 163.734 95.5365C165.078 94.1655 166.204 92.6579 167.111 91.0137C168.023 89.3272 168.609 87.5111 168.867 85.5655C169.288 82.3934 168.829 79.8575 167.489 77.9578C166.148 76.0582 163.787 74.8837 160.403 74.4343Z" fill="white"/>
</g>
<defs>
<filter id="filter0_d" x="0" y="0" width="214.622" height="215.622" filterUnits="userSpaceOnUse" color-interpolation-filters="sRGB">
<feFlood flood-opacity="0" result="BackgroundImageFix"/>
<feColorMatrix in="SourceAlpha" type="matrix" values="0 0 0 0 0 0 0 0 0 0 0 0 0 0 0 0 0 0 127 0" result="hardAlpha"/>
<feOffset dx="-6" dy="7"/>
<feGaussianBlur stdDeviation="1"/>
<feComposite in2="hardAlpha" operator="out"/>
<feColorMatrix type="matrix" values="0 0 0 0 0 0 0 0 0 0 0 0 0 0 0 0 0 0 0.5 0"/>
<feBlend mode="normal" in2="BackgroundImageFix" result="effect1_dropShadow"/>
<feBlend mode="normal" in="SourceGraphic" in2="effect1_dropShadow" result="shape"/>
</filter>
<filter id="filter1_d" x="71.8906" y="127.268" width="60.3878" height="30.2428" filterUnits="userSpaceOnUse" color-interpolation-filters="sRGB">
<feFlood flood-opacity="0" result="BackgroundImageFix"/>
<feColorMatrix in="SourceAlpha" type="matrix" values="0 0 0 0 0 0 0 0 0 0 0 0 0 0 0 0 0 0 127 0" result="hardAlpha"/>
<feOffset dx="-2" dy="3"/>
<feComposite in2="hardAlpha" operator="out"/>
<feColorMatrix type="matrix" values="0 0 0 0 0.278431 0 0 0 0 0.278431 0 0 0 0 0.278431 0 0 0 1 0"/>
<feBlend mode="normal" in2="BackgroundImageFix" result="effect1_dropShadow"/>
<feBlend mode="normal" in="SourceGraphic" in2="effect1_dropShadow" result="shape"/>
</filter>
<filter id="filter2_d" x="55.2471" y="60.219" width="119.361" height="58.5498" filterUnits="userSpaceOnUse" color-interpolation-filters="sRGB">
<feFlood flood-opacity="0" result="BackgroundImageFix"/>
<feColorMatrix in="SourceAlpha" type="matrix" values="0 0 0 0 0 0 0 0 0 0 0 0 0 0 0 0 0 0 127 0" result="hardAlpha"/>
<feOffset dx="-2" dy="4"/>
<feComposite in2="hardAlpha" operator="out"/>
<feColorMatrix type="matrix" values="0 0 0 0 0.278431 0 0 0 0 0.278431 0 0 0 0 0.278431 0 0 0 1 0"/>
<feBlend mode="normal" in2="BackgroundImageFix" result="effect1_dropShadow"/>
<feBlend mode="normal" in="SourceGraphic" in2="effect1_dropShadow" result="shape"/>
</filter>
</defs>
</svg>
