<svg width="215" height="216" viewBox="0 0 215 216" fill="none" xmlns="http://www.w3.org/2000/svg">
<g filter="url(#filter0_d)">
<circle cx="111.311" cy="103.311" r="92" transform="rotate(7.56484 111.311 103.311)" fill="#E5446D"/>
</g>
<g filter="url(#filter1_d)">
<path d="M92.429 139.564C92.1328 141.795 91.0782 143.594 89.2653 144.961C87.464 146.329 85.4365 146.864 83.1828 146.564C80.906 146.262 79.0767 145.215 77.695 143.424C76.3148 141.621 75.7721 139.61 76.0668 137.391C76.363 135.161 77.4117 133.362 79.2131 131.993C81.0159 130.613 83.0558 130.074 85.3327 130.376C87.5863 130.676 89.404 131.721 90.7857 133.512C92.179 135.305 92.7267 137.322 92.429 139.564ZM90.9478 139.368C91.1916 137.532 90.7428 135.883 89.6013 134.419C88.4715 132.957 86.9772 132.102 85.1185 131.855C83.2599 131.608 81.5878 132.048 80.1023 133.175C78.63 134.292 77.7727 135.762 77.5305 137.586C77.2898 139.398 77.7336 141.041 78.8619 142.515C80.0018 143.99 81.5011 144.852 83.3598 145.098C85.2185 145.345 86.884 144.91 88.3563 143.794C89.8418 142.667 90.7056 141.192 90.9478 139.368ZM101.957 133.116L101.663 135.329C102.822 134.431 103.841 133.839 104.718 133.554C105.595 133.268 106.551 133.194 107.585 133.332C108.7 133.48 109.685 133.853 110.539 134.451C111.143 134.886 111.653 135.545 112.068 136.427C112.496 137.3 112.653 138.16 112.541 139.008L111.316 148.226L112.554 148.39C112.902 148.437 113.143 148.539 113.275 148.699C113.409 148.847 113.461 149.031 113.432 149.252C113.404 149.461 113.306 149.625 113.136 149.744C112.967 149.864 112.708 149.9 112.359 149.854L108.439 149.333C108.078 149.285 107.832 149.182 107.7 149.022C107.567 148.863 107.515 148.679 107.542 148.469C107.572 148.249 107.67 148.085 107.838 147.977C108.008 147.857 108.273 147.822 108.633 147.87L109.853 148.032L111.044 139.058C111.182 138.024 110.92 137.102 110.259 136.293C109.599 135.473 108.637 134.979 107.37 134.81C106.406 134.682 105.544 134.769 104.783 135.07C104.023 135.359 102.884 136.189 101.366 137.56L100.147 146.743L101.802 146.962C102.151 147.009 102.391 147.112 102.524 147.271C102.658 147.419 102.71 147.603 102.681 147.824C102.653 148.033 102.554 148.197 102.385 148.317C102.215 148.436 101.956 148.472 101.608 148.426L96.8334 147.792C96.4849 147.746 96.2444 147.643 96.1119 147.483C95.9794 147.324 95.927 147.14 95.9548 146.931C95.9841 146.71 96.0827 146.546 96.2507 146.438C96.4202 146.319 96.6793 146.282 97.0278 146.328L98.6832 146.548L100.296 134.403L99.0589 134.239C98.7104 134.192 98.4699 134.089 98.3374 133.93C98.2049 133.77 98.1533 133.58 98.1826 133.36C98.2104 133.151 98.309 132.986 98.4786 132.867C98.6481 132.748 98.9071 132.711 99.2556 132.757L101.957 133.116ZM134.992 145.536L120.076 143.555C120.08 145.483 120.667 147.115 121.837 148.453C123.02 149.78 124.593 150.574 126.557 150.835C127.649 150.98 128.817 150.952 130.061 150.751C131.306 150.55 132.345 150.203 133.178 149.711C133.422 149.566 133.625 149.504 133.788 149.526C133.974 149.55 134.127 149.647 134.246 149.817C134.367 149.975 134.414 150.153 134.388 150.35C134.362 150.548 134.243 150.727 134.033 150.888C133.398 151.395 132.332 151.809 130.836 152.13C129.352 152.442 127.861 152.498 126.362 152.299C123.853 151.966 121.865 150.868 120.398 149.006C118.944 147.135 118.373 145.031 118.683 142.696C118.965 140.571 119.991 138.851 121.762 137.537C123.544 136.225 125.596 135.724 127.92 136.032C130.313 136.35 132.178 137.396 133.514 139.169C134.853 140.931 135.345 143.053 134.992 145.536ZM133.707 143.858C133.631 142.205 133.039 140.79 131.93 139.615C130.833 138.441 129.431 137.74 127.723 137.513C126.015 137.287 124.479 137.591 123.115 138.426C121.751 139.262 120.81 140.479 120.29 142.076L133.707 143.858Z" fill="white"/>
</g>
<g filter="url(#filter2_d)">
<path d="M66.9342 72.7386C66.7432 74.1767 67.0483 75.4439 67.8496 76.5402C68.6932 77.6422 69.7568 78.7088 71.0402 79.7401C72.3659 80.777 73.8001 81.8068 75.3429 82.8294C76.8857 83.8521 78.2848 84.9848 79.5401 86.2276C80.8377 87.4759 81.8563 88.8809 82.5958 90.4425C83.3832 91.9675 83.6393 93.7662 83.3641 95.8386C82.8979 99.3491 81.5106 101.855 79.2022 103.356C76.9361 104.863 73.646 105.33 69.3319 104.757C67.5978 104.527 65.9468 104.157 64.3789 103.647C62.8053 103.18 61.4643 102.421 60.3557 101.37C59.2471 100.319 58.4005 98.915 57.8159 97.1588C57.2737 95.4081 57.1188 93.1709 57.3514 90.4472C58.2932 90.4862 59.2561 90.528 60.2401 90.5726C61.2241 90.6172 62.1447 90.6533 63.0018 90.6811C62.7719 93.0609 62.7968 94.9795 63.0767 96.437C63.3566 97.8946 63.8083 99.0306 64.4319 99.8451C65.0554 100.66 65.8184 101.234 66.7208 101.569C67.6711 101.868 68.6538 102.084 69.6689 102.219C72.2912 102.567 74.2688 102.098 75.6018 100.812C76.9403 99.4833 77.7557 97.7193 78.0478 95.52C78.2612 93.9128 77.9757 92.4975 77.1912 91.2743C76.4124 90.0087 75.3841 88.8392 74.1063 87.7656C72.8341 86.6497 71.4478 85.5833 69.9473 84.5662C68.4468 83.5492 67.0633 82.4616 65.7967 81.3034C64.5302 80.1453 63.5159 78.87 62.7539 77.4775C61.9919 76.0851 61.7317 74.4795 61.9732 72.6608C62.181 71.0959 62.6877 69.5492 63.4933 68.0206C64.3045 66.4497 65.3047 65.0761 66.4939 63.8997C67.6888 62.6811 68.9979 61.7359 70.4214 61.0641C71.8505 60.35 73.2841 60.0885 74.7222 60.2794C75.7372 60.4143 76.6919 60.8423 77.586 61.5636C78.5281 62.2483 79.3758 63.1571 80.1292 64.2902C80.8826 65.4232 81.5233 66.7565 82.0514 68.29C82.6273 69.7869 83.0567 71.4149 83.3396 73.1741L77.7363 74.0441C77.9187 72.3466 77.9489 70.8227 77.827 69.4722C77.705 68.1217 77.4704 66.9715 77.1231 66.0215C76.8237 65.0348 76.43 64.2724 75.942 63.7341C75.4539 63.1958 74.935 62.8902 74.3851 62.8172C73.5392 62.7048 72.7118 62.9393 71.9029 63.5205C71.0941 64.1017 70.3445 64.8845 69.6542 65.8689C68.9639 66.8533 68.3654 67.9574 67.8585 69.1813C67.3939 70.4109 67.0858 71.5966 66.9342 72.7386ZM100.005 68.0919L88.8264 66.2199L89.2308 63.1747L115.433 66.6544L114.919 70.5244L103.732 68.7159L99.4465 107.788L93.8635 107.046L100.005 68.0919ZM138.51 101.742C137.682 103.44 136.81 104.981 135.894 106.366C134.984 107.708 134.015 108.849 132.986 109.789C132 110.734 130.981 111.438 129.93 111.901C128.921 112.369 127.909 112.536 126.893 112.401C125.117 112.165 123.562 111.077 122.227 109.135C120.892 107.193 119.842 104.729 119.077 101.744C118.311 98.7581 117.828 95.4228 117.629 91.7379C117.435 88.0106 117.591 84.2437 118.097 80.4371C118.507 77.3495 119.174 74.9202 120.098 73.1491C121.022 71.378 122.119 70.0818 123.39 69.2607C124.709 68.4029 126.171 67.9299 127.775 67.8416C129.385 67.7111 131.057 67.761 132.791 67.9913C134.441 68.2103 135.965 68.5634 137.364 69.0504C138.81 69.5008 140.048 70.2248 141.078 71.2223C142.113 72.1776 142.889 73.4643 143.406 75.0824C143.923 76.7005 144.119 78.7925 143.993 81.3583L138.335 82.1563C138.601 79.8245 138.616 77.9326 138.378 76.4807C138.189 74.9921 137.803 73.8433 137.222 73.0344C136.689 72.1889 135.992 71.6014 135.132 71.2719C134.32 70.9058 133.427 70.6582 132.454 70.529C131.482 70.3998 130.534 70.4031 129.612 70.5389C128.69 70.6747 127.838 71.0995 127.054 71.8133C126.313 72.5326 125.651 73.6283 125.068 75.1004C124.485 76.5725 124.023 78.5985 123.68 81.1785C123.45 82.9126 123.246 84.6073 123.069 86.2624C122.935 87.9232 122.867 89.5712 122.865 91.2065L135.236 92.8495L134.857 95.7044L122.866 94.112C122.881 96.2661 122.98 98.2805 123.161 100.155C123.343 102.03 123.618 103.681 123.988 105.107C124.364 106.492 124.819 107.606 125.352 108.452C125.885 109.298 126.511 109.768 127.231 109.864C128.415 110.021 129.599 109.21 130.782 107.43C132.013 105.614 133.169 103.228 134.25 100.272L138.51 101.742ZM153.026 71.6469C155.901 71.3832 158.502 71.4058 160.829 71.7147C165.735 72.3663 169.356 73.9447 171.692 76.4501C174.076 78.9187 174.998 82.1832 174.459 86.2435C174.15 88.5698 173.371 90.7045 172.123 92.6478C170.881 94.5488 169.317 96.278 167.431 97.8353C165.546 99.3927 163.405 100.765 161.009 101.954C158.619 103.1 156.121 104.081 153.517 104.897L152.012 114.769L148.459 114.297L153.026 71.6469ZM160.403 74.4344C160.065 74.3894 159.723 74.3656 159.379 74.363C159.041 74.3181 158.679 74.2915 158.292 74.2832L153.968 101.987C155.746 101.233 157.481 100.323 159.172 99.2564C160.869 98.1475 162.39 96.9075 163.734 95.5365C165.078 94.1656 166.204 92.658 167.111 91.0137C168.023 89.3272 168.609 87.5111 168.867 85.5655C169.288 82.3934 168.829 79.8575 167.489 77.9579C166.148 76.0582 163.787 74.8837 160.403 74.4344Z" fill="white"/>
</g>
<defs>
<filter id="filter0_d" x="0" y="0" width="214.622" height="215.622" filterUnits="userSpaceOnUse" color-interpolation-filters="sRGB">
<feFlood flood-opacity="0" result="BackgroundImageFix"/>
<feColorMatrix in="SourceAlpha" type="matrix" values="0 0 0 0 0 0 0 0 0 0 0 0 0 0 0 0 0 0 127 0" result="hardAlpha"/>
<feOffset dx="-6" dy="7"/>
<feGaussianBlur stdDeviation="1"/>
<feComposite in2="hardAlpha" operator="out"/>
<feColorMatrix type="matrix" values="0 0 0 0 0 0 0 0 0 0 0 0 0 0 0 0 0 0 0.5 0"/>
<feBlend mode="normal" in2="BackgroundImageFix" result="effect1_dropShadow"/>
<feBlend mode="normal" in="SourceGraphic" in2="effect1_dropShadow" result="shape"/>
</filter>
<filter id="filter1_d" x="73.9893" y="130.295" width="61.1135" height="25.1203" filterUnits="userSpaceOnUse" color-interpolation-filters="sRGB">
<feFlood flood-opacity="0" result="BackgroundImageFix"/>
<feColorMatrix in="SourceAlpha" type="matrix" values="0 0 0 0 0 0 0 0 0 0 0 0 0 0 0 0 0 0 127 0" result="hardAlpha"/>
<feOffset dx="-2" dy="3"/>
<feComposite in2="hardAlpha" operator="out"/>
<feColorMatrix type="matrix" values="0 0 0 0 0.278431 0 0 0 0 0.278431 0 0 0 0 0.278431 0 0 0 1 0"/>
<feBlend mode="normal" in2="BackgroundImageFix" result="effect1_dropShadow"/>
<feBlend mode="normal" in="SourceGraphic" in2="effect1_dropShadow" result="shape"/>
</filter>
<filter id="filter2_d" x="55.2471" y="60.219" width="119.361" height="58.5498" filterUnits="userSpaceOnUse" color-interpolation-filters="sRGB">
<feFlood flood-opacity="0" result="BackgroundImageFix"/>
<feColorMatrix in="SourceAlpha" type="matrix" values="0 0 0 0 0 0 0 0 0 0 0 0 0 0 0 0 0 0 127 0" result="hardAlpha"/>
<feOffset dx="-2" dy="4"/>
<feComposite in2="hardAlpha" operator="out"/>
<feColorMatrix type="matrix" values="0 0 0 0 0.278431 0 0 0 0 0.278431 0 0 0 0 0.278431 0 0 0 1 0"/>
<feBlend mode="normal" in2="BackgroundImageFix" result="effect1_dropShadow"/>
<feBlend mode="normal" in="SourceGraphic" in2="effect1_dropShadow" result="shape"/>
</filter>
</defs>
</svg>
